<?xml version='1.0' encoding='UTF-8' standalone='no'?>
<svg xmlns:rdf="http://www.w3.org/1999/02/22-rdf-syntax-ns#" xmlns:sodipodi="http://sodipodi.sourceforge.net/DTD/sodipodi-0.dtd" xmlns:xlink="http://www.w3.org/1999/xlink" baseProfile="tiny" xmlns:svg="http://www.w3.org/2000/svg" xmlns:cc="http://creativecommons.org/ns#" height="210mm" xmlns:dc="http://purl.org/dc/elements/1.1/" xmlns:inkscape="http://www.inkscape.org/namespaces/inkscape" xmlns:freecad="https://www.freecad.org/wiki/index.php?title=Svg_Namespace" xmlns="http://www.w3.org/2000/svg" version="1.2" width="297mm" viewBox="0 0 2970 2100">
 <title>FreeCAD SVG Export</title>
 <desc>Drawing page: Page exported from FreeCAD document: board_outline</desc>
 <defs/>
 <g id="Page" inkscape:label="TechDraw" inkscape:groupmode="layer">
  <g style="stroke: none;" transform="scale(10.000000, 10.000000)" id="Default_Template_A4_Landscape.svg">
   <metadata id="metadata8">
    <rdf:RDF>
     <cc:Work rdf:about="">
      <dc:format>image/svg+xml</dc:format>
      <dc:type rdf:resource="http://purl.org/dc/dcmitype/StillImage"/>
     </cc:Work>
    </rdf:RDF>
   </metadata>
  </g>
  <g fill="none" stroke-linejoin="bevel" stroke-width="1" stroke-linecap="square" id="DrawingContent" stroke="black" fill-rule="evenodd">
   <g fill="#f1f3f5" font-weight="400" fill-opacity="0" font-style="normal" transform="matrix(1,0,0,1,1485,1050)" font-size="29.1042" stroke="none" font-family="MS Shell Dlg 2">
    <path vector-effect="non-scaling-stroke" d="M233.5,375.5 L233.5,-375.5 L-118.5,-375.5 L-233.5,-375.5 L-233.5,74.5 L-118.5,74.5 L-118.5,375.5 L46,375.5 L46,335.5 L69,335.5 L69,375.5 L233.5,375.5" fill-rule="evenodd"/>
   </g>
   <g fill="#f1f3f5" font-weight="400" fill-opacity="0" font-style="normal" transform="matrix(1,0,0,1,1485,1050)" font-size="29.1042" stroke="none" font-family="MS Shell Dlg 2">
    <path vector-effect="non-scaling-stroke" d="M133.3,-119 C133.3,-103.812 120.988,-91.5 105.8,-91.5 C90.6122,-91.5 78.3,-103.812 78.3,-119 C78.3,-134.188 90.6122,-146.5 105.8,-146.5 C120.988,-146.5 133.3,-134.188 133.3,-119 " fill-rule="evenodd"/>
   </g>
   <g fill="#f1f3f5" font-weight="400" fill-opacity="0" font-style="normal" transform="matrix(1,0,0,1,1485,1050)" font-size="29.1042" stroke="none" font-family="MS Shell Dlg 2">
    <path vector-effect="non-scaling-stroke" d="M-79,332.5 C-79,335.261 -81.2386,337.5 -84,337.5 C-86.7614,337.5 -89,335.261 -89,332.5 C-89,329.739 -86.7614,327.5 -84,327.5 C-81.2386,327.5 -79,329.739 -79,332.5 " fill-rule="evenodd"/>
   </g>
   <g fill="none" stroke-linejoin="bevel" stroke-width="7" font-weight="400" font-style="normal" stroke-opacity="1" transform="matrix(1,0,0,1,1485,1050)" stroke-linecap="round" font-size="29.1042" stroke="#000000" font-family="MS Shell Dlg 2">
    <path vector-effect="none" d="M233.5,375.5 L233.5,-375.5" fill-rule="evenodd"/>
   </g>
   <g fill="none" stroke-linejoin="bevel" stroke-width="7" font-weight="400" font-style="normal" stroke-opacity="1" transform="matrix(1,0,0,1,1485,1050)" stroke-linecap="round" font-size="29.1042" stroke="#000000" font-family="MS Shell Dlg 2">
    <path vector-effect="none" d="M233.5,-375.5 L-118.5,-375.5" fill-rule="evenodd"/>
   </g>
   <g fill="none" stroke-linejoin="bevel" stroke-width="7" font-weight="400" font-style="normal" stroke-opacity="1" transform="matrix(1,0,0,1,1485,1050)" stroke-linecap="round" font-size="29.1042" stroke="#000000" font-family="MS Shell Dlg 2">
    <path vector-effect="none" d="M-118.5,-375.5 L-233.5,-375.5" fill-rule="evenodd"/>
   </g>
   <g fill="none" stroke-linejoin="bevel" stroke-width="7" font-weight="400" font-style="normal" stroke-opacity="1" transform="matrix(1,0,0,1,1485,1050)" stroke-linecap="round" font-size="29.1042" stroke="#000000" font-family="MS Shell Dlg 2">
    <path vector-effect="none" d="M-233.5,-375.5 L-233.5,74.5" fill-rule="evenodd"/>
   </g>
   <g fill="none" stroke-linejoin="bevel" stroke-width="7" font-weight="400" font-style="normal" stroke-opacity="1" transform="matrix(1,0,0,1,1485,1050)" stroke-linecap="round" font-size="29.1042" stroke="#000000" font-family="MS Shell Dlg 2">
    <path vector-effect="none" d="M-233.5,74.5 L-118.5,74.5" fill-rule="evenodd"/>
   </g>
   <g fill="none" stroke-linejoin="bevel" stroke-width="7" font-weight="400" font-style="normal" stroke-opacity="1" transform="matrix(1,0,0,1,1485,1050)" stroke-linecap="round" font-size="29.1042" stroke="#000000" font-family="MS Shell Dlg 2">
    <path vector-effect="none" d="M-118.5,74.5 L-118.5,375.5" fill-rule="evenodd"/>
   </g>
   <g fill="none" stroke-linejoin="bevel" stroke-width="7" font-weight="400" font-style="normal" stroke-opacity="1" transform="matrix(1,0,0,1,1485,1050)" stroke-linecap="round" font-size="29.1042" stroke="#000000" font-family="MS Shell Dlg 2">
    <path vector-effect="none" d="M-118.5,375.5 L46,375.5" fill-rule="evenodd"/>
   </g>
   <g fill="none" stroke-linejoin="bevel" stroke-width="7" font-weight="400" font-style="normal" stroke-opacity="1" transform="matrix(1,0,0,1,1485,1050)" stroke-linecap="round" font-size="29.1042" stroke="#000000" font-family="MS Shell Dlg 2">
    <path vector-effect="none" d="M46,375.5 L46,335.5" fill-rule="evenodd"/>
   </g>
   <g fill="none" stroke-linejoin="bevel" stroke-width="7" font-weight="400" font-style="normal" stroke-opacity="1" transform="matrix(1,0,0,1,1485,1050)" stroke-linecap="round" font-size="29.1042" stroke="#000000" font-family="MS Shell Dlg 2">
    <path vector-effect="none" d="M46,335.5 L69,335.5" fill-rule="evenodd"/>
   </g>
   <g fill="none" stroke-linejoin="bevel" stroke-width="7" font-weight="400" font-style="normal" stroke-opacity="1" transform="matrix(1,0,0,1,1485,1050)" stroke-linecap="round" font-size="29.1042" stroke="#000000" font-family="MS Shell Dlg 2">
    <path vector-effect="none" d="M69,335.5 L69,375.5" fill-rule="evenodd"/>
   </g>
   <g fill="none" stroke-linejoin="bevel" stroke-width="7" font-weight="400" font-style="normal" stroke-opacity="1" transform="matrix(1,0,0,1,1485,1050)" stroke-linecap="round" font-size="29.1042" stroke="#000000" font-family="MS Shell Dlg 2">
    <path vector-effect="none" d="M69,375.5 L233.5,375.5" fill-rule="evenodd"/>
   </g>
   <g fill="none" stroke-linejoin="bevel" stroke-width="7" font-weight="400" font-style="normal" stroke-opacity="1" transform="matrix(1,0,0,1,1485,1050)" stroke-linecap="round" font-size="29.1042" stroke="#000000" font-family="MS Shell Dlg 2">
    <path vector-effect="none" d="M133.3,-119 C133.3,-103.812 120.988,-91.5 105.8,-91.5 C90.6122,-91.5 78.3,-103.812 78.3,-119 C78.3,-134.188 90.6122,-146.5 105.8,-146.5 C120.988,-146.5 133.3,-134.188 133.3,-119 " fill-rule="evenodd"/>
   </g>
   <g fill="none" stroke-linejoin="bevel" stroke-width="7" font-weight="400" font-style="normal" stroke-opacity="1" transform="matrix(1,0,0,1,1485,1050)" stroke-linecap="round" font-size="29.1042" stroke="#000000" font-family="MS Shell Dlg 2">
    <path vector-effect="none" d="M-79,332.5 C-79,335.261 -81.2386,337.5 -84,337.5 C-86.7614,337.5 -89,335.261 -89,332.5 C-89,329.739 -86.7614,327.5 -84,327.5 C-81.2386,327.5 -79,329.739 -79,332.5 " fill-rule="evenodd"/>
   </g>
  </g>
 </g>
</svg>
