%TF.GenerationSoftware,KiCad,Pcbnew,9.0.7*%
%TF.CreationDate,2026-01-28T16:33:08-08:00*%
%TF.ProjectId,speed-sensor-PCB,73706565-642d-4736-956e-736f722d5043,rev?*%
%TF.SameCoordinates,Original*%
%TF.FileFunction,Legend,Top*%
%TF.FilePolarity,Positive*%
%FSLAX46Y46*%
G04 Gerber Fmt 4.6, Leading zero omitted, Abs format (unit mm)*
G04 Created by KiCad (PCBNEW 9.0.7) date 2026-01-28 16:33:08*
%MOMM*%
%LPD*%
G01*
G04 APERTURE LIST*
%ADD10C,0.100000*%
%ADD11C,0.150000*%
%ADD12C,0.120000*%
%ADD13C,0.152400*%
G04 APERTURE END LIST*
D10*
X94906265Y-96206704D02*
X95382455Y-96206704D01*
X94811027Y-96492419D02*
X95144360Y-95492419D01*
X95144360Y-95492419D02*
X95477693Y-96492419D01*
X95763408Y-96444800D02*
X95906265Y-96492419D01*
X95906265Y-96492419D02*
X96144360Y-96492419D01*
X96144360Y-96492419D02*
X96239598Y-96444800D01*
X96239598Y-96444800D02*
X96287217Y-96397180D01*
X96287217Y-96397180D02*
X96334836Y-96301942D01*
X96334836Y-96301942D02*
X96334836Y-96206704D01*
X96334836Y-96206704D02*
X96287217Y-96111466D01*
X96287217Y-96111466D02*
X96239598Y-96063847D01*
X96239598Y-96063847D02*
X96144360Y-96016228D01*
X96144360Y-96016228D02*
X95953884Y-95968609D01*
X95953884Y-95968609D02*
X95858646Y-95920990D01*
X95858646Y-95920990D02*
X95811027Y-95873371D01*
X95811027Y-95873371D02*
X95763408Y-95778133D01*
X95763408Y-95778133D02*
X95763408Y-95682895D01*
X95763408Y-95682895D02*
X95811027Y-95587657D01*
X95811027Y-95587657D02*
X95858646Y-95540038D01*
X95858646Y-95540038D02*
X95953884Y-95492419D01*
X95953884Y-95492419D02*
X96191979Y-95492419D01*
X96191979Y-95492419D02*
X96334836Y-95540038D01*
X97239598Y-95492419D02*
X96763408Y-95492419D01*
X96763408Y-95492419D02*
X96715789Y-95968609D01*
X96715789Y-95968609D02*
X96763408Y-95920990D01*
X96763408Y-95920990D02*
X96858646Y-95873371D01*
X96858646Y-95873371D02*
X97096741Y-95873371D01*
X97096741Y-95873371D02*
X97191979Y-95920990D01*
X97191979Y-95920990D02*
X97239598Y-95968609D01*
X97239598Y-95968609D02*
X97287217Y-96063847D01*
X97287217Y-96063847D02*
X97287217Y-96301942D01*
X97287217Y-96301942D02*
X97239598Y-96397180D01*
X97239598Y-96397180D02*
X97191979Y-96444800D01*
X97191979Y-96444800D02*
X97096741Y-96492419D01*
X97096741Y-96492419D02*
X96858646Y-96492419D01*
X96858646Y-96492419D02*
X96763408Y-96444800D01*
X96763408Y-96444800D02*
X96715789Y-96397180D01*
X98144360Y-95492419D02*
X97953884Y-95492419D01*
X97953884Y-95492419D02*
X97858646Y-95540038D01*
X97858646Y-95540038D02*
X97811027Y-95587657D01*
X97811027Y-95587657D02*
X97715789Y-95730514D01*
X97715789Y-95730514D02*
X97668170Y-95920990D01*
X97668170Y-95920990D02*
X97668170Y-96301942D01*
X97668170Y-96301942D02*
X97715789Y-96397180D01*
X97715789Y-96397180D02*
X97763408Y-96444800D01*
X97763408Y-96444800D02*
X97858646Y-96492419D01*
X97858646Y-96492419D02*
X98049122Y-96492419D01*
X98049122Y-96492419D02*
X98144360Y-96444800D01*
X98144360Y-96444800D02*
X98191979Y-96397180D01*
X98191979Y-96397180D02*
X98239598Y-96301942D01*
X98239598Y-96301942D02*
X98239598Y-96063847D01*
X98239598Y-96063847D02*
X98191979Y-95968609D01*
X98191979Y-95968609D02*
X98144360Y-95920990D01*
X98144360Y-95920990D02*
X98049122Y-95873371D01*
X98049122Y-95873371D02*
X97858646Y-95873371D01*
X97858646Y-95873371D02*
X97763408Y-95920990D01*
X97763408Y-95920990D02*
X97715789Y-95968609D01*
X97715789Y-95968609D02*
X97668170Y-96063847D01*
X98858646Y-95492419D02*
X98953884Y-95492419D01*
X98953884Y-95492419D02*
X99049122Y-95540038D01*
X99049122Y-95540038D02*
X99096741Y-95587657D01*
X99096741Y-95587657D02*
X99144360Y-95682895D01*
X99144360Y-95682895D02*
X99191979Y-95873371D01*
X99191979Y-95873371D02*
X99191979Y-96111466D01*
X99191979Y-96111466D02*
X99144360Y-96301942D01*
X99144360Y-96301942D02*
X99096741Y-96397180D01*
X99096741Y-96397180D02*
X99049122Y-96444800D01*
X99049122Y-96444800D02*
X98953884Y-96492419D01*
X98953884Y-96492419D02*
X98858646Y-96492419D01*
X98858646Y-96492419D02*
X98763408Y-96444800D01*
X98763408Y-96444800D02*
X98715789Y-96397180D01*
X98715789Y-96397180D02*
X98668170Y-96301942D01*
X98668170Y-96301942D02*
X98620551Y-96111466D01*
X98620551Y-96111466D02*
X98620551Y-95873371D01*
X98620551Y-95873371D02*
X98668170Y-95682895D01*
X98668170Y-95682895D02*
X98715789Y-95587657D01*
X98715789Y-95587657D02*
X98763408Y-95540038D01*
X98763408Y-95540038D02*
X98858646Y-95492419D01*
X99811027Y-95492419D02*
X99906265Y-95492419D01*
X99906265Y-95492419D02*
X100001503Y-95540038D01*
X100001503Y-95540038D02*
X100049122Y-95587657D01*
X100049122Y-95587657D02*
X100096741Y-95682895D01*
X100096741Y-95682895D02*
X100144360Y-95873371D01*
X100144360Y-95873371D02*
X100144360Y-96111466D01*
X100144360Y-96111466D02*
X100096741Y-96301942D01*
X100096741Y-96301942D02*
X100049122Y-96397180D01*
X100049122Y-96397180D02*
X100001503Y-96444800D01*
X100001503Y-96444800D02*
X99906265Y-96492419D01*
X99906265Y-96492419D02*
X99811027Y-96492419D01*
X99811027Y-96492419D02*
X99715789Y-96444800D01*
X99715789Y-96444800D02*
X99668170Y-96397180D01*
X99668170Y-96397180D02*
X99620551Y-96301942D01*
X99620551Y-96301942D02*
X99572932Y-96111466D01*
X99572932Y-96111466D02*
X99572932Y-95873371D01*
X99572932Y-95873371D02*
X99620551Y-95682895D01*
X99620551Y-95682895D02*
X99668170Y-95587657D01*
X99668170Y-95587657D02*
X99715789Y-95540038D01*
X99715789Y-95540038D02*
X99811027Y-95492419D01*
X100572932Y-96111466D02*
X101334837Y-96111466D01*
X101763408Y-96206704D02*
X102239598Y-96206704D01*
X101668170Y-96492419D02*
X102001503Y-95492419D01*
X102001503Y-95492419D02*
X102334836Y-96492419D01*
X102620551Y-96444800D02*
X102763408Y-96492419D01*
X102763408Y-96492419D02*
X103001503Y-96492419D01*
X103001503Y-96492419D02*
X103096741Y-96444800D01*
X103096741Y-96444800D02*
X103144360Y-96397180D01*
X103144360Y-96397180D02*
X103191979Y-96301942D01*
X103191979Y-96301942D02*
X103191979Y-96206704D01*
X103191979Y-96206704D02*
X103144360Y-96111466D01*
X103144360Y-96111466D02*
X103096741Y-96063847D01*
X103096741Y-96063847D02*
X103001503Y-96016228D01*
X103001503Y-96016228D02*
X102811027Y-95968609D01*
X102811027Y-95968609D02*
X102715789Y-95920990D01*
X102715789Y-95920990D02*
X102668170Y-95873371D01*
X102668170Y-95873371D02*
X102620551Y-95778133D01*
X102620551Y-95778133D02*
X102620551Y-95682895D01*
X102620551Y-95682895D02*
X102668170Y-95587657D01*
X102668170Y-95587657D02*
X102715789Y-95540038D01*
X102715789Y-95540038D02*
X102811027Y-95492419D01*
X102811027Y-95492419D02*
X103049122Y-95492419D01*
X103049122Y-95492419D02*
X103191979Y-95540038D01*
X103811027Y-95492419D02*
X104001503Y-95492419D01*
X104001503Y-95492419D02*
X104096741Y-95540038D01*
X104096741Y-95540038D02*
X104191979Y-95635276D01*
X104191979Y-95635276D02*
X104239598Y-95825752D01*
X104239598Y-95825752D02*
X104239598Y-96159085D01*
X104239598Y-96159085D02*
X104191979Y-96349561D01*
X104191979Y-96349561D02*
X104096741Y-96444800D01*
X104096741Y-96444800D02*
X104001503Y-96492419D01*
X104001503Y-96492419D02*
X103811027Y-96492419D01*
X103811027Y-96492419D02*
X103715789Y-96444800D01*
X103715789Y-96444800D02*
X103620551Y-96349561D01*
X103620551Y-96349561D02*
X103572932Y-96159085D01*
X103572932Y-96159085D02*
X103572932Y-95825752D01*
X103572932Y-95825752D02*
X103620551Y-95635276D01*
X103620551Y-95635276D02*
X103715789Y-95540038D01*
X103715789Y-95540038D02*
X103811027Y-95492419D01*
X104525313Y-95492419D02*
X105096741Y-95492419D01*
X104811027Y-96492419D02*
X104811027Y-95492419D01*
X116633884Y-85642419D02*
X116633884Y-84642419D01*
X116633884Y-84642419D02*
X116967217Y-85356704D01*
X116967217Y-85356704D02*
X117300550Y-84642419D01*
X117300550Y-84642419D02*
X117300550Y-85642419D01*
X117681503Y-84642419D02*
X118300550Y-84642419D01*
X118300550Y-84642419D02*
X117967217Y-85023371D01*
X117967217Y-85023371D02*
X118110074Y-85023371D01*
X118110074Y-85023371D02*
X118205312Y-85070990D01*
X118205312Y-85070990D02*
X118252931Y-85118609D01*
X118252931Y-85118609D02*
X118300550Y-85213847D01*
X118300550Y-85213847D02*
X118300550Y-85451942D01*
X118300550Y-85451942D02*
X118252931Y-85547180D01*
X118252931Y-85547180D02*
X118205312Y-85594800D01*
X118205312Y-85594800D02*
X118110074Y-85642419D01*
X118110074Y-85642419D02*
X117824360Y-85642419D01*
X117824360Y-85642419D02*
X117729122Y-85594800D01*
X117729122Y-85594800D02*
X117681503Y-85547180D01*
X119491027Y-85642419D02*
X119491027Y-84642419D01*
X119491027Y-84642419D02*
X120062455Y-85642419D01*
X120062455Y-85642419D02*
X120062455Y-84642419D01*
X120538646Y-85642419D02*
X120538646Y-84642419D01*
X120538646Y-84642419D02*
X120919598Y-84642419D01*
X120919598Y-84642419D02*
X121014836Y-84690038D01*
X121014836Y-84690038D02*
X121062455Y-84737657D01*
X121062455Y-84737657D02*
X121110074Y-84832895D01*
X121110074Y-84832895D02*
X121110074Y-84975752D01*
X121110074Y-84975752D02*
X121062455Y-85070990D01*
X121062455Y-85070990D02*
X121014836Y-85118609D01*
X121014836Y-85118609D02*
X120919598Y-85166228D01*
X120919598Y-85166228D02*
X120538646Y-85166228D01*
X121395789Y-84642419D02*
X121967217Y-84642419D01*
X121681503Y-85642419D02*
X121681503Y-84642419D01*
X122300551Y-85642419D02*
X122300551Y-84642419D01*
X122300551Y-85118609D02*
X122871979Y-85118609D01*
X122871979Y-85642419D02*
X122871979Y-84642419D01*
X77843884Y-115532419D02*
X77843884Y-114532419D01*
X77843884Y-114532419D02*
X78177217Y-115246704D01*
X78177217Y-115246704D02*
X78510550Y-114532419D01*
X78510550Y-114532419D02*
X78510550Y-115532419D01*
X78891503Y-114532419D02*
X79510550Y-114532419D01*
X79510550Y-114532419D02*
X79177217Y-114913371D01*
X79177217Y-114913371D02*
X79320074Y-114913371D01*
X79320074Y-114913371D02*
X79415312Y-114960990D01*
X79415312Y-114960990D02*
X79462931Y-115008609D01*
X79462931Y-115008609D02*
X79510550Y-115103847D01*
X79510550Y-115103847D02*
X79510550Y-115341942D01*
X79510550Y-115341942D02*
X79462931Y-115437180D01*
X79462931Y-115437180D02*
X79415312Y-115484800D01*
X79415312Y-115484800D02*
X79320074Y-115532419D01*
X79320074Y-115532419D02*
X79034360Y-115532419D01*
X79034360Y-115532419D02*
X78939122Y-115484800D01*
X78939122Y-115484800D02*
X78891503Y-115437180D01*
X80701027Y-115532419D02*
X80701027Y-114532419D01*
X80701027Y-114532419D02*
X81272455Y-115532419D01*
X81272455Y-115532419D02*
X81272455Y-114532419D01*
X81748646Y-115532419D02*
X81748646Y-114532419D01*
X81748646Y-114532419D02*
X82129598Y-114532419D01*
X82129598Y-114532419D02*
X82224836Y-114580038D01*
X82224836Y-114580038D02*
X82272455Y-114627657D01*
X82272455Y-114627657D02*
X82320074Y-114722895D01*
X82320074Y-114722895D02*
X82320074Y-114865752D01*
X82320074Y-114865752D02*
X82272455Y-114960990D01*
X82272455Y-114960990D02*
X82224836Y-115008609D01*
X82224836Y-115008609D02*
X82129598Y-115056228D01*
X82129598Y-115056228D02*
X81748646Y-115056228D01*
X82605789Y-114532419D02*
X83177217Y-114532419D01*
X82891503Y-115532419D02*
X82891503Y-114532419D01*
X83510551Y-115532419D02*
X83510551Y-114532419D01*
X83510551Y-115008609D02*
X84081979Y-115008609D01*
X84081979Y-115532419D02*
X84081979Y-114532419D01*
X115723884Y-115222419D02*
X115723884Y-114222419D01*
X115723884Y-114222419D02*
X116057217Y-114936704D01*
X116057217Y-114936704D02*
X116390550Y-114222419D01*
X116390550Y-114222419D02*
X116390550Y-115222419D01*
X116771503Y-114222419D02*
X117390550Y-114222419D01*
X117390550Y-114222419D02*
X117057217Y-114603371D01*
X117057217Y-114603371D02*
X117200074Y-114603371D01*
X117200074Y-114603371D02*
X117295312Y-114650990D01*
X117295312Y-114650990D02*
X117342931Y-114698609D01*
X117342931Y-114698609D02*
X117390550Y-114793847D01*
X117390550Y-114793847D02*
X117390550Y-115031942D01*
X117390550Y-115031942D02*
X117342931Y-115127180D01*
X117342931Y-115127180D02*
X117295312Y-115174800D01*
X117295312Y-115174800D02*
X117200074Y-115222419D01*
X117200074Y-115222419D02*
X116914360Y-115222419D01*
X116914360Y-115222419D02*
X116819122Y-115174800D01*
X116819122Y-115174800D02*
X116771503Y-115127180D01*
X118581027Y-115222419D02*
X118581027Y-114222419D01*
X118581027Y-114222419D02*
X119152455Y-115222419D01*
X119152455Y-115222419D02*
X119152455Y-114222419D01*
X119628646Y-115222419D02*
X119628646Y-114222419D01*
X119628646Y-114222419D02*
X120009598Y-114222419D01*
X120009598Y-114222419D02*
X120104836Y-114270038D01*
X120104836Y-114270038D02*
X120152455Y-114317657D01*
X120152455Y-114317657D02*
X120200074Y-114412895D01*
X120200074Y-114412895D02*
X120200074Y-114555752D01*
X120200074Y-114555752D02*
X120152455Y-114650990D01*
X120152455Y-114650990D02*
X120104836Y-114698609D01*
X120104836Y-114698609D02*
X120009598Y-114746228D01*
X120009598Y-114746228D02*
X119628646Y-114746228D01*
X120485789Y-114222419D02*
X121057217Y-114222419D01*
X120771503Y-115222419D02*
X120771503Y-114222419D01*
X121390551Y-115222419D02*
X121390551Y-114222419D01*
X121390551Y-114698609D02*
X121961979Y-114698609D01*
X121961979Y-115222419D02*
X121961979Y-114222419D01*
X81777693Y-100562419D02*
X81206265Y-100562419D01*
X81491979Y-100562419D02*
X81491979Y-99562419D01*
X81491979Y-99562419D02*
X81396741Y-99705276D01*
X81396741Y-99705276D02*
X81301503Y-99800514D01*
X81301503Y-99800514D02*
X81206265Y-99848133D01*
X82396741Y-99562419D02*
X82491979Y-99562419D01*
X82491979Y-99562419D02*
X82587217Y-99610038D01*
X82587217Y-99610038D02*
X82634836Y-99657657D01*
X82634836Y-99657657D02*
X82682455Y-99752895D01*
X82682455Y-99752895D02*
X82730074Y-99943371D01*
X82730074Y-99943371D02*
X82730074Y-100181466D01*
X82730074Y-100181466D02*
X82682455Y-100371942D01*
X82682455Y-100371942D02*
X82634836Y-100467180D01*
X82634836Y-100467180D02*
X82587217Y-100514800D01*
X82587217Y-100514800D02*
X82491979Y-100562419D01*
X82491979Y-100562419D02*
X82396741Y-100562419D01*
X82396741Y-100562419D02*
X82301503Y-100514800D01*
X82301503Y-100514800D02*
X82253884Y-100467180D01*
X82253884Y-100467180D02*
X82206265Y-100371942D01*
X82206265Y-100371942D02*
X82158646Y-100181466D01*
X82158646Y-100181466D02*
X82158646Y-99943371D01*
X82158646Y-99943371D02*
X82206265Y-99752895D01*
X82206265Y-99752895D02*
X82253884Y-99657657D01*
X82253884Y-99657657D02*
X82301503Y-99610038D01*
X82301503Y-99610038D02*
X82396741Y-99562419D01*
X83587217Y-99895752D02*
X83587217Y-100562419D01*
X83158646Y-99895752D02*
X83158646Y-100419561D01*
X83158646Y-100419561D02*
X83206265Y-100514800D01*
X83206265Y-100514800D02*
X83301503Y-100562419D01*
X83301503Y-100562419D02*
X83444360Y-100562419D01*
X83444360Y-100562419D02*
X83539598Y-100514800D01*
X83539598Y-100514800D02*
X83587217Y-100467180D01*
X84396741Y-100038609D02*
X84063408Y-100038609D01*
X84063408Y-100562419D02*
X84063408Y-99562419D01*
X84063408Y-99562419D02*
X84539598Y-99562419D01*
X96859360Y-85382419D02*
X96954598Y-85382419D01*
X96954598Y-85382419D02*
X97049836Y-85430038D01*
X97049836Y-85430038D02*
X97097455Y-85477657D01*
X97097455Y-85477657D02*
X97145074Y-85572895D01*
X97145074Y-85572895D02*
X97192693Y-85763371D01*
X97192693Y-85763371D02*
X97192693Y-86001466D01*
X97192693Y-86001466D02*
X97145074Y-86191942D01*
X97145074Y-86191942D02*
X97097455Y-86287180D01*
X97097455Y-86287180D02*
X97049836Y-86334800D01*
X97049836Y-86334800D02*
X96954598Y-86382419D01*
X96954598Y-86382419D02*
X96859360Y-86382419D01*
X96859360Y-86382419D02*
X96764122Y-86334800D01*
X96764122Y-86334800D02*
X96716503Y-86287180D01*
X96716503Y-86287180D02*
X96668884Y-86191942D01*
X96668884Y-86191942D02*
X96621265Y-86001466D01*
X96621265Y-86001466D02*
X96621265Y-85763371D01*
X96621265Y-85763371D02*
X96668884Y-85572895D01*
X96668884Y-85572895D02*
X96716503Y-85477657D01*
X96716503Y-85477657D02*
X96764122Y-85430038D01*
X96764122Y-85430038D02*
X96859360Y-85382419D01*
X97621265Y-86287180D02*
X97668884Y-86334800D01*
X97668884Y-86334800D02*
X97621265Y-86382419D01*
X97621265Y-86382419D02*
X97573646Y-86334800D01*
X97573646Y-86334800D02*
X97621265Y-86287180D01*
X97621265Y-86287180D02*
X97621265Y-86382419D01*
X98621264Y-86382419D02*
X98049836Y-86382419D01*
X98335550Y-86382419D02*
X98335550Y-85382419D01*
X98335550Y-85382419D02*
X98240312Y-85525276D01*
X98240312Y-85525276D02*
X98145074Y-85620514D01*
X98145074Y-85620514D02*
X98049836Y-85668133D01*
X99478407Y-85715752D02*
X99478407Y-86382419D01*
X99049836Y-85715752D02*
X99049836Y-86239561D01*
X99049836Y-86239561D02*
X99097455Y-86334800D01*
X99097455Y-86334800D02*
X99192693Y-86382419D01*
X99192693Y-86382419D02*
X99335550Y-86382419D01*
X99335550Y-86382419D02*
X99430788Y-86334800D01*
X99430788Y-86334800D02*
X99478407Y-86287180D01*
X100287931Y-85858609D02*
X99954598Y-85858609D01*
X99954598Y-86382419D02*
X99954598Y-85382419D01*
X99954598Y-85382419D02*
X100430788Y-85382419D01*
X99762419Y-130175639D02*
X99762419Y-129985163D01*
X99762419Y-129985163D02*
X99810038Y-129889925D01*
X99810038Y-129889925D02*
X99905276Y-129794687D01*
X99905276Y-129794687D02*
X100095752Y-129747068D01*
X100095752Y-129747068D02*
X100429085Y-129747068D01*
X100429085Y-129747068D02*
X100619561Y-129794687D01*
X100619561Y-129794687D02*
X100714800Y-129889925D01*
X100714800Y-129889925D02*
X100762419Y-129985163D01*
X100762419Y-129985163D02*
X100762419Y-130175639D01*
X100762419Y-130175639D02*
X100714800Y-130270877D01*
X100714800Y-130270877D02*
X100619561Y-130366115D01*
X100619561Y-130366115D02*
X100429085Y-130413734D01*
X100429085Y-130413734D02*
X100095752Y-130413734D01*
X100095752Y-130413734D02*
X99905276Y-130366115D01*
X99905276Y-130366115D02*
X99810038Y-130270877D01*
X99810038Y-130270877D02*
X99762419Y-130175639D01*
X100095752Y-128889925D02*
X100762419Y-128889925D01*
X100095752Y-129318496D02*
X100619561Y-129318496D01*
X100619561Y-129318496D02*
X100714800Y-129270877D01*
X100714800Y-129270877D02*
X100762419Y-129175639D01*
X100762419Y-129175639D02*
X100762419Y-129032782D01*
X100762419Y-129032782D02*
X100714800Y-128937544D01*
X100714800Y-128937544D02*
X100667180Y-128889925D01*
X100095752Y-128556591D02*
X100095752Y-128175639D01*
X99762419Y-128413734D02*
X100619561Y-128413734D01*
X100619561Y-128413734D02*
X100714800Y-128366115D01*
X100714800Y-128366115D02*
X100762419Y-128270877D01*
X100762419Y-128270877D02*
X100762419Y-128175639D01*
X100095752Y-127842305D02*
X101095752Y-127842305D01*
X100143371Y-127842305D02*
X100095752Y-127747067D01*
X100095752Y-127747067D02*
X100095752Y-127556591D01*
X100095752Y-127556591D02*
X100143371Y-127461353D01*
X100143371Y-127461353D02*
X100190990Y-127413734D01*
X100190990Y-127413734D02*
X100286228Y-127366115D01*
X100286228Y-127366115D02*
X100571942Y-127366115D01*
X100571942Y-127366115D02*
X100667180Y-127413734D01*
X100667180Y-127413734D02*
X100714800Y-127461353D01*
X100714800Y-127461353D02*
X100762419Y-127556591D01*
X100762419Y-127556591D02*
X100762419Y-127747067D01*
X100762419Y-127747067D02*
X100714800Y-127842305D01*
X100095752Y-126508972D02*
X100762419Y-126508972D01*
X100095752Y-126937543D02*
X100619561Y-126937543D01*
X100619561Y-126937543D02*
X100714800Y-126889924D01*
X100714800Y-126889924D02*
X100762419Y-126794686D01*
X100762419Y-126794686D02*
X100762419Y-126651829D01*
X100762419Y-126651829D02*
X100714800Y-126556591D01*
X100714800Y-126556591D02*
X100667180Y-126508972D01*
X100095752Y-126175638D02*
X100095752Y-125794686D01*
X99762419Y-126032781D02*
X100619561Y-126032781D01*
X100619561Y-126032781D02*
X100714800Y-125985162D01*
X100714800Y-125985162D02*
X100762419Y-125889924D01*
X100762419Y-125889924D02*
X100762419Y-125794686D01*
X78273884Y-86052419D02*
X78273884Y-85052419D01*
X78273884Y-85052419D02*
X78607217Y-85766704D01*
X78607217Y-85766704D02*
X78940550Y-85052419D01*
X78940550Y-85052419D02*
X78940550Y-86052419D01*
X79321503Y-85052419D02*
X79940550Y-85052419D01*
X79940550Y-85052419D02*
X79607217Y-85433371D01*
X79607217Y-85433371D02*
X79750074Y-85433371D01*
X79750074Y-85433371D02*
X79845312Y-85480990D01*
X79845312Y-85480990D02*
X79892931Y-85528609D01*
X79892931Y-85528609D02*
X79940550Y-85623847D01*
X79940550Y-85623847D02*
X79940550Y-85861942D01*
X79940550Y-85861942D02*
X79892931Y-85957180D01*
X79892931Y-85957180D02*
X79845312Y-86004800D01*
X79845312Y-86004800D02*
X79750074Y-86052419D01*
X79750074Y-86052419D02*
X79464360Y-86052419D01*
X79464360Y-86052419D02*
X79369122Y-86004800D01*
X79369122Y-86004800D02*
X79321503Y-85957180D01*
X81131027Y-86052419D02*
X81131027Y-85052419D01*
X81131027Y-85052419D02*
X81702455Y-86052419D01*
X81702455Y-86052419D02*
X81702455Y-85052419D01*
X82178646Y-86052419D02*
X82178646Y-85052419D01*
X82178646Y-85052419D02*
X82559598Y-85052419D01*
X82559598Y-85052419D02*
X82654836Y-85100038D01*
X82654836Y-85100038D02*
X82702455Y-85147657D01*
X82702455Y-85147657D02*
X82750074Y-85242895D01*
X82750074Y-85242895D02*
X82750074Y-85385752D01*
X82750074Y-85385752D02*
X82702455Y-85480990D01*
X82702455Y-85480990D02*
X82654836Y-85528609D01*
X82654836Y-85528609D02*
X82559598Y-85576228D01*
X82559598Y-85576228D02*
X82178646Y-85576228D01*
X83035789Y-85052419D02*
X83607217Y-85052419D01*
X83321503Y-86052419D02*
X83321503Y-85052419D01*
X83940551Y-86052419D02*
X83940551Y-85052419D01*
X83940551Y-85528609D02*
X84511979Y-85528609D01*
X84511979Y-86052419D02*
X84511979Y-85052419D01*
X104312419Y-129011353D02*
X104312419Y-128392306D01*
X104312419Y-128392306D02*
X104693371Y-128725639D01*
X104693371Y-128725639D02*
X104693371Y-128582782D01*
X104693371Y-128582782D02*
X104740990Y-128487544D01*
X104740990Y-128487544D02*
X104788609Y-128439925D01*
X104788609Y-128439925D02*
X104883847Y-128392306D01*
X104883847Y-128392306D02*
X105121942Y-128392306D01*
X105121942Y-128392306D02*
X105217180Y-128439925D01*
X105217180Y-128439925D02*
X105264800Y-128487544D01*
X105264800Y-128487544D02*
X105312419Y-128582782D01*
X105312419Y-128582782D02*
X105312419Y-128868496D01*
X105312419Y-128868496D02*
X105264800Y-128963734D01*
X105264800Y-128963734D02*
X105217180Y-129011353D01*
X105217180Y-127963734D02*
X105264800Y-127916115D01*
X105264800Y-127916115D02*
X105312419Y-127963734D01*
X105312419Y-127963734D02*
X105264800Y-128011353D01*
X105264800Y-128011353D02*
X105217180Y-127963734D01*
X105217180Y-127963734D02*
X105312419Y-127963734D01*
X104312419Y-127582782D02*
X104312419Y-126963735D01*
X104312419Y-126963735D02*
X104693371Y-127297068D01*
X104693371Y-127297068D02*
X104693371Y-127154211D01*
X104693371Y-127154211D02*
X104740990Y-127058973D01*
X104740990Y-127058973D02*
X104788609Y-127011354D01*
X104788609Y-127011354D02*
X104883847Y-126963735D01*
X104883847Y-126963735D02*
X105121942Y-126963735D01*
X105121942Y-126963735D02*
X105217180Y-127011354D01*
X105217180Y-127011354D02*
X105264800Y-127058973D01*
X105264800Y-127058973D02*
X105312419Y-127154211D01*
X105312419Y-127154211D02*
X105312419Y-127439925D01*
X105312419Y-127439925D02*
X105264800Y-127535163D01*
X105264800Y-127535163D02*
X105217180Y-127582782D01*
X104312419Y-126678020D02*
X105312419Y-126344687D01*
X105312419Y-126344687D02*
X104312419Y-126011354D01*
X95430038Y-128052306D02*
X95382419Y-128147544D01*
X95382419Y-128147544D02*
X95382419Y-128290401D01*
X95382419Y-128290401D02*
X95430038Y-128433258D01*
X95430038Y-128433258D02*
X95525276Y-128528496D01*
X95525276Y-128528496D02*
X95620514Y-128576115D01*
X95620514Y-128576115D02*
X95810990Y-128623734D01*
X95810990Y-128623734D02*
X95953847Y-128623734D01*
X95953847Y-128623734D02*
X96144323Y-128576115D01*
X96144323Y-128576115D02*
X96239561Y-128528496D01*
X96239561Y-128528496D02*
X96334800Y-128433258D01*
X96334800Y-128433258D02*
X96382419Y-128290401D01*
X96382419Y-128290401D02*
X96382419Y-128195163D01*
X96382419Y-128195163D02*
X96334800Y-128052306D01*
X96334800Y-128052306D02*
X96287180Y-128004687D01*
X96287180Y-128004687D02*
X95953847Y-128004687D01*
X95953847Y-128004687D02*
X95953847Y-128195163D01*
X96382419Y-127576115D02*
X95382419Y-127576115D01*
X95382419Y-127576115D02*
X96382419Y-127004687D01*
X96382419Y-127004687D02*
X95382419Y-127004687D01*
X96382419Y-126528496D02*
X95382419Y-126528496D01*
X95382419Y-126528496D02*
X95382419Y-126290401D01*
X95382419Y-126290401D02*
X95430038Y-126147544D01*
X95430038Y-126147544D02*
X95525276Y-126052306D01*
X95525276Y-126052306D02*
X95620514Y-126004687D01*
X95620514Y-126004687D02*
X95810990Y-125957068D01*
X95810990Y-125957068D02*
X95953847Y-125957068D01*
X95953847Y-125957068D02*
X96144323Y-126004687D01*
X96144323Y-126004687D02*
X96239561Y-126052306D01*
X96239561Y-126052306D02*
X96334800Y-126147544D01*
X96334800Y-126147544D02*
X96382419Y-126290401D01*
X96382419Y-126290401D02*
X96382419Y-126528496D01*
D11*
X92613333Y-103389580D02*
X92565714Y-103437200D01*
X92565714Y-103437200D02*
X92422857Y-103484819D01*
X92422857Y-103484819D02*
X92327619Y-103484819D01*
X92327619Y-103484819D02*
X92184762Y-103437200D01*
X92184762Y-103437200D02*
X92089524Y-103341961D01*
X92089524Y-103341961D02*
X92041905Y-103246723D01*
X92041905Y-103246723D02*
X91994286Y-103056247D01*
X91994286Y-103056247D02*
X91994286Y-102913390D01*
X91994286Y-102913390D02*
X92041905Y-102722914D01*
X92041905Y-102722914D02*
X92089524Y-102627676D01*
X92089524Y-102627676D02*
X92184762Y-102532438D01*
X92184762Y-102532438D02*
X92327619Y-102484819D01*
X92327619Y-102484819D02*
X92422857Y-102484819D01*
X92422857Y-102484819D02*
X92565714Y-102532438D01*
X92565714Y-102532438D02*
X92613333Y-102580057D01*
X92994286Y-102580057D02*
X93041905Y-102532438D01*
X93041905Y-102532438D02*
X93137143Y-102484819D01*
X93137143Y-102484819D02*
X93375238Y-102484819D01*
X93375238Y-102484819D02*
X93470476Y-102532438D01*
X93470476Y-102532438D02*
X93518095Y-102580057D01*
X93518095Y-102580057D02*
X93565714Y-102675295D01*
X93565714Y-102675295D02*
X93565714Y-102770533D01*
X93565714Y-102770533D02*
X93518095Y-102913390D01*
X93518095Y-102913390D02*
X92946667Y-103484819D01*
X92946667Y-103484819D02*
X93565714Y-103484819D01*
X99816666Y-113334819D02*
X99816666Y-114049104D01*
X99816666Y-114049104D02*
X99769047Y-114191961D01*
X99769047Y-114191961D02*
X99673809Y-114287200D01*
X99673809Y-114287200D02*
X99530952Y-114334819D01*
X99530952Y-114334819D02*
X99435714Y-114334819D01*
X100816666Y-114334819D02*
X100245238Y-114334819D01*
X100530952Y-114334819D02*
X100530952Y-113334819D01*
X100530952Y-113334819D02*
X100435714Y-113477676D01*
X100435714Y-113477676D02*
X100340476Y-113572914D01*
X100340476Y-113572914D02*
X100245238Y-113620533D01*
X99525833Y-89669580D02*
X99478214Y-89717200D01*
X99478214Y-89717200D02*
X99335357Y-89764819D01*
X99335357Y-89764819D02*
X99240119Y-89764819D01*
X99240119Y-89764819D02*
X99097262Y-89717200D01*
X99097262Y-89717200D02*
X99002024Y-89621961D01*
X99002024Y-89621961D02*
X98954405Y-89526723D01*
X98954405Y-89526723D02*
X98906786Y-89336247D01*
X98906786Y-89336247D02*
X98906786Y-89193390D01*
X98906786Y-89193390D02*
X98954405Y-89002914D01*
X98954405Y-89002914D02*
X99002024Y-88907676D01*
X99002024Y-88907676D02*
X99097262Y-88812438D01*
X99097262Y-88812438D02*
X99240119Y-88764819D01*
X99240119Y-88764819D02*
X99335357Y-88764819D01*
X99335357Y-88764819D02*
X99478214Y-88812438D01*
X99478214Y-88812438D02*
X99525833Y-88860057D01*
X100478214Y-89764819D02*
X99906786Y-89764819D01*
X100192500Y-89764819D02*
X100192500Y-88764819D01*
X100192500Y-88764819D02*
X100097262Y-88907676D01*
X100097262Y-88907676D02*
X100002024Y-89002914D01*
X100002024Y-89002914D02*
X99906786Y-89050533D01*
D12*
%TO.C,C2*%
X90100000Y-97182923D02*
G75*
G02*
X90100000Y-102517077I-1060000J-2667077D01*
G01*
X87980000Y-102517077D02*
G75*
G02*
X87980000Y-97182923I1060000J2667077D01*
G01*
X90930000Y-97052738D02*
X90380000Y-97052738D01*
X90655000Y-96777738D02*
X90655000Y-97327738D01*
%TO.C,J1*%
X92360000Y-119280000D02*
X92960000Y-119580000D01*
X92360000Y-119880000D02*
X92360000Y-119280000D01*
X92960000Y-119580000D02*
X92360000Y-119880000D01*
X93160000Y-114970000D02*
X96280000Y-114970000D01*
X93160000Y-124890000D02*
X93160000Y-114970000D01*
X96280000Y-114970000D02*
X96280000Y-116170000D01*
X96280000Y-116170000D02*
X104020000Y-116170000D01*
X104020000Y-114970000D02*
X107140000Y-114970000D01*
X104020000Y-116170000D02*
X104020000Y-114970000D01*
X107140000Y-114970000D02*
X107140000Y-124890000D01*
X107140000Y-124890000D02*
X93160000Y-124890000D01*
%TO.C,IC1*%
X97940000Y-97440000D02*
X102060000Y-97440000D01*
X97940000Y-97535000D02*
X97940000Y-97440000D01*
X97940000Y-102560000D02*
X97940000Y-102465000D01*
X102060000Y-97440000D02*
X102060000Y-97535000D01*
X102060000Y-102465000D02*
X102060000Y-102560000D01*
X102060000Y-102560000D02*
X97940000Y-102560000D01*
X97400000Y-97530000D02*
X97160000Y-97200000D01*
X97640000Y-97200000D01*
X97400000Y-97530000D01*
G36*
X97400000Y-97530000D02*
G01*
X97160000Y-97200000D01*
X97640000Y-97200000D01*
X97400000Y-97530000D01*
G37*
D13*
%TO.C,C1*%
X95886000Y-92780000D02*
X97156000Y-92780000D01*
X96521000Y-92145000D02*
X96521000Y-93415000D01*
X99188000Y-90748000D02*
X100712000Y-90748000D01*
X99188000Y-94812000D02*
X100712000Y-94812000D01*
X99315000Y-94812000D02*
G75*
G02*
X99315000Y-90748000I0J2032000D01*
G01*
X100585000Y-90748000D02*
G75*
G02*
X102617000Y-92780000I0J-2032000D01*
G01*
X102617000Y-92780000D02*
G75*
G02*
X100585000Y-94812000I-2032000J0D01*
G01*
%TD*%
M02*
