M48
; DRILL file {KiCad 9.0.7} date 2026-01-29T13:55:38-0800
; FORMAT={-:-/ absolute / inch / decimal}
; #@! TF.CreationDate,2026-01-29T13:55:38-08:00
; #@! TF.GenerationSoftware,Kicad,Pcbnew,9.0.7
; #@! TF.FileFunction,NonPlated,1,4,NPTH
FMAT,2
INCH
; #@! TA.AperFunction,NonPlated,NPTH,ComponentDrill
T1C0.0390
; #@! TA.AperFunction,NonPlated,NPTH,ComponentDrill
T2C0.0866
; #@! TA.AperFunction,NonPlated,NPTH,ComponentDrill
T3C0.0935
; #@! TA.AperFunction,NonPlated,NPTH,ComponentDrill
T4C0.1102
; #@! TA.AperFunction,NonPlated,NPTH,ComponentDrill
T5C0.1772
%
G90
G05
T1
X4.1689Y-2.8791
X4.2089Y-3.0791
X4.2489Y-2.8791
T2
X4.1507Y-5.1226
T3
X4.1089Y-2.9541
X4.1089Y-3.0791
X4.3089Y-2.9541
X4.3089Y-3.0791
T4
X3.8165Y-1.3343
X4.1157Y-1.3343
X4.2972Y-5.5157
X4.2972Y-5.7913
X4.2972Y-6.0669
X4.2972Y-6.3327
X4.2992Y-6.5886
X4.2992Y-6.8543
T5
X1.0512Y-0.9843
X1.0512Y-7.1575
X4.2244Y-7.1575
X4.2283Y-0.9882
M30
