M48
; DRILL file {KiCad 9.0.7} date 2026-01-29T13:55:38-0800
; FORMAT={-:-/ absolute / inch / decimal}
; #@! TF.CreationDate,2026-01-29T13:55:38-08:00
; #@! TF.GenerationSoftware,Kicad,Pcbnew,9.0.7
; #@! TF.FileFunction,Plated,1,4,PTH
FMAT,2
INCH
; #@! TA.AperFunction,Plated,PTH,ViaDrill
T1C0.0118
; #@! TA.AperFunction,Plated,PTH,ComponentDrill
T2C0.0295
; #@! TA.AperFunction,Plated,PTH,ComponentDrill
T3C0.0300
; #@! TA.AperFunction,Plated,PTH,ComponentDrill
T4C0.0315
; #@! TA.AperFunction,Plated,PTH,ComponentDrill
T5C0.0354
; #@! TA.AperFunction,Plated,PTH,ComponentDrill
T6C0.0394
; #@! TA.AperFunction,Plated,PTH,ComponentDrill
T7C0.0512
; #@! TA.AperFunction,Plated,PTH,ComponentDrill
T8C0.0630
%
G90
G05
T1
X3.1772Y-3.3071
X3.2441Y-4.6299
X3.2953Y-4.8346
X3.378Y-4.8937
X3.4409Y-4.8386
X3.4646Y-3.3717
X3.4685Y-5.5866
X3.4724Y-4.5512
X3.4882Y-4.622
X3.4961Y-4.5039
X3.4961Y-4.7165
X3.5236Y-3.4055
X3.5236Y-4.8504
X3.5236Y-5.2598
X3.5433Y-4.5551
X3.5453Y-5.372
X3.5591Y-4.6299
X3.5669Y-3.1575
X3.5669Y-4.9213
X3.5709Y-3.5551
X3.5787Y-4.5079
X3.5866Y-4.5551
X3.6142Y-4.6535
X3.689Y-4.0039
X3.7402Y-3.815
X3.748Y-2.815
X3.748Y-3.9606
X3.7593Y-3.1575
X3.7638Y-3.8661
X3.8819Y-2.8701
X3.9843Y-3.3717
X3.9921Y-3.4921
X4.0394Y-3.3386
X4.0709Y-3.2126
X4.2087Y-2.8189
X4.378Y-3.0236
T2
X2.2335Y-3.613
X2.2335Y-3.663
X2.2335Y-3.713
X2.2335Y-4.9555
X2.2335Y-5.0055
X2.2335Y-5.0555
X2.2335Y-5.3925
X2.2335Y-5.4425
X2.2335Y-5.4925
X2.2335Y-5.8189
X2.2335Y-5.8689
X2.2335Y-5.9189
X2.2335Y-6.7075
X2.2335Y-6.7575
X2.2335Y-6.8075
X2.2339Y-3.163
X2.2339Y-3.213
X2.2339Y-3.263
X2.2339Y-4.0654
X2.2339Y-4.1154
X2.2339Y-4.1654
X2.2346Y-6.2626
X2.2346Y-6.3126
X2.2346Y-6.3626
X2.2358Y-4.5067
X2.2358Y-4.5567
X2.2358Y-4.6067
X2.2374Y-2.2587
X2.2374Y-2.3087
X2.2374Y-2.3587
X2.2378Y-1.3925
X2.2378Y-1.4425
X2.2378Y-1.4925
X2.2378Y-1.8402
X2.2378Y-1.8902
X2.2378Y-1.9402
X2.2378Y-2.7102
X2.2378Y-2.7602
X2.2378Y-2.8102
X3.3161Y-1.915
X3.3661Y-1.915
X3.4161Y-1.915
X3.9213Y-2.6339
X3.9213Y-2.6839
X3.9213Y-2.7339
T3
X3.2711Y-3.6
X3.275Y-3.3756
X3.3711Y-3.6
X3.375Y-3.3756
T4
X1.0409Y-4.8913
X1.0413Y-3.5488
X1.0413Y-5.3283
X1.0413Y-5.7547
X1.0413Y-6.6433
X1.0417Y-4.0012
X1.0425Y-3.1
X1.0425Y-6.1984
X1.0437Y-2.6472
X1.0449Y-4.4425
X1.0453Y-2.1945
X1.0457Y-1.3283
X1.0457Y-1.7768
X1.4409Y-4.8913
X1.4413Y-3.5488
X1.4413Y-5.3283
X1.4413Y-5.7547
X1.4413Y-6.6433
X1.4417Y-4.0012
X1.4425Y-3.1
X1.4425Y-6.1984
X1.4437Y-2.6472
X1.4449Y-4.4425
X1.4453Y-2.1945
X1.4457Y-1.3283
X1.4457Y-1.7768
X2.4933Y-3.5528
X2.4933Y-3.7614
X2.4933Y-4.8953
X2.4933Y-5.1039
X2.4933Y-5.3323
X2.4933Y-5.5409
X2.4933Y-5.7587
X2.4933Y-5.9673
X2.4933Y-6.6472
X2.4933Y-6.8559
X2.4937Y-4.0051
X2.4937Y-4.2138
X2.4945Y-3.1039
X2.4945Y-3.3126
X2.4945Y-6.2024
X2.4945Y-6.411
X2.4957Y-2.6512
X2.4957Y-2.8598
X2.4957Y-4.4465
X2.4957Y-4.6551
X2.4972Y-2.1984
X2.4972Y-2.4071
X2.4976Y-1.3323
X2.4976Y-1.5409
X2.4976Y-1.7807
X2.4976Y-1.9894
X2.8933Y-3.5528
X2.8933Y-3.7614
X2.8933Y-4.8953
X2.8933Y-5.1039
X2.8933Y-5.3323
X2.8933Y-5.5409
X2.8933Y-5.7587
X2.8933Y-5.9673
X2.8933Y-6.6472
X2.8933Y-6.8559
X2.8937Y-4.0051
X2.8937Y-4.2138
X2.8945Y-3.1039
X2.8945Y-3.3126
X2.8945Y-6.2024
X2.8945Y-6.411
X2.8957Y-2.6512
X2.8957Y-2.8598
X2.8957Y-4.4465
X2.8957Y-4.6551
X2.8972Y-2.1984
X2.8972Y-2.4071
X2.8976Y-1.3323
X2.8976Y-1.5409
X2.8976Y-1.7807
X2.8976Y-1.9894
X3.2283Y-3.1811
X3.2465Y-2.7535
X3.2465Y-2.9622
X3.2677Y-2.1748
X3.2677Y-2.5748
X3.4252Y-3.1811
X3.4764Y-2.1748
X3.4764Y-2.5748
X3.5587Y-4.7594
X3.598Y-4.287
X3.6465Y-2.7535
X3.6465Y-2.9622
X3.7555Y-4.7594
X3.7949Y-4.287
T5
X1.6386Y-3.5535
X1.6386Y-3.6535
X1.6386Y-3.7535
X1.6386Y-4.8961
X1.6386Y-4.9961
X1.6386Y-5.0961
X1.6386Y-5.3331
X1.6386Y-5.4331
X1.6386Y-5.5331
X1.6386Y-5.7594
X1.6386Y-5.8594
X1.6386Y-5.9594
X1.6386Y-6.648
X1.6386Y-6.748
X1.6386Y-6.848
X1.639Y-4.0059
X1.639Y-4.1059
X1.639Y-4.2059
X1.6398Y-3.1047
X1.6398Y-3.2047
X1.6398Y-3.3047
X1.6398Y-6.2031
X1.6398Y-6.3031
X1.6398Y-6.4031
X1.6409Y-2.652
X1.6409Y-2.752
X1.6409Y-2.852
X1.6409Y-4.4472
X1.6409Y-4.5472
X1.6409Y-4.6472
X1.6425Y-2.1992
X1.6425Y-2.2992
X1.6425Y-2.3992
X1.6429Y-1.3331
X1.6429Y-1.4331
X1.6429Y-1.5331
X1.6429Y-1.7815
X1.6429Y-1.8815
X1.6429Y-1.9815
X1.9386Y-3.5535
X1.9386Y-3.6535
X1.9386Y-3.7535
X1.9386Y-4.8961
X1.9386Y-4.9961
X1.9386Y-5.0961
X1.9386Y-5.3331
X1.9386Y-5.4331
X1.9386Y-5.5331
X1.9386Y-5.7594
X1.9386Y-5.8594
X1.9386Y-5.9594
X1.9386Y-6.648
X1.9386Y-6.748
X1.9386Y-6.848
X1.939Y-4.0059
X1.939Y-4.1059
X1.939Y-4.2059
X1.9398Y-3.1047
X1.9398Y-3.2047
X1.9398Y-3.3047
X1.9398Y-6.2031
X1.9398Y-6.3031
X1.9398Y-6.4031
X1.9409Y-2.652
X1.9409Y-2.752
X1.9409Y-2.852
X1.9409Y-4.4472
X1.9409Y-4.5472
X1.9409Y-4.6472
X1.9425Y-2.1992
X1.9425Y-2.2992
X1.9425Y-2.3992
X1.9429Y-1.3331
X1.9429Y-1.4331
X1.9429Y-1.5331
X1.9429Y-1.7815
X1.9429Y-1.8815
X1.9429Y-1.9815
X3.2756Y-1.3201
X3.2756Y-1.6201
X3.3756Y-1.3201
X3.3756Y-1.6201
X3.4756Y-1.3201
X3.4756Y-1.6201
X3.872Y-2.1665
X3.872Y-2.4665
X3.972Y-2.1665
X3.972Y-2.4665
X4.072Y-2.1665
X4.072Y-2.4665
T6
X4.0016Y-4.1984
X4.0016Y-4.5921
T7
X3.352Y-4.1248
X3.352Y-4.7248
X3.6622Y-3.9228
X4.2622Y-3.9228
T8
X3.7539Y-5.5157
X3.7539Y-5.7913
X3.7539Y-6.0669
X3.7539Y-6.3327
X3.7559Y-6.5886
X3.7559Y-6.8543
X3.8165Y-1.8776
X4.1157Y-1.8776
T4
G00X3.7412Y-5.1659
M15
G01X3.7412Y-5.0793
M16
G05
G00X3.9066Y-4.9337
M15
G01X3.82Y-4.9337
M16
G05
G00X3.9775Y-5.1659
M15
G01X3.9775Y-5.0793
M16
G05
M30
