%TF.GenerationSoftware,KiCad,Pcbnew,9.0.7*%
%TF.CreationDate,2026-01-29T13:55:36-08:00*%
%TF.ProjectId,regulator-PCB,72656775-6c61-4746-9f72-2d5043422e6b,rev?*%
%TF.SameCoordinates,Original*%
%TF.FileFunction,Soldermask,Bot*%
%TF.FilePolarity,Negative*%
%FSLAX46Y46*%
G04 Gerber Fmt 4.6, Leading zero omitted, Abs format (unit mm)*
G04 Created by KiCad (PCBNEW 9.0.7) date 2026-01-29 13:55:36*
%MOMM*%
%LPD*%
G01*
G04 APERTURE LIST*
G04 Aperture macros list*
%AMRoundRect*
0 Rectangle with rounded corners*
0 $1 Rounding radius*
0 $2 $3 $4 $5 $6 $7 $8 $9 X,Y pos of 4 corners*
0 Add a 4 corners polygon primitive as box body*
4,1,4,$2,$3,$4,$5,$6,$7,$8,$9,$2,$3,0*
0 Add four circle primitives for the rounded corners*
1,1,$1+$1,$2,$3*
1,1,$1+$1,$4,$5*
1,1,$1+$1,$6,$7*
1,1,$1+$1,$8,$9*
0 Add four rect primitives between the rounded corners*
20,1,$1+$1,$2,$3,$4,$5,0*
20,1,$1+$1,$4,$5,$6,$7,0*
20,1,$1+$1,$6,$7,$8,$9,0*
20,1,$1+$1,$8,$9,$2,$3,0*%
G04 Aperture macros list end*
%ADD10C,4.500000*%
%ADD11C,1.600000*%
%ADD12O,1.500000X1.050000*%
%ADD13R,1.500000X1.050000*%
%ADD14C,2.800000*%
%ADD15RoundRect,0.250000X1.050000X-1.050000X1.050000X1.050000X-1.050000X1.050000X-1.050000X-1.050000X0*%
%ADD16RoundRect,0.102000X0.700000X0.700000X-0.700000X0.700000X-0.700000X-0.700000X0.700000X-0.700000X0*%
%ADD17C,1.604000*%
%ADD18R,1.270000X1.270000*%
%ADD19C,1.270000*%
%ADD20C,2.000000*%
%ADD21RoundRect,0.250000X0.550000X0.550000X-0.550000X0.550000X-0.550000X-0.550000X0.550000X-0.550000X0*%
%ADD22C,1.354000*%
%ADD23R,1.050000X1.500000*%
%ADD24O,1.050000X1.500000*%
%ADD25C,2.200000*%
%ADD26O,2.004000X3.804000*%
%ADD27O,3.804000X2.004000*%
%ADD28RoundRect,0.102000X0.700000X-0.700000X0.700000X0.700000X-0.700000X0.700000X-0.700000X-0.700000X0*%
%ADD29C,2.374900*%
%ADD30C,0.990600*%
%ADD31RoundRect,0.250000X1.050000X1.050000X-1.050000X1.050000X-1.050000X-1.050000X1.050000X-1.050000X0*%
%ADD32C,2.600000*%
G04 APERTURE END LIST*
D10*
%TO.C,H3*%
X26700000Y-181800000D03*
%TD*%
%TO.C,H1*%
X107400000Y-25100000D03*
%TD*%
%TO.C,H2*%
X26700000Y-25000000D03*
%TD*%
%TO.C,H4*%
X107300000Y-181800000D03*
%TD*%
D11*
%TO.C,R2*%
X92620000Y-75240000D03*
X82460000Y-75240000D03*
%TD*%
D12*
%TO.C,Q14*%
X99600000Y-66900000D03*
X99600000Y-68170000D03*
D13*
X99600000Y-69440000D03*
%TD*%
D11*
%TO.C,R19*%
X73500000Y-107030000D03*
X63340000Y-107030000D03*
%TD*%
D14*
%TO.C,J8*%
X109200000Y-174100000D03*
D15*
X95400000Y-174100000D03*
%TD*%
D11*
%TO.C,R27*%
X63330000Y-146270000D03*
X73490000Y-146270000D03*
%TD*%
D13*
%TO.C,Q3*%
X56830000Y-59910000D03*
D12*
X56830000Y-58640000D03*
X56830000Y-57370000D03*
%TD*%
D11*
%TO.C,R37*%
X26440000Y-124240000D03*
X36600000Y-124240000D03*
%TD*%
D13*
%TO.C,Q11*%
X56730000Y-139510000D03*
D12*
X56730000Y-138240000D03*
X56730000Y-136970000D03*
%TD*%
D11*
%TO.C,R26*%
X63330000Y-135440000D03*
X73490000Y-135440000D03*
%TD*%
D13*
%TO.C,Q7*%
X56740000Y-105800000D03*
D12*
X56740000Y-104530000D03*
X56740000Y-103260000D03*
%TD*%
D11*
%TO.C,R28*%
X63360000Y-157540000D03*
X73520000Y-157540000D03*
%TD*%
%TO.C,R3*%
X26560000Y-33740000D03*
X36720000Y-33740000D03*
%TD*%
D14*
%TO.C,J10*%
X109150000Y-160850000D03*
D15*
X95350000Y-160850000D03*
%TD*%
D16*
%TO.C,U7*%
X49270000Y-83940000D03*
D17*
X49270000Y-81400000D03*
X49270000Y-78860000D03*
X41650000Y-78860000D03*
X41650000Y-81400000D03*
X41650000Y-83940000D03*
%TD*%
D11*
%TO.C,R31*%
X73490000Y-151570000D03*
X63330000Y-151570000D03*
%TD*%
%TO.C,R8*%
X63440000Y-45230000D03*
X73600000Y-45230000D03*
%TD*%
%TO.C,R32*%
X73490000Y-140740000D03*
X63330000Y-140740000D03*
%TD*%
D18*
%TO.C,C3*%
X85625000Y-91440000D03*
D19*
X83085000Y-91440000D03*
%TD*%
D13*
%TO.C,Q13*%
X56790000Y-117010000D03*
D12*
X56790000Y-115740000D03*
X56790000Y-114470000D03*
%TD*%
D16*
%TO.C,U9*%
X49250000Y-106830000D03*
D17*
X49250000Y-104290000D03*
X49250000Y-101750000D03*
X41630000Y-101750000D03*
X41630000Y-104290000D03*
X41630000Y-106830000D03*
%TD*%
D11*
%TO.C,R43*%
X63330000Y-168840000D03*
X73490000Y-168840000D03*
%TD*%
%TO.C,R13*%
X63430000Y-55840000D03*
X73590000Y-55840000D03*
%TD*%
%TO.C,R42*%
X83000000Y-55240000D03*
X83000000Y-65400000D03*
%TD*%
%TO.C,R34*%
X73550000Y-118240000D03*
X63390000Y-118240000D03*
%TD*%
D20*
%TO.C,C4*%
X101640000Y-116640000D03*
X101640000Y-106640000D03*
%TD*%
D11*
%TO.C,R39*%
X26450000Y-146170000D03*
X36610000Y-146170000D03*
%TD*%
D16*
%TO.C,U10*%
X49240000Y-173940000D03*
D17*
X49240000Y-171400000D03*
X49240000Y-168860000D03*
X41620000Y-168860000D03*
X41620000Y-171400000D03*
X41620000Y-173940000D03*
%TD*%
D21*
%TO.C,C5*%
X96390000Y-108890000D03*
D11*
X91390000Y-108890000D03*
%TD*%
%TO.C,R15*%
X63360000Y-78840000D03*
X73520000Y-78840000D03*
%TD*%
D16*
%TO.C,U12*%
X49240000Y-151370000D03*
D17*
X49240000Y-148830000D03*
X49240000Y-146290000D03*
X41620000Y-146290000D03*
X41620000Y-148830000D03*
X41620000Y-151370000D03*
%TD*%
D13*
%TO.C,Q2*%
X56840000Y-49280000D03*
D12*
X56840000Y-48010000D03*
X56840000Y-46740000D03*
%TD*%
D13*
%TO.C,Q10*%
X56730000Y-150340000D03*
D12*
X56730000Y-149070000D03*
X56730000Y-147800000D03*
%TD*%
D11*
%TO.C,R1*%
X73600000Y-39140000D03*
X63440000Y-39140000D03*
%TD*%
%TO.C,R16*%
X26480000Y-78740000D03*
X36640000Y-78740000D03*
%TD*%
D14*
%TO.C,J9*%
X109200000Y-167350000D03*
D15*
X95400000Y-167350000D03*
%TD*%
D11*
%TO.C,R14*%
X63390000Y-67340000D03*
X73550000Y-67340000D03*
%TD*%
%TO.C,R20*%
X26450000Y-90140000D03*
X36610000Y-90140000D03*
%TD*%
D13*
%TO.C,Q5*%
X56740000Y-82880000D03*
D12*
X56740000Y-81610000D03*
X56740000Y-80340000D03*
%TD*%
D11*
%TO.C,R18*%
X73490000Y-95540000D03*
X63330000Y-95540000D03*
%TD*%
D22*
%TO.C,C2*%
X87000000Y-80800000D03*
X82000000Y-80800000D03*
%TD*%
D13*
%TO.C,Q1*%
X56840000Y-37910000D03*
D12*
X56840000Y-36640000D03*
X56840000Y-35370000D03*
%TD*%
D13*
%TO.C,Q9*%
X56760000Y-161610000D03*
D12*
X56760000Y-160340000D03*
X56760000Y-159070000D03*
%TD*%
D16*
%TO.C,U13*%
X49240000Y-140540000D03*
D17*
X49240000Y-138000000D03*
X49240000Y-135460000D03*
X41620000Y-135460000D03*
X41620000Y-138000000D03*
X41620000Y-140540000D03*
%TD*%
D16*
%TO.C,U11*%
X49270000Y-162640000D03*
D17*
X49270000Y-160100000D03*
X49270000Y-157560000D03*
X41650000Y-157560000D03*
X41650000Y-160100000D03*
X41650000Y-162640000D03*
%TD*%
D18*
%TO.C,C1*%
X85725000Y-85740000D03*
D19*
X83185000Y-85740000D03*
%TD*%
D11*
%TO.C,R21*%
X26460000Y-101630000D03*
X36620000Y-101630000D03*
%TD*%
%TO.C,R23*%
X63340000Y-101730000D03*
X73500000Y-101730000D03*
%TD*%
%TO.C,R33*%
X73490000Y-129640000D03*
X63330000Y-129640000D03*
%TD*%
D23*
%TO.C,Q15*%
X84230000Y-48640000D03*
D24*
X85500000Y-48640000D03*
X86770000Y-48640000D03*
%TD*%
D14*
%TO.C,J5*%
X109150000Y-147100000D03*
D15*
X95350000Y-147100000D03*
%TD*%
D11*
%TO.C,R38*%
X26450000Y-135340000D03*
X36610000Y-135340000D03*
%TD*%
D25*
%TO.C,J2*%
X105427500Y-130115000D03*
D26*
X95027500Y-130115000D03*
X101027500Y-130115000D03*
D27*
X98127500Y-125315000D03*
%TD*%
D28*
%TO.C,U17*%
X83200000Y-41150000D03*
D17*
X85740000Y-41150000D03*
X88280000Y-41150000D03*
X88280000Y-33530000D03*
X85740000Y-33530000D03*
X83200000Y-33530000D03*
%TD*%
D11*
%TO.C,R7*%
X63440000Y-33840000D03*
X73600000Y-33840000D03*
%TD*%
%TO.C,R5*%
X73600000Y-50530000D03*
X63440000Y-50530000D03*
%TD*%
%TO.C,R25*%
X63330000Y-124340000D03*
X73490000Y-124340000D03*
%TD*%
D29*
%TO.C,J1*%
X104365000Y-78210000D03*
D30*
X106905000Y-78210000D03*
D29*
X109445000Y-78210000D03*
X104365000Y-75035000D03*
X109445000Y-75035000D03*
D30*
X105889000Y-73130000D03*
X107921000Y-73130000D03*
%TD*%
D11*
%TO.C,R12*%
X26510000Y-67240000D03*
X36670000Y-67240000D03*
%TD*%
D14*
%TO.C,J6*%
X96940000Y-33890000D03*
D31*
X96940000Y-47690000D03*
%TD*%
D11*
%TO.C,R9*%
X73590000Y-61140000D03*
X63430000Y-61140000D03*
%TD*%
D16*
%TO.C,U4*%
X49350000Y-50330000D03*
D17*
X49350000Y-47790000D03*
X49350000Y-45250000D03*
X41730000Y-45250000D03*
X41730000Y-47790000D03*
X41730000Y-50330000D03*
%TD*%
D28*
%TO.C,U16*%
X98350000Y-62650000D03*
D17*
X100890000Y-62650000D03*
X103430000Y-62650000D03*
X103430000Y-55030000D03*
X100890000Y-55030000D03*
X98350000Y-55030000D03*
%TD*%
D14*
%TO.C,J3*%
X109150000Y-154100000D03*
D15*
X95350000Y-154100000D03*
%TD*%
D13*
%TO.C,Q12*%
X56730000Y-128410000D03*
D12*
X56730000Y-127140000D03*
X56730000Y-125870000D03*
%TD*%
D11*
%TO.C,R22*%
X63330000Y-90240000D03*
X73490000Y-90240000D03*
%TD*%
%TO.C,R10*%
X73550000Y-72640000D03*
X63390000Y-72640000D03*
%TD*%
D16*
%TO.C,U8*%
X49240000Y-95340000D03*
D17*
X49240000Y-92800000D03*
X49240000Y-90260000D03*
X41620000Y-90260000D03*
X41620000Y-92800000D03*
X41620000Y-95340000D03*
%TD*%
D31*
%TO.C,D4*%
X108260000Y-99640000D03*
D32*
X93020000Y-99640000D03*
%TD*%
D14*
%TO.C,J4*%
X109150000Y-140100000D03*
D15*
X95350000Y-140100000D03*
%TD*%
D11*
%TO.C,R29*%
X73490000Y-174140000D03*
X63330000Y-174140000D03*
%TD*%
D16*
%TO.C,U14*%
X49240000Y-129440000D03*
D17*
X49240000Y-126900000D03*
X49240000Y-124360000D03*
X41620000Y-124360000D03*
X41620000Y-126900000D03*
X41620000Y-129440000D03*
%TD*%
D15*
%TO.C,D3*%
X85140000Y-120010000D03*
D32*
X85140000Y-104770000D03*
%TD*%
D11*
%TO.C,R36*%
X26540000Y-112840000D03*
X36700000Y-112840000D03*
%TD*%
D16*
%TO.C,U6*%
X49300000Y-72440000D03*
D17*
X49300000Y-69900000D03*
X49300000Y-67360000D03*
X41680000Y-67360000D03*
X41680000Y-69900000D03*
X41680000Y-72440000D03*
%TD*%
D13*
%TO.C,Q6*%
X56730000Y-94310000D03*
D12*
X56730000Y-93040000D03*
X56730000Y-91770000D03*
%TD*%
D11*
%TO.C,R35*%
X92620000Y-69940000D03*
X82460000Y-69940000D03*
%TD*%
D16*
%TO.C,U5*%
X49340000Y-60940000D03*
D17*
X49340000Y-58400000D03*
X49340000Y-55860000D03*
X41720000Y-55860000D03*
X41720000Y-58400000D03*
X41720000Y-60940000D03*
%TD*%
D14*
%TO.C,J7*%
X104540000Y-33890000D03*
D31*
X104540000Y-47690000D03*
%TD*%
D13*
%TO.C,Q4*%
X56840000Y-71380000D03*
D12*
X56840000Y-70110000D03*
X56840000Y-68840000D03*
%TD*%
D13*
%TO.C,Q8*%
X56730000Y-172910000D03*
D12*
X56730000Y-171640000D03*
X56730000Y-170370000D03*
%TD*%
D11*
%TO.C,R6*%
X26560000Y-45130000D03*
X36720000Y-45130000D03*
%TD*%
%TO.C,R24*%
X63390000Y-112940000D03*
X73550000Y-112940000D03*
%TD*%
D16*
%TO.C,U3*%
X49350000Y-38940000D03*
D17*
X49350000Y-36400000D03*
X49350000Y-33860000D03*
X41730000Y-33860000D03*
X41730000Y-36400000D03*
X41730000Y-38940000D03*
%TD*%
D11*
%TO.C,R30*%
X73520000Y-162840000D03*
X63360000Y-162840000D03*
%TD*%
%TO.C,R4*%
X88300000Y-65400000D03*
X88300000Y-55240000D03*
%TD*%
%TO.C,R41*%
X26450000Y-168740000D03*
X36610000Y-168740000D03*
%TD*%
D22*
%TO.C,C6*%
X90390000Y-120890000D03*
X95390000Y-120890000D03*
%TD*%
D16*
%TO.C,U15*%
X49300000Y-118040000D03*
D17*
X49300000Y-115500000D03*
X49300000Y-112960000D03*
X41680000Y-112960000D03*
X41680000Y-115500000D03*
X41680000Y-118040000D03*
%TD*%
D11*
%TO.C,R40*%
X26480000Y-157440000D03*
X36640000Y-157440000D03*
%TD*%
%TO.C,R17*%
X73520000Y-84140000D03*
X63360000Y-84140000D03*
%TD*%
%TO.C,R11*%
X26550000Y-55740000D03*
X36710000Y-55740000D03*
%TD*%
M02*
