%TF.GenerationSoftware,KiCad,Pcbnew,9.0.7*%
%TF.CreationDate,2026-01-29T13:55:36-08:00*%
%TF.ProjectId,regulator-PCB,72656775-6c61-4746-9f72-2d5043422e6b,rev?*%
%TF.SameCoordinates,Original*%
%TF.FileFunction,Copper,L3,Inr*%
%TF.FilePolarity,Positive*%
%FSLAX46Y46*%
G04 Gerber Fmt 4.6, Leading zero omitted, Abs format (unit mm)*
G04 Created by KiCad (PCBNEW 9.0.7) date 2026-01-29 13:55:36*
%MOMM*%
%LPD*%
G01*
G04 APERTURE LIST*
G04 Aperture macros list*
%AMRoundRect*
0 Rectangle with rounded corners*
0 $1 Rounding radius*
0 $2 $3 $4 $5 $6 $7 $8 $9 X,Y pos of 4 corners*
0 Add a 4 corners polygon primitive as box body*
4,1,4,$2,$3,$4,$5,$6,$7,$8,$9,$2,$3,0*
0 Add four circle primitives for the rounded corners*
1,1,$1+$1,$2,$3*
1,1,$1+$1,$4,$5*
1,1,$1+$1,$6,$7*
1,1,$1+$1,$8,$9*
0 Add four rect primitives between the rounded corners*
20,1,$1+$1,$2,$3,$4,$5,0*
20,1,$1+$1,$4,$5,$6,$7,0*
20,1,$1+$1,$6,$7,$8,$9,0*
20,1,$1+$1,$8,$9,$2,$3,0*%
G04 Aperture macros list end*
%TA.AperFunction,ComponentPad*%
%ADD10C,1.600000*%
%TD*%
%TA.AperFunction,ComponentPad*%
%ADD11O,1.500000X1.050000*%
%TD*%
%TA.AperFunction,ComponentPad*%
%ADD12R,1.500000X1.050000*%
%TD*%
%TA.AperFunction,ComponentPad*%
%ADD13RoundRect,0.250000X1.050000X-1.050000X1.050000X1.050000X-1.050000X1.050000X-1.050000X-1.050000X0*%
%TD*%
%TA.AperFunction,ComponentPad*%
%ADD14R,1.400000X1.400000*%
%TD*%
%TA.AperFunction,ComponentPad*%
%ADD15C,1.400000*%
%TD*%
%TA.AperFunction,ComponentPad*%
%ADD16R,1.270000X1.270000*%
%TD*%
%TA.AperFunction,ComponentPad*%
%ADD17C,1.270000*%
%TD*%
%TA.AperFunction,ComponentPad*%
%ADD18C,2.000000*%
%TD*%
%TA.AperFunction,ComponentPad*%
%ADD19RoundRect,0.250000X0.550000X0.550000X-0.550000X0.550000X-0.550000X-0.550000X0.550000X-0.550000X0*%
%TD*%
%TA.AperFunction,ComponentPad*%
%ADD20C,1.150000*%
%TD*%
%TA.AperFunction,ComponentPad*%
%ADD21R,1.050000X1.500000*%
%TD*%
%TA.AperFunction,ComponentPad*%
%ADD22O,1.050000X1.500000*%
%TD*%
%TA.AperFunction,ComponentPad*%
%ADD23O,1.800000X3.600000*%
%TD*%
%TA.AperFunction,ComponentPad*%
%ADD24O,3.600000X1.800000*%
%TD*%
%TA.AperFunction,ComponentPad*%
%ADD25RoundRect,0.250000X1.050000X1.050000X-1.050000X1.050000X-1.050000X-1.050000X1.050000X-1.050000X0*%
%TD*%
%TA.AperFunction,ComponentPad*%
%ADD26C,2.600000*%
%TD*%
%TA.AperFunction,ViaPad*%
%ADD27C,0.600000*%
%TD*%
%TA.AperFunction,Conductor*%
%ADD28C,1.000000*%
%TD*%
G04 APERTURE END LIST*
D10*
%TO.N,Net-(Q14-B)*%
%TO.C,R2*%
X92620000Y-75240000D03*
%TO.N,/MinResBit*%
X82460000Y-75240000D03*
%TD*%
D11*
%TO.N,Net-(Q14-C)*%
%TO.C,Q14*%
X99600000Y-66900000D03*
%TO.N,Net-(Q14-B)*%
X99600000Y-68170000D03*
D12*
%TO.N,GND*%
X99600000Y-69440000D03*
%TD*%
D10*
%TO.N,+5V*%
%TO.C,R19*%
X73500000Y-107030000D03*
%TO.N,Net-(R19-Pad2)*%
X63340000Y-107030000D03*
%TD*%
D13*
%TO.N,GND*%
%TO.C,J8*%
X95400000Y-174100000D03*
%TD*%
D10*
%TO.N,Net-(Q10-B)*%
%TO.C,R27*%
X63330000Y-146270000D03*
%TO.N,/Bit10*%
X73490000Y-146270000D03*
%TD*%
D12*
%TO.N,GND*%
%TO.C,Q3*%
X56830000Y-59910000D03*
D11*
%TO.N,Net-(Q3-B)*%
X56830000Y-58640000D03*
%TO.N,Net-(Q3-C)*%
X56830000Y-57370000D03*
%TD*%
D10*
%TO.N,/Line-R10*%
%TO.C,R37*%
X26440000Y-124240000D03*
%TO.N,/Line-R9*%
X36600000Y-124240000D03*
%TD*%
D12*
%TO.N,GND*%
%TO.C,Q11*%
X56730000Y-139510000D03*
D11*
%TO.N,Net-(Q11-B)*%
X56730000Y-138240000D03*
%TO.N,Net-(Q11-C)*%
X56730000Y-136970000D03*
%TD*%
D10*
%TO.N,Net-(Q11-B)*%
%TO.C,R26*%
X63330000Y-135440000D03*
%TO.N,/Bit9*%
X73490000Y-135440000D03*
%TD*%
D12*
%TO.N,GND*%
%TO.C,Q7*%
X56740000Y-105800000D03*
D11*
%TO.N,Net-(Q7-B)*%
X56740000Y-104530000D03*
%TO.N,Net-(Q7-C)*%
X56740000Y-103260000D03*
%TD*%
D10*
%TO.N,Net-(Q9-B)*%
%TO.C,R28*%
X63360000Y-157540000D03*
%TO.N,/Bit11*%
X73520000Y-157540000D03*
%TD*%
%TO.N,/Line-R1*%
%TO.C,R3*%
X26560000Y-33740000D03*
%TO.N,/Line-R2*%
X36720000Y-33740000D03*
%TD*%
D13*
%TO.N,+3.3V*%
%TO.C,J10*%
X95350000Y-160850000D03*
%TD*%
D14*
%TO.N,Net-(R17-Pad2)*%
%TO.C,U7*%
X49270000Y-83940000D03*
D15*
%TO.N,Net-(Q5-C)*%
X49270000Y-81400000D03*
%TO.N,N/C*%
X49270000Y-78860000D03*
%TO.N,/Line-R6*%
X41650000Y-78860000D03*
%TO.N,/Line-NC5*%
X41650000Y-81400000D03*
%TO.N,/Line-R5*%
X41650000Y-83940000D03*
%TD*%
D10*
%TO.N,+5V*%
%TO.C,R31*%
X73490000Y-151570000D03*
%TO.N,Net-(R31-Pad2)*%
X63330000Y-151570000D03*
%TD*%
%TO.N,Net-(Q2-B)*%
%TO.C,R8*%
X63440000Y-45230000D03*
%TO.N,/Bit1*%
X73600000Y-45230000D03*
%TD*%
%TO.N,+5V*%
%TO.C,R32*%
X73490000Y-140740000D03*
%TO.N,Net-(R32-Pad2)*%
X63330000Y-140740000D03*
%TD*%
D16*
%TO.N,Net-(J1-~{RESET})*%
%TO.C,C3*%
X85625000Y-91440000D03*
D17*
%TO.N,GND*%
X83085000Y-91440000D03*
%TD*%
D12*
%TO.N,GND*%
%TO.C,Q13*%
X56790000Y-117010000D03*
D11*
%TO.N,Net-(Q13-B)*%
X56790000Y-115740000D03*
%TO.N,Net-(Q13-C)*%
X56790000Y-114470000D03*
%TD*%
D14*
%TO.N,Net-(R19-Pad2)*%
%TO.C,U9*%
X49250000Y-106830000D03*
D15*
%TO.N,Net-(Q7-C)*%
X49250000Y-104290000D03*
%TO.N,N/C*%
X49250000Y-101750000D03*
%TO.N,/Line-R8*%
X41630000Y-101750000D03*
%TO.N,/Line-NC7*%
X41630000Y-104290000D03*
%TO.N,/Line-R7*%
X41630000Y-106830000D03*
%TD*%
D10*
%TO.N,Net-(Q8-B)*%
%TO.C,R43*%
X63330000Y-168840000D03*
%TO.N,/Bit12*%
X73490000Y-168840000D03*
%TD*%
%TO.N,Net-(Q3-B)*%
%TO.C,R13*%
X63430000Y-55840000D03*
%TO.N,/Bit2*%
X73590000Y-55840000D03*
%TD*%
%TO.N,Net-(R42-Pad1)*%
%TO.C,R42*%
X83000000Y-55240000D03*
%TO.N,+5V*%
X83000000Y-65400000D03*
%TD*%
%TO.N,+5V*%
%TO.C,R34*%
X73550000Y-118240000D03*
%TO.N,Net-(R34-Pad2)*%
X63390000Y-118240000D03*
%TD*%
D18*
%TO.N,Net-(U2-BP)*%
%TO.C,C4*%
X101640000Y-116640000D03*
%TO.N,GND*%
X101640000Y-106640000D03*
%TD*%
D10*
%TO.N,/Line-R12*%
%TO.C,R39*%
X26450000Y-146170000D03*
%TO.N,/Line-R11*%
X36610000Y-146170000D03*
%TD*%
D14*
%TO.N,Net-(R29-Pad2)*%
%TO.C,U10*%
X49240000Y-173940000D03*
D15*
%TO.N,Net-(Q8-C)*%
X49240000Y-171400000D03*
%TO.N,N/C*%
X49240000Y-168860000D03*
%TO.N,/Line-R13*%
X41620000Y-168860000D03*
%TO.N,/Line-NC12*%
X41620000Y-171400000D03*
%TO.N,/Line-R-In*%
X41620000Y-173940000D03*
%TD*%
D19*
%TO.N,+3.3V*%
%TO.C,C5*%
X96390000Y-108890000D03*
D10*
%TO.N,GND*%
X91390000Y-108890000D03*
%TD*%
%TO.N,Net-(Q5-B)*%
%TO.C,R15*%
X63360000Y-78840000D03*
%TO.N,/Bit4*%
X73520000Y-78840000D03*
%TD*%
D14*
%TO.N,Net-(R31-Pad2)*%
%TO.C,U12*%
X49240000Y-151370000D03*
D15*
%TO.N,Net-(Q10-C)*%
X49240000Y-148830000D03*
%TO.N,N/C*%
X49240000Y-146290000D03*
%TO.N,/Line-R11*%
X41620000Y-146290000D03*
%TO.N,/Line-NC10*%
X41620000Y-148830000D03*
%TO.N,/Line-R12*%
X41620000Y-151370000D03*
%TD*%
D12*
%TO.N,GND*%
%TO.C,Q2*%
X56840000Y-49280000D03*
D11*
%TO.N,Net-(Q2-B)*%
X56840000Y-48010000D03*
%TO.N,Net-(Q2-C)*%
X56840000Y-46740000D03*
%TD*%
D12*
%TO.N,GND*%
%TO.C,Q10*%
X56730000Y-150340000D03*
D11*
%TO.N,Net-(Q10-B)*%
X56730000Y-149070000D03*
%TO.N,Net-(Q10-C)*%
X56730000Y-147800000D03*
%TD*%
D10*
%TO.N,+5V*%
%TO.C,R1*%
X73600000Y-39140000D03*
%TO.N,Net-(R1-Pad2)*%
X63440000Y-39140000D03*
%TD*%
%TO.N,/Line-R5*%
%TO.C,R16*%
X26480000Y-78740000D03*
%TO.N,/Line-R6*%
X36640000Y-78740000D03*
%TD*%
D13*
%TO.N,/rotary-encoder-output*%
%TO.C,J9*%
X95400000Y-167350000D03*
%TD*%
D10*
%TO.N,Net-(Q4-B)*%
%TO.C,R14*%
X63390000Y-67340000D03*
%TO.N,/Bit3*%
X73550000Y-67340000D03*
%TD*%
%TO.N,/Line-R6*%
%TO.C,R20*%
X26450000Y-90140000D03*
%TO.N,/Line-R7*%
X36610000Y-90140000D03*
%TD*%
D12*
%TO.N,GND*%
%TO.C,Q5*%
X56740000Y-82880000D03*
D11*
%TO.N,Net-(Q5-B)*%
X56740000Y-81610000D03*
%TO.N,Net-(Q5-C)*%
X56740000Y-80340000D03*
%TD*%
D10*
%TO.N,+5V*%
%TO.C,R18*%
X73490000Y-95540000D03*
%TO.N,Net-(R18-Pad2)*%
X63330000Y-95540000D03*
%TD*%
D20*
%TO.N,+3.3V*%
%TO.C,C2*%
X87000000Y-80800000D03*
%TO.N,GND*%
X82000000Y-80800000D03*
%TD*%
D12*
%TO.N,GND*%
%TO.C,Q1*%
X56840000Y-37910000D03*
D11*
%TO.N,Net-(Q1-B)*%
X56840000Y-36640000D03*
%TO.N,Net-(Q1-C)*%
X56840000Y-35370000D03*
%TD*%
D12*
%TO.N,GND*%
%TO.C,Q9*%
X56760000Y-161610000D03*
D11*
%TO.N,Net-(Q9-B)*%
X56760000Y-160340000D03*
%TO.N,Net-(Q9-C)*%
X56760000Y-159070000D03*
%TD*%
D14*
%TO.N,Net-(R32-Pad2)*%
%TO.C,U13*%
X49240000Y-140540000D03*
D15*
%TO.N,Net-(Q11-C)*%
X49240000Y-138000000D03*
%TO.N,N/C*%
X49240000Y-135460000D03*
%TO.N,/Line-R10*%
X41620000Y-135460000D03*
%TO.N,/Line-NC15*%
X41620000Y-138000000D03*
%TO.N,/Line-R11*%
X41620000Y-140540000D03*
%TD*%
D14*
%TO.N,Net-(R30-Pad2)*%
%TO.C,U11*%
X49270000Y-162640000D03*
D15*
%TO.N,Net-(Q9-C)*%
X49270000Y-160100000D03*
%TO.N,N/C*%
X49270000Y-157560000D03*
%TO.N,/Line-R12*%
X41650000Y-157560000D03*
%TO.N,/Line-NC11*%
X41650000Y-160100000D03*
%TO.N,/Line-R13*%
X41650000Y-162640000D03*
%TD*%
D16*
%TO.N,+3.3V*%
%TO.C,C1*%
X85725000Y-85740000D03*
D17*
%TO.N,GND*%
X83185000Y-85740000D03*
%TD*%
D10*
%TO.N,/Line-R7*%
%TO.C,R21*%
X26460000Y-101630000D03*
%TO.N,/Line-R8*%
X36620000Y-101630000D03*
%TD*%
%TO.N,Net-(Q7-B)*%
%TO.C,R23*%
X63340000Y-101730000D03*
%TO.N,/Bit6*%
X73500000Y-101730000D03*
%TD*%
%TO.N,+5V*%
%TO.C,R33*%
X73490000Y-129640000D03*
%TO.N,Net-(R33-Pad2)*%
X63330000Y-129640000D03*
%TD*%
D21*
%TO.N,GND*%
%TO.C,Q15*%
X84230000Y-48640000D03*
D22*
%TO.N,Net-(Q15-B)*%
X85500000Y-48640000D03*
%TO.N,Net-(Q15-C)*%
X86770000Y-48640000D03*
%TD*%
D13*
%TO.N,+3.3V*%
%TO.C,J5*%
X95350000Y-147100000D03*
%TD*%
D10*
%TO.N,/Line-R11*%
%TO.C,R38*%
X26450000Y-135340000D03*
%TO.N,/Line-R10*%
X36610000Y-135340000D03*
%TD*%
D23*
%TO.N,+5V*%
%TO.C,J2*%
X95027500Y-130115000D03*
%TO.N,GND*%
X101027500Y-130115000D03*
D24*
%TO.N,unconnected-(J2-Pad3)*%
X98127500Y-125315000D03*
%TD*%
D14*
%TO.N,Net-(R42-Pad1)*%
%TO.C,U17*%
X83200000Y-41150000D03*
D15*
%TO.N,Net-(Q15-C)*%
X85740000Y-41150000D03*
%TO.N,N/C*%
X88280000Y-41150000D03*
%TO.N,/Line-R1*%
X88280000Y-33530000D03*
%TO.N,/Line-NC13*%
X85740000Y-33530000D03*
%TO.N,/Line-R-Out*%
X83200000Y-33530000D03*
%TD*%
D10*
%TO.N,Net-(Q1-B)*%
%TO.C,R7*%
X63440000Y-33840000D03*
%TO.N,/Bit0*%
X73600000Y-33840000D03*
%TD*%
%TO.N,+5V*%
%TO.C,R5*%
X73600000Y-50530000D03*
%TO.N,Net-(R5-Pad2)*%
X63440000Y-50530000D03*
%TD*%
%TO.N,Net-(Q12-B)*%
%TO.C,R25*%
X63330000Y-124340000D03*
%TO.N,/Bit8*%
X73490000Y-124340000D03*
%TD*%
%TO.N,/Line-R4*%
%TO.C,R12*%
X26510000Y-67240000D03*
%TO.N,/Line-R5*%
X36670000Y-67240000D03*
%TD*%
D25*
%TO.N,/Line-R-In*%
%TO.C,J6*%
X96940000Y-47690000D03*
%TD*%
D10*
%TO.N,+5V*%
%TO.C,R9*%
X73590000Y-61140000D03*
%TO.N,Net-(R9-Pad2)*%
X63430000Y-61140000D03*
%TD*%
D14*
%TO.N,Net-(R5-Pad2)*%
%TO.C,U4*%
X49350000Y-50330000D03*
D15*
%TO.N,Net-(Q2-C)*%
X49350000Y-47790000D03*
%TO.N,N/C*%
X49350000Y-45250000D03*
%TO.N,/Line-R3*%
X41730000Y-45250000D03*
%TO.N,/Line-NC2*%
X41730000Y-47790000D03*
%TO.N,/Line-R2*%
X41730000Y-50330000D03*
%TD*%
D14*
%TO.N,Net-(R35-Pad1)*%
%TO.C,U16*%
X98350000Y-62650000D03*
D15*
%TO.N,Net-(Q14-C)*%
X100890000Y-62650000D03*
%TO.N,N/C*%
X103430000Y-62650000D03*
%TO.N,/Line-R-Out*%
X103430000Y-55030000D03*
%TO.N,/Line-NC14*%
X100890000Y-55030000D03*
%TO.N,/Line-R-In*%
X98350000Y-55030000D03*
%TD*%
D13*
%TO.N,/FootPedalPotOutput*%
%TO.C,J3*%
X95350000Y-154100000D03*
%TD*%
D12*
%TO.N,GND*%
%TO.C,Q12*%
X56730000Y-128410000D03*
D11*
%TO.N,Net-(Q12-B)*%
X56730000Y-127140000D03*
%TO.N,Net-(Q12-C)*%
X56730000Y-125870000D03*
%TD*%
D10*
%TO.N,Net-(Q6-B)*%
%TO.C,R22*%
X63330000Y-90240000D03*
%TO.N,/Bit5*%
X73490000Y-90240000D03*
%TD*%
%TO.N,+5V*%
%TO.C,R10*%
X73550000Y-72640000D03*
%TO.N,Net-(R10-Pad2)*%
X63390000Y-72640000D03*
%TD*%
D14*
%TO.N,Net-(R18-Pad2)*%
%TO.C,U8*%
X49240000Y-95340000D03*
D15*
%TO.N,Net-(Q6-C)*%
X49240000Y-92800000D03*
%TO.N,N/C*%
X49240000Y-90260000D03*
%TO.N,/Line-R7*%
X41620000Y-90260000D03*
%TO.N,/Line-NC6*%
X41620000Y-92800000D03*
%TO.N,/Line-R6*%
X41620000Y-95340000D03*
%TD*%
D25*
%TO.N,GND*%
%TO.C,D4*%
X108260000Y-99640000D03*
D26*
%TO.N,+3.3V*%
X93020000Y-99640000D03*
%TD*%
D13*
%TO.N,GND*%
%TO.C,J4*%
X95350000Y-140100000D03*
%TD*%
D10*
%TO.N,+5V*%
%TO.C,R29*%
X73490000Y-174140000D03*
%TO.N,Net-(R29-Pad2)*%
X63330000Y-174140000D03*
%TD*%
D14*
%TO.N,Net-(R33-Pad2)*%
%TO.C,U14*%
X49240000Y-129440000D03*
D15*
%TO.N,Net-(Q12-C)*%
X49240000Y-126900000D03*
%TO.N,N/C*%
X49240000Y-124360000D03*
%TO.N,/Line-R9*%
X41620000Y-124360000D03*
%TO.N,/Line-NC9*%
X41620000Y-126900000D03*
%TO.N,/Line-R10*%
X41620000Y-129440000D03*
%TD*%
D13*
%TO.N,+5V*%
%TO.C,D3*%
X85140000Y-120010000D03*
D26*
%TO.N,GND*%
X85140000Y-104770000D03*
%TD*%
D10*
%TO.N,/Line-R9*%
%TO.C,R36*%
X26540000Y-112840000D03*
%TO.N,/Line-R8*%
X36700000Y-112840000D03*
%TD*%
D14*
%TO.N,Net-(R10-Pad2)*%
%TO.C,U6*%
X49300000Y-72440000D03*
D15*
%TO.N,Net-(Q4-C)*%
X49300000Y-69900000D03*
%TO.N,N/C*%
X49300000Y-67360000D03*
%TO.N,/Line-R5*%
X41680000Y-67360000D03*
%TO.N,/Line-NC4*%
X41680000Y-69900000D03*
%TO.N,/Line-R4*%
X41680000Y-72440000D03*
%TD*%
D12*
%TO.N,GND*%
%TO.C,Q6*%
X56730000Y-94310000D03*
D11*
%TO.N,Net-(Q6-B)*%
X56730000Y-93040000D03*
%TO.N,Net-(Q6-C)*%
X56730000Y-91770000D03*
%TD*%
D10*
%TO.N,Net-(R35-Pad1)*%
%TO.C,R35*%
X92620000Y-69940000D03*
%TO.N,+5V*%
X82460000Y-69940000D03*
%TD*%
D14*
%TO.N,Net-(R9-Pad2)*%
%TO.C,U5*%
X49340000Y-60940000D03*
D15*
%TO.N,Net-(Q3-C)*%
X49340000Y-58400000D03*
%TO.N,N/C*%
X49340000Y-55860000D03*
%TO.N,/Line-R4*%
X41720000Y-55860000D03*
%TO.N,/Line-NC3*%
X41720000Y-58400000D03*
%TO.N,/Line-R3*%
X41720000Y-60940000D03*
%TD*%
D25*
%TO.N,/Line-R-Out*%
%TO.C,J7*%
X104540000Y-47690000D03*
%TD*%
D12*
%TO.N,GND*%
%TO.C,Q4*%
X56840000Y-71380000D03*
D11*
%TO.N,Net-(Q4-B)*%
X56840000Y-70110000D03*
%TO.N,Net-(Q4-C)*%
X56840000Y-68840000D03*
%TD*%
D12*
%TO.N,GND*%
%TO.C,Q8*%
X56730000Y-172910000D03*
D11*
%TO.N,Net-(Q8-B)*%
X56730000Y-171640000D03*
%TO.N,Net-(Q8-C)*%
X56730000Y-170370000D03*
%TD*%
D10*
%TO.N,/Line-R2*%
%TO.C,R6*%
X26560000Y-45130000D03*
%TO.N,/Line-R3*%
X36720000Y-45130000D03*
%TD*%
%TO.N,Net-(Q13-B)*%
%TO.C,R24*%
X63390000Y-112940000D03*
%TO.N,/Bit7*%
X73550000Y-112940000D03*
%TD*%
D14*
%TO.N,Net-(R1-Pad2)*%
%TO.C,U3*%
X49350000Y-38940000D03*
D15*
%TO.N,Net-(Q1-C)*%
X49350000Y-36400000D03*
%TO.N,N/C*%
X49350000Y-33860000D03*
%TO.N,/Line-R2*%
X41730000Y-33860000D03*
%TO.N,/Line-NC1*%
X41730000Y-36400000D03*
%TO.N,/Line-R1*%
X41730000Y-38940000D03*
%TD*%
D10*
%TO.N,+5V*%
%TO.C,R30*%
X73520000Y-162840000D03*
%TO.N,Net-(R30-Pad2)*%
X63360000Y-162840000D03*
%TD*%
%TO.N,/MaxResBit*%
%TO.C,R4*%
X88300000Y-65400000D03*
%TO.N,Net-(Q15-B)*%
X88300000Y-55240000D03*
%TD*%
%TO.N,/Line-R-In*%
%TO.C,R41*%
X26450000Y-168740000D03*
%TO.N,/Line-R13*%
X36610000Y-168740000D03*
%TD*%
D20*
%TO.N,+5V*%
%TO.C,C6*%
X90390000Y-120890000D03*
%TO.N,GND*%
X95390000Y-120890000D03*
%TD*%
D14*
%TO.N,Net-(R34-Pad2)*%
%TO.C,U15*%
X49300000Y-118040000D03*
D15*
%TO.N,Net-(Q13-C)*%
X49300000Y-115500000D03*
%TO.N,N/C*%
X49300000Y-112960000D03*
%TO.N,/Line-R8*%
X41680000Y-112960000D03*
%TO.N,/Line-NC8*%
X41680000Y-115500000D03*
%TO.N,/Line-R9*%
X41680000Y-118040000D03*
%TD*%
D10*
%TO.N,/Line-R13*%
%TO.C,R40*%
X26480000Y-157440000D03*
%TO.N,/Line-R12*%
X36640000Y-157440000D03*
%TD*%
%TO.N,+5V*%
%TO.C,R17*%
X73520000Y-84140000D03*
%TO.N,Net-(R17-Pad2)*%
X63360000Y-84140000D03*
%TD*%
%TO.N,/Line-R3*%
%TO.C,R11*%
X26550000Y-55740000D03*
%TO.N,/Line-R4*%
X36710000Y-55740000D03*
%TD*%
D27*
%TO.N,GND*%
X89500000Y-86500000D03*
%TO.N,Net-(Q14-B)*%
X95200000Y-71500000D03*
%TO.N,/MinResBit*%
X101200000Y-85640000D03*
%TO.N,/MaxResBit*%
X102600000Y-84800000D03*
%TO.N,/Bit0*%
X103400000Y-81600000D03*
%TO.N,/Bit3*%
X95485000Y-80200000D03*
%TO.N,/Bit6*%
X90600000Y-80200000D03*
%TO.N,/Bit7*%
X80700000Y-84000000D03*
%TO.N,/rotary-encoder-output*%
X101400000Y-88700000D03*
X89500000Y-133600000D03*
%TO.N,/FootPedalPotOutput*%
X90700000Y-90300000D03*
X90050000Y-136450000D03*
%TO.N,GND*%
X88100000Y-141900000D03*
%TO.N,Net-(J1-~{RESET})*%
X111200000Y-76800000D03*
%TO.N,+3.3V*%
X88000000Y-85640000D03*
X95600000Y-98200000D03*
X93700000Y-101700000D03*
X95200000Y-100600000D03*
X95000000Y-96900000D03*
%TO.N,GND*%
X90000000Y-115700000D03*
%TO.N,+5V*%
X88800000Y-114400000D03*
%TO.N,GND*%
X91100000Y-115700000D03*
%TO.N,+5V*%
X89500000Y-123200000D03*
X85800000Y-124300000D03*
X82400000Y-117600000D03*
X90900000Y-114500000D03*
X88200000Y-115600000D03*
X88800000Y-119800000D03*
X83700000Y-122800000D03*
X90600000Y-125000000D03*
X87400000Y-122900000D03*
X91800000Y-118200000D03*
X90400000Y-117600000D03*
X88600000Y-117400000D03*
%TO.N,GND*%
X106900000Y-71600000D03*
X98600000Y-72900000D03*
%TD*%
D28*
%TO.N,+3.3V*%
X109200000Y-133870000D02*
X109200000Y-130600000D01*
X101260000Y-141810000D02*
X109200000Y-133870000D01*
X101260000Y-147310000D02*
X101260000Y-141810000D01*
%TO.N,+5V*%
X77340000Y-95540000D02*
X77500000Y-95700000D01*
X73490000Y-95540000D02*
X77340000Y-95540000D01*
%TO.N,+3.3V*%
X98600000Y-103100000D02*
X95100000Y-99600000D01*
X109200000Y-131300000D02*
X109200000Y-108400000D01*
X103900000Y-103100000D02*
X98600000Y-103100000D01*
X109200000Y-108400000D02*
X103900000Y-103100000D01*
X98720000Y-160850000D02*
X95350000Y-160850000D01*
X101260000Y-158310000D02*
X98720000Y-160850000D01*
X101260000Y-147310000D02*
X101260000Y-158310000D01*
X101050000Y-147100000D02*
X101260000Y-147310000D01*
X95350000Y-147100000D02*
X101050000Y-147100000D01*
%TO.N,+5V*%
X73490000Y-174140000D02*
X77460000Y-174140000D01*
X73520000Y-162840000D02*
X77560000Y-162840000D01*
X73490000Y-151570000D02*
X77470000Y-151570000D01*
X73490000Y-140740000D02*
X76960000Y-140740000D01*
X76860000Y-129640000D02*
X77300000Y-129200000D01*
X73490000Y-129640000D02*
X76860000Y-129640000D01*
X73550000Y-118240000D02*
X76860000Y-118240000D01*
X77230000Y-107030000D02*
X77300000Y-107100000D01*
X73500000Y-107030000D02*
X77230000Y-107030000D01*
X73520000Y-84140000D02*
X77640000Y-84140000D01*
X77260000Y-72640000D02*
X77300000Y-72600000D01*
X73550000Y-72640000D02*
X77260000Y-72640000D01*
X78460000Y-69940000D02*
X78400000Y-70000000D01*
X82460000Y-69940000D02*
X78460000Y-69940000D01*
X83000000Y-65400000D02*
X79000000Y-65400000D01*
X76560000Y-61140000D02*
X76700000Y-61000000D01*
X73590000Y-61140000D02*
X76560000Y-61140000D01*
X73600000Y-50530000D02*
X76970000Y-50530000D01*
X77040000Y-39140000D02*
X77100000Y-39200000D01*
X73600000Y-39140000D02*
X77040000Y-39140000D01*
%TD*%
%TA.AperFunction,Conductor*%
%TO.N,+5V*%
G36*
X78102527Y-36819627D02*
G01*
X78148843Y-36848843D01*
X79263681Y-37963681D01*
X79297166Y-38025004D01*
X79300000Y-38051362D01*
X79300000Y-96899988D01*
X79700000Y-107799999D01*
X79700000Y-107800001D01*
X81199999Y-117009999D01*
X81200000Y-117010000D01*
X81709815Y-117092703D01*
X82240000Y-121560000D01*
X83200000Y-124500000D01*
X87700000Y-125500000D01*
X90900000Y-127400000D01*
X92100000Y-125400000D01*
X92500000Y-123700000D01*
X92392476Y-123202030D01*
X94077500Y-125615000D01*
X94077502Y-125615002D01*
X94077503Y-125615003D01*
X96577112Y-127879267D01*
X96610490Y-127929046D01*
X97383727Y-130069944D01*
X97387986Y-130139683D01*
X97381756Y-130159292D01*
X96523246Y-132243563D01*
X96479512Y-132298053D01*
X96441097Y-132316000D01*
X95043466Y-132695663D01*
X95010960Y-132700000D01*
X95010508Y-132700000D01*
X94989639Y-132698231D01*
X90900000Y-132000000D01*
X86200000Y-133500000D01*
X83000000Y-137100000D01*
X82999999Y-137100001D01*
X82999999Y-137100003D01*
X82500285Y-159587145D01*
X82497085Y-159612514D01*
X79107241Y-174168904D01*
X79078640Y-174223732D01*
X78233453Y-175162829D01*
X78173975Y-175199490D01*
X78150120Y-175203562D01*
X76887846Y-175293725D01*
X76819574Y-175278867D01*
X76770173Y-175229457D01*
X76765139Y-175219123D01*
X76756896Y-175200000D01*
X76605270Y-174848227D01*
X76310128Y-174163496D01*
X76300000Y-174114413D01*
X76300000Y-114000164D01*
X76283532Y-107800001D01*
X76100033Y-38712440D01*
X76102441Y-38687794D01*
X76384373Y-37278131D01*
X76416822Y-37216258D01*
X76477560Y-37181750D01*
X78032764Y-36815820D01*
X78102527Y-36819627D01*
G37*
%TD.AperFunction*%
%TD*%
%TA.AperFunction,Conductor*%
%TO.N,+5V*%
G36*
X91825974Y-113811988D02*
G01*
X93027963Y-114366752D01*
X93080583Y-114412718D01*
X93100000Y-114479339D01*
X93100000Y-114876000D01*
X93080315Y-114943039D01*
X93027511Y-114988794D01*
X92976000Y-115000000D01*
X91526524Y-115000000D01*
X91479072Y-114990561D01*
X91333501Y-114930264D01*
X91333489Y-114930261D01*
X91178845Y-114899500D01*
X91178842Y-114899500D01*
X91021158Y-114899500D01*
X91021155Y-114899500D01*
X90866510Y-114930261D01*
X90866498Y-114930264D01*
X90720928Y-114990561D01*
X90712751Y-114992187D01*
X90708411Y-114994977D01*
X90673476Y-115000000D01*
X90426524Y-115000000D01*
X90379072Y-114990561D01*
X90233501Y-114930264D01*
X90233489Y-114930261D01*
X90078845Y-114899500D01*
X90078842Y-114899500D01*
X89921158Y-114899500D01*
X89921155Y-114899500D01*
X89766510Y-114930261D01*
X89766498Y-114930264D01*
X89620928Y-114990561D01*
X89573476Y-115000000D01*
X89200000Y-115000000D01*
X89200000Y-115618644D01*
X89199500Y-115621158D01*
X89199500Y-115778842D01*
X89200000Y-115781355D01*
X89200000Y-116300000D01*
X89419486Y-116300000D01*
X89486525Y-116319685D01*
X89488377Y-116320898D01*
X89620814Y-116409390D01*
X89620827Y-116409397D01*
X89766498Y-116469735D01*
X89766503Y-116469737D01*
X89921153Y-116500499D01*
X89921156Y-116500500D01*
X89921158Y-116500500D01*
X90078844Y-116500500D01*
X90078845Y-116500499D01*
X90233497Y-116469737D01*
X90379179Y-116409394D01*
X90481111Y-116341284D01*
X90547786Y-116320408D01*
X90615166Y-116338892D01*
X90618847Y-116341257D01*
X90720821Y-116409394D01*
X90720823Y-116409395D01*
X90720827Y-116409397D01*
X90866498Y-116469735D01*
X90866503Y-116469737D01*
X91021153Y-116500499D01*
X91021156Y-116500500D01*
X91021158Y-116500500D01*
X91178844Y-116500500D01*
X91178845Y-116500499D01*
X91333497Y-116469737D01*
X91479179Y-116409394D01*
X91584693Y-116338892D01*
X91611623Y-116320898D01*
X91678300Y-116300020D01*
X91680514Y-116300000D01*
X92976000Y-116300000D01*
X93043039Y-116319685D01*
X93088794Y-116372489D01*
X93100000Y-116424000D01*
X93100000Y-116873259D01*
X93088979Y-116924364D01*
X93012307Y-117093865D01*
X91700000Y-119995000D01*
X92392475Y-123202029D01*
X92392476Y-123202030D01*
X92500000Y-123700000D01*
X92100000Y-125400000D01*
X90900000Y-127400000D01*
X87700000Y-125500000D01*
X83200000Y-124500000D01*
X82240000Y-121560000D01*
X81709815Y-117092702D01*
X81735360Y-117068225D01*
X81774771Y-117024948D01*
X81836414Y-117006917D01*
X87010000Y-116890000D01*
X87972575Y-113963380D01*
X88012218Y-113905850D01*
X88076675Y-113878883D01*
X88087744Y-113878152D01*
X91771401Y-113800602D01*
X91825974Y-113811988D01*
G37*
%TD.AperFunction*%
%TD*%
%TA.AperFunction,Conductor*%
%TO.N,+3.3V*%
G36*
X86541646Y-77713882D02*
G01*
X89124251Y-78574750D01*
X89181626Y-78614624D01*
X89208334Y-78679188D01*
X89208358Y-78679406D01*
X89399035Y-80490839D01*
X89399599Y-80509206D01*
X89300328Y-82792451D01*
X89298758Y-82807450D01*
X88999997Y-84600013D01*
X88763496Y-86176683D01*
X88755430Y-86205739D01*
X88730264Y-86266497D01*
X88730261Y-86266505D01*
X88699500Y-86421153D01*
X88699500Y-86421158D01*
X88699500Y-86578842D01*
X88701593Y-86589368D01*
X88700000Y-86600000D01*
X88711663Y-86639992D01*
X88712784Y-86645625D01*
X88712822Y-86645824D01*
X88730261Y-86733490D01*
X88730262Y-86733492D01*
X88730263Y-86733497D01*
X88756996Y-86798037D01*
X88761471Y-86810760D01*
X89399999Y-88999999D01*
X89400000Y-89000000D01*
X89956516Y-89863559D01*
X89976285Y-89930574D01*
X89966846Y-89978182D01*
X89930264Y-90066498D01*
X89930261Y-90066510D01*
X89899500Y-90221153D01*
X89899500Y-90378846D01*
X89930261Y-90533489D01*
X89930264Y-90533501D01*
X89990602Y-90679172D01*
X89990609Y-90679185D01*
X90078210Y-90810288D01*
X90078213Y-90810292D01*
X90189707Y-90921786D01*
X90189711Y-90921789D01*
X90320814Y-91009390D01*
X90320827Y-91009397D01*
X90466498Y-91069735D01*
X90466503Y-91069737D01*
X90621153Y-91100499D01*
X90621156Y-91100500D01*
X90686048Y-91100500D01*
X90753087Y-91120185D01*
X90790278Y-91157328D01*
X92300000Y-93500000D01*
X94556177Y-94284757D01*
X94613028Y-94325373D01*
X94623053Y-94340268D01*
X96127238Y-96967709D01*
X96142856Y-97015524D01*
X96590965Y-101019276D01*
X96578859Y-101088089D01*
X96531472Y-101139433D01*
X96529606Y-101140529D01*
X93360782Y-102965004D01*
X93292862Y-102981395D01*
X93238690Y-102965938D01*
X90653254Y-101529584D01*
X90604211Y-101479820D01*
X90590873Y-101439765D01*
X90100681Y-98204495D01*
X90099651Y-98195464D01*
X89900000Y-95600000D01*
X87799430Y-92621876D01*
X87778969Y-92573705D01*
X87507984Y-91157329D01*
X87149000Y-89281000D01*
X87148999Y-89280999D01*
X84523583Y-87934182D01*
X84472919Y-87886068D01*
X84456196Y-87821927D01*
X84473092Y-86733490D01*
X84499851Y-85009577D01*
X84501619Y-84990554D01*
X84568571Y-84600000D01*
X85687973Y-78070155D01*
X85718701Y-78007409D01*
X85766645Y-77975007D01*
X86458896Y-77715413D01*
X86528578Y-77710306D01*
X86541646Y-77713882D01*
G37*
%TD.AperFunction*%
%TD*%
M02*
