%TF.GenerationSoftware,KiCad,Pcbnew,9.0.7*%
%TF.CreationDate,2026-01-29T13:55:36-08:00*%
%TF.ProjectId,regulator-PCB,72656775-6c61-4746-9f72-2d5043422e6b,rev?*%
%TF.SameCoordinates,Original*%
%TF.FileFunction,Copper,L1,Top*%
%TF.FilePolarity,Positive*%
%FSLAX46Y46*%
G04 Gerber Fmt 4.6, Leading zero omitted, Abs format (unit mm)*
G04 Created by KiCad (PCBNEW 9.0.7) date 2026-01-29 13:55:36*
%MOMM*%
%LPD*%
G01*
G04 APERTURE LIST*
G04 Aperture macros list*
%AMRoundRect*
0 Rectangle with rounded corners*
0 $1 Rounding radius*
0 $2 $3 $4 $5 $6 $7 $8 $9 X,Y pos of 4 corners*
0 Add a 4 corners polygon primitive as box body*
4,1,4,$2,$3,$4,$5,$6,$7,$8,$9,$2,$3,0*
0 Add four circle primitives for the rounded corners*
1,1,$1+$1,$2,$3*
1,1,$1+$1,$4,$5*
1,1,$1+$1,$6,$7*
1,1,$1+$1,$8,$9*
0 Add four rect primitives between the rounded corners*
20,1,$1+$1,$2,$3,$4,$5,0*
20,1,$1+$1,$4,$5,$6,$7,0*
20,1,$1+$1,$6,$7,$8,$9,0*
20,1,$1+$1,$8,$9,$2,$3,0*%
G04 Aperture macros list end*
%TA.AperFunction,ComponentPad*%
%ADD10C,1.600000*%
%TD*%
%TA.AperFunction,ComponentPad*%
%ADD11O,1.500000X1.050000*%
%TD*%
%TA.AperFunction,ComponentPad*%
%ADD12R,1.500000X1.050000*%
%TD*%
%TA.AperFunction,SMDPad,CuDef*%
%ADD13RoundRect,0.125000X-0.125000X-0.625000X0.125000X-0.625000X0.125000X0.625000X-0.125000X0.625000X0*%
%TD*%
%TA.AperFunction,SMDPad,CuDef*%
%ADD14RoundRect,0.125000X-0.625000X-0.125000X0.625000X-0.125000X0.625000X0.125000X-0.625000X0.125000X0*%
%TD*%
%TA.AperFunction,ComponentPad*%
%ADD15RoundRect,0.250000X1.050000X-1.050000X1.050000X1.050000X-1.050000X1.050000X-1.050000X-1.050000X0*%
%TD*%
%TA.AperFunction,ComponentPad*%
%ADD16R,1.400000X1.400000*%
%TD*%
%TA.AperFunction,ComponentPad*%
%ADD17C,1.400000*%
%TD*%
%TA.AperFunction,ComponentPad*%
%ADD18R,1.270000X1.270000*%
%TD*%
%TA.AperFunction,ComponentPad*%
%ADD19C,1.270000*%
%TD*%
%TA.AperFunction,ComponentPad*%
%ADD20C,2.000000*%
%TD*%
%TA.AperFunction,ComponentPad*%
%ADD21RoundRect,0.250000X0.550000X0.550000X-0.550000X0.550000X-0.550000X-0.550000X0.550000X-0.550000X0*%
%TD*%
%TA.AperFunction,SMDPad,CuDef*%
%ADD22R,0.800000X0.800000*%
%TD*%
%TA.AperFunction,ComponentPad*%
%ADD23C,1.150000*%
%TD*%
%TA.AperFunction,ComponentPad*%
%ADD24R,1.050000X1.500000*%
%TD*%
%TA.AperFunction,ComponentPad*%
%ADD25O,1.050000X1.500000*%
%TD*%
%TA.AperFunction,ComponentPad*%
%ADD26O,1.800000X3.600000*%
%TD*%
%TA.AperFunction,ComponentPad*%
%ADD27O,3.600000X1.800000*%
%TD*%
%TA.AperFunction,ConnectorPad*%
%ADD28C,0.787400*%
%TD*%
%TA.AperFunction,ComponentPad*%
%ADD29RoundRect,0.250000X1.050000X1.050000X-1.050000X1.050000X-1.050000X-1.050000X1.050000X-1.050000X0*%
%TD*%
%TA.AperFunction,ComponentPad*%
%ADD30C,2.600000*%
%TD*%
%TA.AperFunction,SMDPad,CuDef*%
%ADD31RoundRect,0.150000X-0.512500X-0.150000X0.512500X-0.150000X0.512500X0.150000X-0.512500X0.150000X0*%
%TD*%
%TA.AperFunction,ViaPad*%
%ADD32C,0.600000*%
%TD*%
%TA.AperFunction,Conductor*%
%ADD33C,0.300000*%
%TD*%
%TA.AperFunction,Conductor*%
%ADD34C,0.500000*%
%TD*%
%TA.AperFunction,Conductor*%
%ADD35C,0.400000*%
%TD*%
%TA.AperFunction,Conductor*%
%ADD36C,0.250000*%
%TD*%
%TA.AperFunction,Conductor*%
%ADD37C,0.600000*%
%TD*%
G04 APERTURE END LIST*
D10*
%TO.P,R2,2*%
%TO.N,Net-(Q14-B)*%
X92620000Y-75240000D03*
%TO.P,R2,1*%
%TO.N,/MinResBit*%
X82460000Y-75240000D03*
%TD*%
D11*
%TO.P,Q14,3,C*%
%TO.N,Net-(Q14-C)*%
X99600000Y-66900000D03*
%TO.P,Q14,2,B*%
%TO.N,Net-(Q14-B)*%
X99600000Y-68170000D03*
D12*
%TO.P,Q14,1,E*%
%TO.N,GND*%
X99600000Y-69440000D03*
%TD*%
D13*
%TO.P,U1,32,PB8*%
%TO.N,/Bit7*%
X92285000Y-81865000D03*
%TO.P,U1,31,PB7*%
%TO.N,/Bit6*%
X93085000Y-81865000D03*
%TO.P,U1,30,PB6*%
%TO.N,/Bit5*%
X93885000Y-81865000D03*
%TO.P,U1,29,PB5*%
%TO.N,/Bit4*%
X94685000Y-81865000D03*
%TO.P,U1,28,PB4*%
%TO.N,/Bit3*%
X95485000Y-81865000D03*
%TO.P,U1,27,PB3*%
%TO.N,/Bit2*%
X96285000Y-81865000D03*
%TO.P,U1,26,PA15*%
%TO.N,/Bit1*%
X97085000Y-81865000D03*
%TO.P,U1,25,PA14-BOOT0*%
%TO.N,Net-(D1-A{slash}K_1)*%
X97885000Y-81865000D03*
D14*
%TO.P,U1,24,PA13*%
%TO.N,Net-(D1-A{slash}K_2)*%
X99260000Y-83240000D03*
%TO.P,U1,23,PA12[PA10]*%
%TO.N,/Bit0*%
X99260000Y-84040000D03*
%TO.P,U1,22,PA11[PA9]*%
%TO.N,/MaxResBit*%
X99260000Y-84840000D03*
%TO.P,U1,21,PA10*%
%TO.N,/MinResBit*%
X99260000Y-85640000D03*
%TO.P,U1,20,PC6*%
%TO.N,unconnected-(U1-PC6-Pad20)*%
X99260000Y-86440000D03*
%TO.P,U1,19,PA9*%
%TO.N,unconnected-(U1-PA9-Pad19)*%
X99260000Y-87240000D03*
%TO.P,U1,18,PA8*%
%TO.N,/rotary-encoder-output*%
X99260000Y-88040000D03*
%TO.P,U1,17,PB2*%
%TO.N,unconnected-(U1-PB2-Pad17)*%
X99260000Y-88840000D03*
D13*
%TO.P,U1,16,PB1*%
%TO.N,unconnected-(U1-PB1-Pad16)*%
X97885000Y-90215000D03*
%TO.P,U1,15,PB0*%
%TO.N,unconnected-(U1-PB0-Pad15)*%
X97085000Y-90215000D03*
%TO.P,U1,14,PA7*%
%TO.N,unconnected-(U1-PA7-Pad14)*%
X96285000Y-90215000D03*
%TO.P,U1,13,PA6*%
%TO.N,/Bit12*%
X95485000Y-90215000D03*
%TO.P,U1,12,PA5*%
%TO.N,/Bit11*%
X94685000Y-90215000D03*
%TO.P,U1,11,PA4*%
%TO.N,/Bit10*%
X93885000Y-90215000D03*
%TO.P,U1,10,PA3*%
%TO.N,/Bit9*%
X93085000Y-90215000D03*
%TO.P,U1,9,PA2*%
%TO.N,/Bit8*%
X92285000Y-90215000D03*
D14*
%TO.P,U1,8,PA1*%
%TO.N,/FootPedalPotOutput*%
X90910000Y-88840000D03*
%TO.P,U1,7,PA0*%
%TO.N,unconnected-(U1-PA0-Pad7)*%
X90910000Y-88040000D03*
%TO.P,U1,6,PF2-NRST*%
%TO.N,Net-(J1-~{RESET})*%
X90910000Y-87240000D03*
%TO.P,U1,5,VSS/VSSA*%
%TO.N,GND*%
X90910000Y-86440000D03*
%TO.P,U1,4,VDD/VDDA*%
%TO.N,+3.3V*%
X90910000Y-85640000D03*
%TO.P,U1,3,PC15-OSCX_OUT*%
%TO.N,unconnected-(U1-PC15-OSCX_OUT-Pad3)*%
X90910000Y-84840000D03*
%TO.P,U1,2,PC14-OSCX_IN*%
%TO.N,unconnected-(U1-PC14-OSCX_IN-Pad2)*%
X90910000Y-84040000D03*
%TO.P,U1,1,PB9*%
%TO.N,unconnected-(U1-PB9-Pad1)*%
X90910000Y-83240000D03*
%TD*%
D10*
%TO.P,R19,1*%
%TO.N,+5V*%
X73500000Y-107030000D03*
%TO.P,R19,2*%
%TO.N,Net-(R19-Pad2)*%
X63340000Y-107030000D03*
%TD*%
D15*
%TO.P,J8,1,Pin_1*%
%TO.N,GND*%
X95400000Y-174100000D03*
%TD*%
D10*
%TO.P,R27,1*%
%TO.N,Net-(Q10-B)*%
X63330000Y-146270000D03*
%TO.P,R27,2*%
%TO.N,/Bit10*%
X73490000Y-146270000D03*
%TD*%
D12*
%TO.P,Q3,1,E*%
%TO.N,GND*%
X56830000Y-59910000D03*
D11*
%TO.P,Q3,2,B*%
%TO.N,Net-(Q3-B)*%
X56830000Y-58640000D03*
%TO.P,Q3,3,C*%
%TO.N,Net-(Q3-C)*%
X56830000Y-57370000D03*
%TD*%
D10*
%TO.P,R37,1*%
%TO.N,/Line-R10*%
X26440000Y-124240000D03*
%TO.P,R37,2*%
%TO.N,/Line-R9*%
X36600000Y-124240000D03*
%TD*%
D12*
%TO.P,Q11,1,E*%
%TO.N,GND*%
X56730000Y-139510000D03*
D11*
%TO.P,Q11,2,B*%
%TO.N,Net-(Q11-B)*%
X56730000Y-138240000D03*
%TO.P,Q11,3,C*%
%TO.N,Net-(Q11-C)*%
X56730000Y-136970000D03*
%TD*%
D10*
%TO.P,R26,1*%
%TO.N,Net-(Q11-B)*%
X63330000Y-135440000D03*
%TO.P,R26,2*%
%TO.N,/Bit9*%
X73490000Y-135440000D03*
%TD*%
D12*
%TO.P,Q7,1,E*%
%TO.N,GND*%
X56740000Y-105800000D03*
D11*
%TO.P,Q7,2,B*%
%TO.N,Net-(Q7-B)*%
X56740000Y-104530000D03*
%TO.P,Q7,3,C*%
%TO.N,Net-(Q7-C)*%
X56740000Y-103260000D03*
%TD*%
D10*
%TO.P,R28,1*%
%TO.N,Net-(Q9-B)*%
X63360000Y-157540000D03*
%TO.P,R28,2*%
%TO.N,/Bit11*%
X73520000Y-157540000D03*
%TD*%
%TO.P,R3,1*%
%TO.N,/Line-R1*%
X26560000Y-33740000D03*
%TO.P,R3,2*%
%TO.N,/Line-R2*%
X36720000Y-33740000D03*
%TD*%
D15*
%TO.P,J10,1,Pin_1*%
%TO.N,+3.3V*%
X95350000Y-160850000D03*
%TD*%
D16*
%TO.P,U7,1*%
%TO.N,Net-(R17-Pad2)*%
X49270000Y-83940000D03*
D17*
%TO.P,U7,2*%
%TO.N,Net-(Q5-C)*%
X49270000Y-81400000D03*
%TO.P,U7,3*%
%TO.N,N/C*%
X49270000Y-78860000D03*
%TO.P,U7,4*%
%TO.N,/Line-R6*%
X41650000Y-78860000D03*
%TO.P,U7,5*%
%TO.N,/Line-NC5*%
X41650000Y-81400000D03*
%TO.P,U7,6*%
%TO.N,/Line-R5*%
X41650000Y-83940000D03*
%TD*%
D10*
%TO.P,R31,1*%
%TO.N,+5V*%
X73490000Y-151570000D03*
%TO.P,R31,2*%
%TO.N,Net-(R31-Pad2)*%
X63330000Y-151570000D03*
%TD*%
%TO.P,R8,1*%
%TO.N,Net-(Q2-B)*%
X63440000Y-45230000D03*
%TO.P,R8,2*%
%TO.N,/Bit1*%
X73600000Y-45230000D03*
%TD*%
%TO.P,R32,1*%
%TO.N,+5V*%
X73490000Y-140740000D03*
%TO.P,R32,2*%
%TO.N,Net-(R32-Pad2)*%
X63330000Y-140740000D03*
%TD*%
D18*
%TO.P,C3,1*%
%TO.N,Net-(J1-~{RESET})*%
X85625000Y-91440000D03*
D19*
%TO.P,C3,2*%
%TO.N,GND*%
X83085000Y-91440000D03*
%TD*%
D12*
%TO.P,Q13,1,E*%
%TO.N,GND*%
X56790000Y-117010000D03*
D11*
%TO.P,Q13,2,B*%
%TO.N,Net-(Q13-B)*%
X56790000Y-115740000D03*
%TO.P,Q13,3,C*%
%TO.N,Net-(Q13-C)*%
X56790000Y-114470000D03*
%TD*%
D16*
%TO.P,U9,1*%
%TO.N,Net-(R19-Pad2)*%
X49250000Y-106830000D03*
D17*
%TO.P,U9,2*%
%TO.N,Net-(Q7-C)*%
X49250000Y-104290000D03*
%TO.P,U9,3*%
%TO.N,N/C*%
X49250000Y-101750000D03*
%TO.P,U9,4*%
%TO.N,/Line-R8*%
X41630000Y-101750000D03*
%TO.P,U9,5*%
%TO.N,/Line-NC7*%
X41630000Y-104290000D03*
%TO.P,U9,6*%
%TO.N,/Line-R7*%
X41630000Y-106830000D03*
%TD*%
D10*
%TO.P,R43,1*%
%TO.N,Net-(Q8-B)*%
X63330000Y-168840000D03*
%TO.P,R43,2*%
%TO.N,/Bit12*%
X73490000Y-168840000D03*
%TD*%
%TO.P,R13,1*%
%TO.N,Net-(Q3-B)*%
X63430000Y-55840000D03*
%TO.P,R13,2*%
%TO.N,/Bit2*%
X73590000Y-55840000D03*
%TD*%
%TO.P,R42,1*%
%TO.N,Net-(R42-Pad1)*%
X83000000Y-55240000D03*
%TO.P,R42,2*%
%TO.N,+5V*%
X83000000Y-65400000D03*
%TD*%
%TO.P,R34,1*%
%TO.N,+5V*%
X73550000Y-118240000D03*
%TO.P,R34,2*%
%TO.N,Net-(R34-Pad2)*%
X63390000Y-118240000D03*
%TD*%
D20*
%TO.P,C4,1*%
%TO.N,Net-(U2-BP)*%
X101640000Y-116640000D03*
%TO.P,C4,2*%
%TO.N,GND*%
X101640000Y-106640000D03*
%TD*%
D10*
%TO.P,R39,1*%
%TO.N,/Line-R12*%
X26450000Y-146170000D03*
%TO.P,R39,2*%
%TO.N,/Line-R11*%
X36610000Y-146170000D03*
%TD*%
D16*
%TO.P,U10,1*%
%TO.N,Net-(R29-Pad2)*%
X49240000Y-173940000D03*
D17*
%TO.P,U10,2*%
%TO.N,Net-(Q8-C)*%
X49240000Y-171400000D03*
%TO.P,U10,3*%
%TO.N,N/C*%
X49240000Y-168860000D03*
%TO.P,U10,4*%
%TO.N,/Line-R13*%
X41620000Y-168860000D03*
%TO.P,U10,5*%
%TO.N,/Line-NC12*%
X41620000Y-171400000D03*
%TO.P,U10,6*%
%TO.N,/Line-R-In*%
X41620000Y-173940000D03*
%TD*%
D21*
%TO.P,C5,1*%
%TO.N,+3.3V*%
X96390000Y-108890000D03*
D10*
%TO.P,C5,2*%
%TO.N,GND*%
X91390000Y-108890000D03*
%TD*%
D22*
%TO.P,D1,1,A/K_1*%
%TO.N,Net-(D1-A{slash}K_1)*%
X97490000Y-76860000D03*
%TO.P,D1,2,A/K_2*%
%TO.N,Net-(D1-A{slash}K_2)*%
X99390000Y-76860000D03*
%TO.P,D1,3,COM_A*%
%TO.N,GND*%
X98440000Y-74840000D03*
%TD*%
D10*
%TO.P,R15,1*%
%TO.N,Net-(Q5-B)*%
X63360000Y-78840000D03*
%TO.P,R15,2*%
%TO.N,/Bit4*%
X73520000Y-78840000D03*
%TD*%
D16*
%TO.P,U12,1*%
%TO.N,Net-(R31-Pad2)*%
X49240000Y-151370000D03*
D17*
%TO.P,U12,2*%
%TO.N,Net-(Q10-C)*%
X49240000Y-148830000D03*
%TO.P,U12,3*%
%TO.N,N/C*%
X49240000Y-146290000D03*
%TO.P,U12,4*%
%TO.N,/Line-R11*%
X41620000Y-146290000D03*
%TO.P,U12,5*%
%TO.N,/Line-NC10*%
X41620000Y-148830000D03*
%TO.P,U12,6*%
%TO.N,/Line-R12*%
X41620000Y-151370000D03*
%TD*%
D12*
%TO.P,Q2,1,E*%
%TO.N,GND*%
X56840000Y-49280000D03*
D11*
%TO.P,Q2,2,B*%
%TO.N,Net-(Q2-B)*%
X56840000Y-48010000D03*
%TO.P,Q2,3,C*%
%TO.N,Net-(Q2-C)*%
X56840000Y-46740000D03*
%TD*%
D12*
%TO.P,Q10,1,E*%
%TO.N,GND*%
X56730000Y-150340000D03*
D11*
%TO.P,Q10,2,B*%
%TO.N,Net-(Q10-B)*%
X56730000Y-149070000D03*
%TO.P,Q10,3,C*%
%TO.N,Net-(Q10-C)*%
X56730000Y-147800000D03*
%TD*%
D10*
%TO.P,R1,1*%
%TO.N,+5V*%
X73600000Y-39140000D03*
%TO.P,R1,2*%
%TO.N,Net-(R1-Pad2)*%
X63440000Y-39140000D03*
%TD*%
%TO.P,R16,1*%
%TO.N,/Line-R5*%
X26480000Y-78740000D03*
%TO.P,R16,2*%
%TO.N,/Line-R6*%
X36640000Y-78740000D03*
%TD*%
D15*
%TO.P,J9,1,Pin_1*%
%TO.N,/rotary-encoder-output*%
X95400000Y-167350000D03*
%TD*%
D10*
%TO.P,R14,1*%
%TO.N,Net-(Q4-B)*%
X63390000Y-67340000D03*
%TO.P,R14,2*%
%TO.N,/Bit3*%
X73550000Y-67340000D03*
%TD*%
%TO.P,R20,1*%
%TO.N,/Line-R6*%
X26450000Y-90140000D03*
%TO.P,R20,2*%
%TO.N,/Line-R7*%
X36610000Y-90140000D03*
%TD*%
D12*
%TO.P,Q5,1,E*%
%TO.N,GND*%
X56740000Y-82880000D03*
D11*
%TO.P,Q5,2,B*%
%TO.N,Net-(Q5-B)*%
X56740000Y-81610000D03*
%TO.P,Q5,3,C*%
%TO.N,Net-(Q5-C)*%
X56740000Y-80340000D03*
%TD*%
D10*
%TO.P,R18,1*%
%TO.N,+5V*%
X73490000Y-95540000D03*
%TO.P,R18,2*%
%TO.N,Net-(R18-Pad2)*%
X63330000Y-95540000D03*
%TD*%
D23*
%TO.P,C2,1*%
%TO.N,+3.3V*%
X87000000Y-80800000D03*
%TO.P,C2,2*%
%TO.N,GND*%
X82000000Y-80800000D03*
%TD*%
D12*
%TO.P,Q1,1,E*%
%TO.N,GND*%
X56840000Y-37910000D03*
D11*
%TO.P,Q1,2,B*%
%TO.N,Net-(Q1-B)*%
X56840000Y-36640000D03*
%TO.P,Q1,3,C*%
%TO.N,Net-(Q1-C)*%
X56840000Y-35370000D03*
%TD*%
D12*
%TO.P,Q9,1,E*%
%TO.N,GND*%
X56760000Y-161610000D03*
D11*
%TO.P,Q9,2,B*%
%TO.N,Net-(Q9-B)*%
X56760000Y-160340000D03*
%TO.P,Q9,3,C*%
%TO.N,Net-(Q9-C)*%
X56760000Y-159070000D03*
%TD*%
D16*
%TO.P,U13,1*%
%TO.N,Net-(R32-Pad2)*%
X49240000Y-140540000D03*
D17*
%TO.P,U13,2*%
%TO.N,Net-(Q11-C)*%
X49240000Y-138000000D03*
%TO.P,U13,3*%
%TO.N,N/C*%
X49240000Y-135460000D03*
%TO.P,U13,4*%
%TO.N,/Line-R10*%
X41620000Y-135460000D03*
%TO.P,U13,5*%
%TO.N,/Line-NC15*%
X41620000Y-138000000D03*
%TO.P,U13,6*%
%TO.N,/Line-R11*%
X41620000Y-140540000D03*
%TD*%
D16*
%TO.P,U11,1*%
%TO.N,Net-(R30-Pad2)*%
X49270000Y-162640000D03*
D17*
%TO.P,U11,2*%
%TO.N,Net-(Q9-C)*%
X49270000Y-160100000D03*
%TO.P,U11,3*%
%TO.N,N/C*%
X49270000Y-157560000D03*
%TO.P,U11,4*%
%TO.N,/Line-R12*%
X41650000Y-157560000D03*
%TO.P,U11,5*%
%TO.N,/Line-NC11*%
X41650000Y-160100000D03*
%TO.P,U11,6*%
%TO.N,/Line-R13*%
X41650000Y-162640000D03*
%TD*%
D18*
%TO.P,C1,1*%
%TO.N,+3.3V*%
X85725000Y-85740000D03*
D19*
%TO.P,C1,2*%
%TO.N,GND*%
X83185000Y-85740000D03*
%TD*%
D10*
%TO.P,R21,1*%
%TO.N,/Line-R7*%
X26460000Y-101630000D03*
%TO.P,R21,2*%
%TO.N,/Line-R8*%
X36620000Y-101630000D03*
%TD*%
%TO.P,R23,1*%
%TO.N,Net-(Q7-B)*%
X63340000Y-101730000D03*
%TO.P,R23,2*%
%TO.N,/Bit6*%
X73500000Y-101730000D03*
%TD*%
%TO.P,R33,1*%
%TO.N,+5V*%
X73490000Y-129640000D03*
%TO.P,R33,2*%
%TO.N,Net-(R33-Pad2)*%
X63330000Y-129640000D03*
%TD*%
D24*
%TO.P,Q15,1,E*%
%TO.N,GND*%
X84230000Y-48640000D03*
D25*
%TO.P,Q15,2,B*%
%TO.N,Net-(Q15-B)*%
X85500000Y-48640000D03*
%TO.P,Q15,3,C*%
%TO.N,Net-(Q15-C)*%
X86770000Y-48640000D03*
%TD*%
D15*
%TO.P,J5,1,Pin_1*%
%TO.N,+3.3V*%
X95350000Y-147100000D03*
%TD*%
D10*
%TO.P,R38,1*%
%TO.N,/Line-R11*%
X26450000Y-135340000D03*
%TO.P,R38,2*%
%TO.N,/Line-R10*%
X36610000Y-135340000D03*
%TD*%
D26*
%TO.P,J2,1*%
%TO.N,+5V*%
X95027500Y-130115000D03*
%TO.P,J2,2*%
%TO.N,GND*%
X101027500Y-130115000D03*
D27*
%TO.P,J2,3*%
%TO.N,unconnected-(J2-Pad3)*%
X98127500Y-125315000D03*
%TD*%
D16*
%TO.P,U17,1*%
%TO.N,Net-(R42-Pad1)*%
X83200000Y-41150000D03*
D17*
%TO.P,U17,2*%
%TO.N,Net-(Q15-C)*%
X85740000Y-41150000D03*
%TO.P,U17,3*%
%TO.N,N/C*%
X88280000Y-41150000D03*
%TO.P,U17,4*%
%TO.N,/Line-R1*%
X88280000Y-33530000D03*
%TO.P,U17,5*%
%TO.N,/Line-NC13*%
X85740000Y-33530000D03*
%TO.P,U17,6*%
%TO.N,/Line-R-Out*%
X83200000Y-33530000D03*
%TD*%
D10*
%TO.P,R7,1*%
%TO.N,Net-(Q1-B)*%
X63440000Y-33840000D03*
%TO.P,R7,2*%
%TO.N,/Bit0*%
X73600000Y-33840000D03*
%TD*%
%TO.P,R5,1*%
%TO.N,+5V*%
X73600000Y-50530000D03*
%TO.P,R5,2*%
%TO.N,Net-(R5-Pad2)*%
X63440000Y-50530000D03*
%TD*%
%TO.P,R25,1*%
%TO.N,Net-(Q12-B)*%
X63330000Y-124340000D03*
%TO.P,R25,2*%
%TO.N,/Bit8*%
X73490000Y-124340000D03*
%TD*%
D28*
%TO.P,J1,1,VCC*%
%TO.N,+3.3V*%
X107540000Y-76940000D03*
%TO.P,J1,2,SWDIO*%
%TO.N,Net-(D1-A{slash}K_2)*%
X106270000Y-76940000D03*
%TO.P,J1,3,~{RESET}*%
%TO.N,Net-(J1-~{RESET})*%
X107540000Y-75670000D03*
%TO.P,J1,4,SWCLK*%
%TO.N,Net-(D1-A{slash}K_1)*%
X106270000Y-75670000D03*
%TO.P,J1,5,GND*%
%TO.N,GND*%
X107540000Y-74400000D03*
%TO.P,J1,6,SWO*%
%TO.N,unconnected-(J1-SWO-Pad6)*%
X106270000Y-74400000D03*
%TD*%
D10*
%TO.P,R12,1*%
%TO.N,/Line-R4*%
X26510000Y-67240000D03*
%TO.P,R12,2*%
%TO.N,/Line-R5*%
X36670000Y-67240000D03*
%TD*%
D29*
%TO.P,J6,1,Pin_1*%
%TO.N,/Line-R-In*%
X96940000Y-47690000D03*
%TD*%
D10*
%TO.P,R9,1*%
%TO.N,+5V*%
X73590000Y-61140000D03*
%TO.P,R9,2*%
%TO.N,Net-(R9-Pad2)*%
X63430000Y-61140000D03*
%TD*%
D16*
%TO.P,U4,1*%
%TO.N,Net-(R5-Pad2)*%
X49350000Y-50330000D03*
D17*
%TO.P,U4,2*%
%TO.N,Net-(Q2-C)*%
X49350000Y-47790000D03*
%TO.P,U4,3*%
%TO.N,N/C*%
X49350000Y-45250000D03*
%TO.P,U4,4*%
%TO.N,/Line-R3*%
X41730000Y-45250000D03*
%TO.P,U4,5*%
%TO.N,/Line-NC2*%
X41730000Y-47790000D03*
%TO.P,U4,6*%
%TO.N,/Line-R2*%
X41730000Y-50330000D03*
%TD*%
D16*
%TO.P,U16,1*%
%TO.N,Net-(R35-Pad1)*%
X98350000Y-62650000D03*
D17*
%TO.P,U16,2*%
%TO.N,Net-(Q14-C)*%
X100890000Y-62650000D03*
%TO.P,U16,3*%
%TO.N,N/C*%
X103430000Y-62650000D03*
%TO.P,U16,4*%
%TO.N,/Line-R-Out*%
X103430000Y-55030000D03*
%TO.P,U16,5*%
%TO.N,/Line-NC14*%
X100890000Y-55030000D03*
%TO.P,U16,6*%
%TO.N,/Line-R-In*%
X98350000Y-55030000D03*
%TD*%
D15*
%TO.P,J3,1,Pin_1*%
%TO.N,/FootPedalPotOutput*%
X95350000Y-154100000D03*
%TD*%
D12*
%TO.P,Q12,1,E*%
%TO.N,GND*%
X56730000Y-128410000D03*
D11*
%TO.P,Q12,2,B*%
%TO.N,Net-(Q12-B)*%
X56730000Y-127140000D03*
%TO.P,Q12,3,C*%
%TO.N,Net-(Q12-C)*%
X56730000Y-125870000D03*
%TD*%
D22*
%TO.P,D2,1,A/K_1*%
%TO.N,/FootPedalPotOutput*%
X85790000Y-137650000D03*
%TO.P,D2,2,A/K_2*%
%TO.N,/rotary-encoder-output*%
X85790000Y-139550000D03*
%TO.P,D2,3,COM_A*%
%TO.N,GND*%
X87810000Y-138600000D03*
%TD*%
D10*
%TO.P,R22,1*%
%TO.N,Net-(Q6-B)*%
X63330000Y-90240000D03*
%TO.P,R22,2*%
%TO.N,/Bit5*%
X73490000Y-90240000D03*
%TD*%
%TO.P,R10,1*%
%TO.N,+5V*%
X73550000Y-72640000D03*
%TO.P,R10,2*%
%TO.N,Net-(R10-Pad2)*%
X63390000Y-72640000D03*
%TD*%
D16*
%TO.P,U8,1*%
%TO.N,Net-(R18-Pad2)*%
X49240000Y-95340000D03*
D17*
%TO.P,U8,2*%
%TO.N,Net-(Q6-C)*%
X49240000Y-92800000D03*
%TO.P,U8,3*%
%TO.N,N/C*%
X49240000Y-90260000D03*
%TO.P,U8,4*%
%TO.N,/Line-R7*%
X41620000Y-90260000D03*
%TO.P,U8,5*%
%TO.N,/Line-NC6*%
X41620000Y-92800000D03*
%TO.P,U8,6*%
%TO.N,/Line-R6*%
X41620000Y-95340000D03*
%TD*%
D29*
%TO.P,D4,1,A1*%
%TO.N,GND*%
X108260000Y-99640000D03*
D30*
%TO.P,D4,2,A2*%
%TO.N,+3.3V*%
X93020000Y-99640000D03*
%TD*%
D15*
%TO.P,J4,1,Pin_1*%
%TO.N,GND*%
X95350000Y-140100000D03*
%TD*%
D10*
%TO.P,R29,1*%
%TO.N,+5V*%
X73490000Y-174140000D03*
%TO.P,R29,2*%
%TO.N,Net-(R29-Pad2)*%
X63330000Y-174140000D03*
%TD*%
D16*
%TO.P,U14,1*%
%TO.N,Net-(R33-Pad2)*%
X49240000Y-129440000D03*
D17*
%TO.P,U14,2*%
%TO.N,Net-(Q12-C)*%
X49240000Y-126900000D03*
%TO.P,U14,3*%
%TO.N,N/C*%
X49240000Y-124360000D03*
%TO.P,U14,4*%
%TO.N,/Line-R9*%
X41620000Y-124360000D03*
%TO.P,U14,5*%
%TO.N,/Line-NC9*%
X41620000Y-126900000D03*
%TO.P,U14,6*%
%TO.N,/Line-R10*%
X41620000Y-129440000D03*
%TD*%
D15*
%TO.P,D3,1,A1*%
%TO.N,+5V*%
X85140000Y-120010000D03*
D30*
%TO.P,D3,2,A2*%
%TO.N,GND*%
X85140000Y-104770000D03*
%TD*%
D10*
%TO.P,R36,1*%
%TO.N,/Line-R9*%
X26540000Y-112840000D03*
%TO.P,R36,2*%
%TO.N,/Line-R8*%
X36700000Y-112840000D03*
%TD*%
D16*
%TO.P,U6,1*%
%TO.N,Net-(R10-Pad2)*%
X49300000Y-72440000D03*
D17*
%TO.P,U6,2*%
%TO.N,Net-(Q4-C)*%
X49300000Y-69900000D03*
%TO.P,U6,3*%
%TO.N,N/C*%
X49300000Y-67360000D03*
%TO.P,U6,4*%
%TO.N,/Line-R5*%
X41680000Y-67360000D03*
%TO.P,U6,5*%
%TO.N,/Line-NC4*%
X41680000Y-69900000D03*
%TO.P,U6,6*%
%TO.N,/Line-R4*%
X41680000Y-72440000D03*
%TD*%
D12*
%TO.P,Q6,1,E*%
%TO.N,GND*%
X56730000Y-94310000D03*
D11*
%TO.P,Q6,2,B*%
%TO.N,Net-(Q6-B)*%
X56730000Y-93040000D03*
%TO.P,Q6,3,C*%
%TO.N,Net-(Q6-C)*%
X56730000Y-91770000D03*
%TD*%
D31*
%TO.P,U2,1,VIN*%
%TO.N,+5V*%
X92502500Y-114690000D03*
%TO.P,U2,2,GND*%
%TO.N,GND*%
X92502500Y-115640000D03*
%TO.P,U2,3,ON/~{OFF}*%
%TO.N,+5V*%
X92502500Y-116590000D03*
%TO.P,U2,4,BP*%
%TO.N,Net-(U2-BP)*%
X94777500Y-116590000D03*
%TO.P,U2,5,VOUT*%
%TO.N,+3.3V*%
X94777500Y-114690000D03*
%TD*%
D10*
%TO.P,R35,1*%
%TO.N,Net-(R35-Pad1)*%
X92620000Y-69940000D03*
%TO.P,R35,2*%
%TO.N,+5V*%
X82460000Y-69940000D03*
%TD*%
D16*
%TO.P,U5,1*%
%TO.N,Net-(R9-Pad2)*%
X49340000Y-60940000D03*
D17*
%TO.P,U5,2*%
%TO.N,Net-(Q3-C)*%
X49340000Y-58400000D03*
%TO.P,U5,3*%
%TO.N,N/C*%
X49340000Y-55860000D03*
%TO.P,U5,4*%
%TO.N,/Line-R4*%
X41720000Y-55860000D03*
%TO.P,U5,5*%
%TO.N,/Line-NC3*%
X41720000Y-58400000D03*
%TO.P,U5,6*%
%TO.N,/Line-R3*%
X41720000Y-60940000D03*
%TD*%
D29*
%TO.P,J7,1,Pin_1*%
%TO.N,/Line-R-Out*%
X104540000Y-47690000D03*
%TD*%
D12*
%TO.P,Q4,1,E*%
%TO.N,GND*%
X56840000Y-71380000D03*
D11*
%TO.P,Q4,2,B*%
%TO.N,Net-(Q4-B)*%
X56840000Y-70110000D03*
%TO.P,Q4,3,C*%
%TO.N,Net-(Q4-C)*%
X56840000Y-68840000D03*
%TD*%
D12*
%TO.P,Q8,1,E*%
%TO.N,GND*%
X56730000Y-172910000D03*
D11*
%TO.P,Q8,2,B*%
%TO.N,Net-(Q8-B)*%
X56730000Y-171640000D03*
%TO.P,Q8,3,C*%
%TO.N,Net-(Q8-C)*%
X56730000Y-170370000D03*
%TD*%
D10*
%TO.P,R6,1*%
%TO.N,/Line-R2*%
X26560000Y-45130000D03*
%TO.P,R6,2*%
%TO.N,/Line-R3*%
X36720000Y-45130000D03*
%TD*%
%TO.P,R24,1*%
%TO.N,Net-(Q13-B)*%
X63390000Y-112940000D03*
%TO.P,R24,2*%
%TO.N,/Bit7*%
X73550000Y-112940000D03*
%TD*%
D16*
%TO.P,U3,1*%
%TO.N,Net-(R1-Pad2)*%
X49350000Y-38940000D03*
D17*
%TO.P,U3,2*%
%TO.N,Net-(Q1-C)*%
X49350000Y-36400000D03*
%TO.P,U3,3*%
%TO.N,N/C*%
X49350000Y-33860000D03*
%TO.P,U3,4*%
%TO.N,/Line-R2*%
X41730000Y-33860000D03*
%TO.P,U3,5*%
%TO.N,/Line-NC1*%
X41730000Y-36400000D03*
%TO.P,U3,6*%
%TO.N,/Line-R1*%
X41730000Y-38940000D03*
%TD*%
D10*
%TO.P,R30,1*%
%TO.N,+5V*%
X73520000Y-162840000D03*
%TO.P,R30,2*%
%TO.N,Net-(R30-Pad2)*%
X63360000Y-162840000D03*
%TD*%
%TO.P,R4,1*%
%TO.N,/MaxResBit*%
X88300000Y-65400000D03*
%TO.P,R4,2*%
%TO.N,Net-(Q15-B)*%
X88300000Y-55240000D03*
%TD*%
%TO.P,R41,1*%
%TO.N,/Line-R-In*%
X26450000Y-168740000D03*
%TO.P,R41,2*%
%TO.N,/Line-R13*%
X36610000Y-168740000D03*
%TD*%
D23*
%TO.P,C6,1*%
%TO.N,+5V*%
X90390000Y-120890000D03*
%TO.P,C6,2*%
%TO.N,GND*%
X95390000Y-120890000D03*
%TD*%
D16*
%TO.P,U15,1*%
%TO.N,Net-(R34-Pad2)*%
X49300000Y-118040000D03*
D17*
%TO.P,U15,2*%
%TO.N,Net-(Q13-C)*%
X49300000Y-115500000D03*
%TO.P,U15,3*%
%TO.N,N/C*%
X49300000Y-112960000D03*
%TO.P,U15,4*%
%TO.N,/Line-R8*%
X41680000Y-112960000D03*
%TO.P,U15,5*%
%TO.N,/Line-NC8*%
X41680000Y-115500000D03*
%TO.P,U15,6*%
%TO.N,/Line-R9*%
X41680000Y-118040000D03*
%TD*%
D10*
%TO.P,R40,1*%
%TO.N,/Line-R13*%
X26480000Y-157440000D03*
%TO.P,R40,2*%
%TO.N,/Line-R12*%
X36640000Y-157440000D03*
%TD*%
%TO.P,R17,1*%
%TO.N,+5V*%
X73520000Y-84140000D03*
%TO.P,R17,2*%
%TO.N,Net-(R17-Pad2)*%
X63360000Y-84140000D03*
%TD*%
%TO.P,R11,1*%
%TO.N,/Line-R3*%
X26550000Y-55740000D03*
%TO.P,R11,2*%
%TO.N,/Line-R4*%
X36710000Y-55740000D03*
%TD*%
D32*
%TO.N,GND*%
X89500000Y-86500000D03*
%TO.N,Net-(Q14-B)*%
X95200000Y-71500000D03*
%TO.N,/MinResBit*%
X101200000Y-85640000D03*
%TO.N,/MaxResBit*%
X102600000Y-84800000D03*
%TO.N,/Bit0*%
X103400000Y-81600000D03*
%TO.N,/Bit3*%
X95485000Y-80200000D03*
%TO.N,/Bit6*%
X90600000Y-80200000D03*
%TO.N,/Bit7*%
X80700000Y-84000000D03*
%TO.N,/rotary-encoder-output*%
X101400000Y-88700000D03*
X89500000Y-133600000D03*
%TO.N,/FootPedalPotOutput*%
X90700000Y-90300000D03*
X90050000Y-136450000D03*
%TO.N,GND*%
X88100000Y-141900000D03*
%TO.N,Net-(J1-~{RESET})*%
X111200000Y-76800000D03*
%TO.N,+3.3V*%
X88000000Y-85640000D03*
X95600000Y-98200000D03*
X93700000Y-101700000D03*
X95200000Y-100600000D03*
X95000000Y-96900000D03*
%TO.N,GND*%
X90000000Y-115700000D03*
%TO.N,+5V*%
X88800000Y-114400000D03*
%TO.N,GND*%
X91100000Y-115700000D03*
%TO.N,+5V*%
X89500000Y-123200000D03*
X85800000Y-124300000D03*
X82400000Y-117600000D03*
X90900000Y-114500000D03*
X88200000Y-115600000D03*
X88800000Y-119800000D03*
X83700000Y-122800000D03*
X90600000Y-125000000D03*
X87400000Y-122900000D03*
X91800000Y-118200000D03*
X90400000Y-117600000D03*
X88600000Y-117400000D03*
%TO.N,GND*%
X106900000Y-71600000D03*
X98600000Y-72900000D03*
%TD*%
D33*
%TO.N,Net-(Q14-B)*%
X96500000Y-68900000D02*
X97230000Y-68170000D01*
X97230000Y-68170000D02*
X99600000Y-68170000D01*
X96500000Y-70200000D02*
X96500000Y-68900000D01*
X95200000Y-71500000D02*
X96500000Y-70200000D01*
D34*
%TO.N,Net-(Q14-C)*%
X100890000Y-65610000D02*
X99600000Y-66900000D01*
X100890000Y-62650000D02*
X100890000Y-65610000D01*
D35*
%TO.N,/FootPedalPotOutput*%
X94090000Y-152840000D02*
X95350000Y-154100000D01*
X94090000Y-152790000D02*
X94090000Y-152840000D01*
D34*
%TO.N,GND*%
X89560000Y-86440000D02*
X89500000Y-86500000D01*
X90910000Y-86440000D02*
X89560000Y-86440000D01*
D33*
%TO.N,/MaxResBit*%
X102560000Y-84840000D02*
X99260000Y-84840000D01*
X102600000Y-84800000D02*
X102560000Y-84840000D01*
%TO.N,/MinResBit*%
X101200000Y-85640000D02*
X99260000Y-85640000D01*
D34*
%TO.N,GND*%
X98600000Y-72900000D02*
X98600000Y-73700000D01*
X98600000Y-73700000D02*
X98440000Y-73860000D01*
X98440000Y-73860000D02*
X98440000Y-74840000D01*
D33*
%TO.N,/Bit0*%
X100960000Y-84040000D02*
X99260000Y-84040000D01*
X103400000Y-81600000D02*
X100960000Y-84040000D01*
%TO.N,/Bit1*%
X77600000Y-49230000D02*
X73600000Y-45230000D01*
X77600000Y-68900000D02*
X77600000Y-49230000D01*
X80800000Y-72100000D02*
X77600000Y-68900000D01*
X94200000Y-72100000D02*
X80800000Y-72100000D01*
X95700000Y-73600000D02*
X94200000Y-72100000D01*
X95700000Y-77200000D02*
X95700000Y-73600000D01*
X97100000Y-78600000D02*
X95700000Y-77200000D01*
X97100000Y-80100000D02*
X97100000Y-78600000D01*
X97085000Y-80115000D02*
X97100000Y-80100000D01*
X97085000Y-81865000D02*
X97085000Y-80115000D01*
%TO.N,/Bit2*%
X79200000Y-73200000D02*
X75700000Y-69700000D01*
X93800000Y-73200000D02*
X79200000Y-73200000D01*
X75700000Y-57950000D02*
X73590000Y-55840000D01*
X94500000Y-73900000D02*
X93800000Y-73200000D01*
X75700000Y-69700000D02*
X75700000Y-57950000D01*
X96285000Y-79285000D02*
X94500000Y-77500000D01*
X94500000Y-77500000D02*
X94500000Y-73900000D01*
X96285000Y-81865000D02*
X96285000Y-79285000D01*
%TO.N,/Bit3*%
X95485000Y-80200000D02*
X95485000Y-81865000D01*
%TO.N,/Bit4*%
X94685000Y-78785000D02*
X93500000Y-77600000D01*
X74760000Y-77600000D02*
X73520000Y-78840000D01*
X94685000Y-81865000D02*
X94685000Y-78785000D01*
X93500000Y-77600000D02*
X74760000Y-77600000D01*
%TO.N,/Bit5*%
X76500000Y-83600000D02*
X76500000Y-87230000D01*
X76500000Y-87230000D02*
X73490000Y-90240000D01*
X93885000Y-79585000D02*
X93100000Y-78800000D01*
X93100000Y-78800000D02*
X81300000Y-78800000D01*
X81300000Y-78800000D02*
X76500000Y-83600000D01*
X93885000Y-81865000D02*
X93885000Y-79585000D01*
%TO.N,/Bit6*%
X92900000Y-80200000D02*
X90600000Y-80200000D01*
X93085000Y-80385000D02*
X92900000Y-80200000D01*
X93085000Y-81865000D02*
X93085000Y-80385000D01*
%TO.N,/Bit7*%
X81700000Y-83000000D02*
X80700000Y-84000000D01*
X87900000Y-83000000D02*
X81700000Y-83000000D01*
X89400000Y-81800000D02*
X88200000Y-83000000D01*
X89465000Y-81865000D02*
X89400000Y-81800000D01*
X88200000Y-83000000D02*
X87900000Y-83000000D01*
X92285000Y-81865000D02*
X89465000Y-81865000D01*
%TO.N,/Bit9*%
X77100000Y-131830000D02*
X73490000Y-135440000D01*
X82800000Y-95400000D02*
X77100000Y-101100000D01*
X89400000Y-95400000D02*
X82800000Y-95400000D01*
X93100000Y-91700000D02*
X89400000Y-95400000D01*
X93100000Y-90215000D02*
X93100000Y-91700000D01*
X77100000Y-101100000D02*
X77100000Y-131830000D01*
X93085000Y-90215000D02*
X93100000Y-90215000D01*
%TO.N,/Bit10*%
X93885000Y-92115000D02*
X93885000Y-90215000D01*
X89000000Y-97000000D02*
X93885000Y-92115000D01*
X82800000Y-97000000D02*
X89000000Y-97000000D01*
X78200000Y-141560000D02*
X78200000Y-101600000D01*
X73490000Y-146270000D02*
X78200000Y-141560000D01*
X78200000Y-101600000D02*
X82800000Y-97000000D01*
%TO.N,/Bit11*%
X79400000Y-151660000D02*
X73520000Y-157540000D01*
X79400000Y-102000000D02*
X79400000Y-151660000D01*
X83500000Y-97900000D02*
X79400000Y-102000000D01*
X89400000Y-97900000D02*
X83500000Y-97900000D01*
X94685000Y-92615000D02*
X89400000Y-97900000D01*
X94685000Y-90215000D02*
X94685000Y-92615000D01*
%TO.N,/Bit12*%
X80700000Y-161630000D02*
X73490000Y-168840000D01*
X90000000Y-98800000D02*
X84000000Y-98800000D01*
X84000000Y-98800000D02*
X80700000Y-102100000D01*
X95485000Y-93315000D02*
X90000000Y-98800000D01*
X95485000Y-90215000D02*
X95485000Y-93315000D01*
X80700000Y-102100000D02*
X80700000Y-161630000D01*
%TO.N,/Bit8*%
X75800000Y-122030000D02*
X73490000Y-124340000D01*
X75800000Y-101000000D02*
X75800000Y-122030000D01*
X89500000Y-94200000D02*
X82600000Y-94200000D01*
X92285000Y-91415000D02*
X89500000Y-94200000D01*
X82600000Y-94200000D02*
X75800000Y-101000000D01*
X92285000Y-90215000D02*
X92285000Y-91415000D01*
D35*
%TO.N,/rotary-encoder-output*%
X100740000Y-88040000D02*
X101400000Y-88700000D01*
X99260000Y-88040000D02*
X100740000Y-88040000D01*
X86500000Y-133600000D02*
X89500000Y-133600000D01*
X84500000Y-135600000D02*
X86500000Y-133600000D01*
X83800000Y-136300000D02*
X84500000Y-135600000D01*
X84250000Y-139550000D02*
X83800000Y-139100000D01*
X85790000Y-139550000D02*
X84250000Y-139550000D01*
X83800000Y-139100000D02*
X83800000Y-136300000D01*
%TO.N,/FootPedalPotOutput*%
X90910000Y-90090000D02*
X90700000Y-90300000D01*
X90910000Y-88840000D02*
X90910000Y-90090000D01*
X90050000Y-136450000D02*
X90000000Y-136400000D01*
%TO.N,/rotary-encoder-output*%
X85790000Y-157690000D02*
X85790000Y-139550000D01*
X94140000Y-166040000D02*
X85790000Y-157690000D01*
%TO.N,GND*%
X87810000Y-141610000D02*
X88100000Y-141900000D01*
X87810000Y-138600000D02*
X87810000Y-141610000D01*
%TO.N,/FootPedalPotOutput*%
X90000000Y-136400000D02*
X87040000Y-136400000D01*
X87040000Y-136400000D02*
X85790000Y-137650000D01*
X90300000Y-136700000D02*
X90050000Y-136450000D01*
X94090000Y-152790000D02*
X90300000Y-149000000D01*
X90300000Y-149000000D02*
X90300000Y-136700000D01*
D36*
%TO.N,Net-(J1-~{RESET})*%
X111046550Y-76646550D02*
X111200000Y-76800000D01*
X108516550Y-76646550D02*
X111046550Y-76646550D01*
X107540000Y-75670000D02*
X108516550Y-76646550D01*
%TO.N,Net-(D1-A{slash}K_2)*%
X101600000Y-78300000D02*
X100160000Y-76860000D01*
X101800000Y-80400000D02*
X101600000Y-80200000D01*
X101600000Y-80200000D02*
X101600000Y-78300000D01*
X105800000Y-80400000D02*
X101800000Y-80400000D01*
X106033700Y-80166300D02*
X105800000Y-80400000D01*
X100160000Y-76860000D02*
X99390000Y-76860000D01*
X106033700Y-77176300D02*
X106033700Y-80166300D01*
X106270000Y-76940000D02*
X106033700Y-77176300D01*
%TO.N,Net-(D1-A{slash}K_1)*%
X96800000Y-76170000D02*
X97490000Y-76860000D01*
X98500000Y-71400000D02*
X96800000Y-73100000D01*
X100200000Y-71400000D02*
X98500000Y-71400000D01*
X96800000Y-73100000D02*
X96800000Y-76170000D01*
X101100000Y-74800000D02*
X101100000Y-72300000D01*
X102898450Y-76598450D02*
X101100000Y-74800000D01*
X106270000Y-75670000D02*
X105341550Y-76598450D01*
X105341550Y-76598450D02*
X102898450Y-76598450D01*
X101100000Y-72300000D02*
X100200000Y-71400000D01*
D33*
%TO.N,Net-(D1-A{slash}K_2)*%
X99390000Y-83110000D02*
X99260000Y-83240000D01*
X99390000Y-76860000D02*
X99390000Y-83110000D01*
%TO.N,Net-(D1-A{slash}K_1)*%
X97885000Y-77255000D02*
X97885000Y-81865000D01*
X97490000Y-76860000D02*
X97885000Y-77255000D01*
D35*
%TO.N,Net-(J1-~{RESET})*%
X87660000Y-87240000D02*
X90910000Y-87240000D01*
X85625000Y-89275000D02*
X87660000Y-87240000D01*
X85625000Y-91440000D02*
X85625000Y-89275000D01*
D34*
%TO.N,+3.3V*%
X88000000Y-85640000D02*
X85825000Y-85640000D01*
X85825000Y-85640000D02*
X85725000Y-85740000D01*
X90910000Y-85640000D02*
X88000000Y-85640000D01*
%TO.N,Net-(U2-BP)*%
X101590000Y-116590000D02*
X101640000Y-116640000D01*
X94777500Y-116590000D02*
X101590000Y-116590000D01*
%TO.N,GND*%
X91100000Y-115700000D02*
X90000000Y-115700000D01*
X91160000Y-115640000D02*
X91100000Y-115700000D01*
X92502500Y-115640000D02*
X91160000Y-115640000D01*
D36*
X106900000Y-73760000D02*
X106900000Y-71600000D01*
X107540000Y-74400000D02*
X106900000Y-73760000D01*
D34*
%TO.N,Net-(R35-Pad1)*%
X98350000Y-64210000D02*
X92620000Y-69940000D01*
X98350000Y-62650000D02*
X98350000Y-64210000D01*
D37*
%TO.N,/Line-R-Out*%
X103430000Y-55030000D02*
X104540000Y-53920000D01*
X104540000Y-53920000D02*
X104540000Y-47690000D01*
%TO.N,/Line-R-In*%
X96940000Y-53620000D02*
X98350000Y-55030000D01*
X96940000Y-47690000D02*
X96940000Y-53620000D01*
D35*
%TO.N,Net-(Q15-C)*%
X86770000Y-44675000D02*
X86770000Y-48640000D01*
X85740000Y-43645000D02*
X86770000Y-44675000D01*
X85740000Y-41150000D02*
X85740000Y-43645000D01*
%TO.N,Net-(R42-Pad1)*%
X83150000Y-41150000D02*
X83200000Y-41150000D01*
X83000000Y-53000000D02*
X81400000Y-51400000D01*
X81400000Y-51400000D02*
X81400000Y-42900000D01*
X83000000Y-55240000D02*
X83000000Y-53000000D01*
X81400000Y-42900000D02*
X83150000Y-41150000D01*
%TO.N,Net-(Q15-B)*%
X85500000Y-52440000D02*
X85500000Y-48640000D01*
X88300000Y-55240000D02*
X85500000Y-52440000D01*
D37*
%TO.N,/Line-R-In*%
X95190000Y-47690000D02*
X96940000Y-47690000D01*
X93400000Y-45900000D02*
X95190000Y-47690000D01*
X93400000Y-31300000D02*
X93400000Y-45900000D01*
X91200000Y-29100000D02*
X93400000Y-31300000D01*
X45039000Y-30661000D02*
X46600000Y-29100000D01*
X46600000Y-29100000D02*
X91200000Y-29100000D01*
X45039000Y-117060000D02*
X45099000Y-117000000D01*
X45039000Y-171510949D02*
X45039000Y-117060000D01*
X45039000Y-116940000D02*
X45039000Y-30661000D01*
X42609949Y-173940000D02*
X45039000Y-171510949D01*
X45099000Y-117000000D02*
X45039000Y-116940000D01*
X41620000Y-173940000D02*
X42609949Y-173940000D01*
%TO.N,/Line-R13*%
X41650000Y-168830000D02*
X41620000Y-168860000D01*
X41650000Y-162640000D02*
X41650000Y-168830000D01*
%TO.N,/Line-R12*%
X41620000Y-157530000D02*
X41650000Y-157560000D01*
X41620000Y-151370000D02*
X41620000Y-157530000D01*
%TO.N,/Line-R11*%
X41620000Y-140540000D02*
X41620000Y-146290000D01*
%TO.N,/Line-R10*%
X41620000Y-129440000D02*
X41620000Y-135460000D01*
%TO.N,/Line-R9*%
X41680000Y-124300000D02*
X41620000Y-124360000D01*
X41680000Y-118040000D02*
X41680000Y-124300000D01*
D34*
%TO.N,Net-(Q8-C)*%
X51770000Y-171400000D02*
X52800000Y-170370000D01*
D35*
%TO.N,Net-(Q8-B)*%
X60530000Y-171640000D02*
X56730000Y-171640000D01*
D34*
%TO.N,Net-(R29-Pad2)*%
X62130000Y-174140000D02*
X60630000Y-175640000D01*
D37*
%TO.N,/Line-R-In*%
X41620000Y-173940000D02*
X28230000Y-173940000D01*
D34*
%TO.N,Net-(Q8-C)*%
X52800000Y-170370000D02*
X56730000Y-170370000D01*
X49240000Y-171400000D02*
X51770000Y-171400000D01*
%TO.N,Net-(R29-Pad2)*%
X53130000Y-175640000D02*
X51430000Y-173940000D01*
D37*
%TO.N,/Line-R13*%
X41620000Y-168860000D02*
X36730000Y-168860000D01*
D34*
%TO.N,Net-(R29-Pad2)*%
X51430000Y-173940000D02*
X49240000Y-173940000D01*
X60630000Y-175640000D02*
X53130000Y-175640000D01*
X63330000Y-174140000D02*
X62130000Y-174140000D01*
D37*
%TO.N,/Line-R13*%
X36730000Y-168860000D02*
X36610000Y-168740000D01*
%TO.N,/Line-R-In*%
X28230000Y-173940000D02*
X26450000Y-172160000D01*
X26450000Y-172160000D02*
X26450000Y-168740000D01*
D35*
%TO.N,Net-(Q8-B)*%
X63330000Y-168840000D02*
X60530000Y-171640000D01*
D34*
%TO.N,Net-(Q9-C)*%
X51800000Y-160100000D02*
X52830000Y-159070000D01*
D35*
%TO.N,Net-(Q9-B)*%
X60560000Y-160340000D02*
X56760000Y-160340000D01*
D34*
%TO.N,Net-(R30-Pad2)*%
X62160000Y-162840000D02*
X60660000Y-164340000D01*
D37*
%TO.N,/Line-R13*%
X41650000Y-162640000D02*
X28260000Y-162640000D01*
D34*
%TO.N,Net-(Q9-C)*%
X52830000Y-159070000D02*
X56760000Y-159070000D01*
X49270000Y-160100000D02*
X51800000Y-160100000D01*
%TO.N,Net-(R30-Pad2)*%
X53160000Y-164340000D02*
X51460000Y-162640000D01*
D37*
%TO.N,/Line-R12*%
X41650000Y-157560000D02*
X36760000Y-157560000D01*
D34*
%TO.N,Net-(R30-Pad2)*%
X51460000Y-162640000D02*
X49270000Y-162640000D01*
X60660000Y-164340000D02*
X53160000Y-164340000D01*
X63360000Y-162840000D02*
X62160000Y-162840000D01*
D37*
%TO.N,/Line-R12*%
X36760000Y-157560000D02*
X36640000Y-157440000D01*
%TO.N,/Line-R13*%
X28260000Y-162640000D02*
X26480000Y-160860000D01*
X26480000Y-160860000D02*
X26480000Y-157440000D01*
D35*
%TO.N,Net-(Q9-B)*%
X63360000Y-157540000D02*
X60560000Y-160340000D01*
D34*
%TO.N,Net-(Q10-C)*%
X51770000Y-148830000D02*
X52800000Y-147800000D01*
D35*
%TO.N,Net-(Q10-B)*%
X60530000Y-149070000D02*
X56730000Y-149070000D01*
D34*
%TO.N,Net-(R31-Pad2)*%
X62130000Y-151570000D02*
X60630000Y-153070000D01*
D37*
%TO.N,/Line-R12*%
X41620000Y-151370000D02*
X28230000Y-151370000D01*
D34*
%TO.N,Net-(Q10-C)*%
X52800000Y-147800000D02*
X56730000Y-147800000D01*
X49240000Y-148830000D02*
X51770000Y-148830000D01*
%TO.N,Net-(R31-Pad2)*%
X53130000Y-153070000D02*
X51430000Y-151370000D01*
D37*
%TO.N,/Line-R11*%
X41620000Y-146290000D02*
X36730000Y-146290000D01*
D34*
%TO.N,Net-(R31-Pad2)*%
X51430000Y-151370000D02*
X49240000Y-151370000D01*
X60630000Y-153070000D02*
X53130000Y-153070000D01*
X63330000Y-151570000D02*
X62130000Y-151570000D01*
D37*
%TO.N,/Line-R11*%
X36730000Y-146290000D02*
X36610000Y-146170000D01*
%TO.N,/Line-R12*%
X28230000Y-151370000D02*
X26450000Y-149590000D01*
X26450000Y-149590000D02*
X26450000Y-146170000D01*
D35*
%TO.N,Net-(Q10-B)*%
X63330000Y-146270000D02*
X60530000Y-149070000D01*
D34*
%TO.N,Net-(Q11-C)*%
X51770000Y-138000000D02*
X52800000Y-136970000D01*
D35*
%TO.N,Net-(Q11-B)*%
X60530000Y-138240000D02*
X56730000Y-138240000D01*
D34*
%TO.N,Net-(R32-Pad2)*%
X62130000Y-140740000D02*
X60630000Y-142240000D01*
D37*
%TO.N,/Line-R11*%
X41620000Y-140540000D02*
X28230000Y-140540000D01*
D34*
%TO.N,Net-(Q11-C)*%
X52800000Y-136970000D02*
X56730000Y-136970000D01*
X49240000Y-138000000D02*
X51770000Y-138000000D01*
%TO.N,Net-(R32-Pad2)*%
X53130000Y-142240000D02*
X51430000Y-140540000D01*
D37*
%TO.N,/Line-R10*%
X41620000Y-135460000D02*
X36730000Y-135460000D01*
D34*
%TO.N,Net-(R32-Pad2)*%
X51430000Y-140540000D02*
X49240000Y-140540000D01*
X60630000Y-142240000D02*
X53130000Y-142240000D01*
X63330000Y-140740000D02*
X62130000Y-140740000D01*
D37*
%TO.N,/Line-R10*%
X36730000Y-135460000D02*
X36610000Y-135340000D01*
%TO.N,/Line-R11*%
X28230000Y-140540000D02*
X26450000Y-138760000D01*
X26450000Y-138760000D02*
X26450000Y-135340000D01*
D35*
%TO.N,Net-(Q11-B)*%
X63330000Y-135440000D02*
X60530000Y-138240000D01*
D34*
%TO.N,Net-(Q12-C)*%
X51770000Y-126900000D02*
X52800000Y-125870000D01*
D35*
%TO.N,Net-(Q12-B)*%
X60530000Y-127140000D02*
X56730000Y-127140000D01*
D34*
%TO.N,Net-(R33-Pad2)*%
X62130000Y-129640000D02*
X60630000Y-131140000D01*
D37*
%TO.N,/Line-R10*%
X41620000Y-129440000D02*
X28230000Y-129440000D01*
D34*
%TO.N,Net-(Q12-C)*%
X52800000Y-125870000D02*
X56730000Y-125870000D01*
X49240000Y-126900000D02*
X51770000Y-126900000D01*
%TO.N,Net-(R33-Pad2)*%
X53130000Y-131140000D02*
X51430000Y-129440000D01*
D37*
%TO.N,/Line-R9*%
X41620000Y-124360000D02*
X36730000Y-124360000D01*
D34*
%TO.N,Net-(R33-Pad2)*%
X51430000Y-129440000D02*
X49240000Y-129440000D01*
X60630000Y-131140000D02*
X53130000Y-131140000D01*
X63330000Y-129640000D02*
X62130000Y-129640000D01*
D37*
%TO.N,/Line-R9*%
X36730000Y-124360000D02*
X36610000Y-124240000D01*
%TO.N,/Line-R10*%
X28230000Y-129440000D02*
X26450000Y-127660000D01*
X26450000Y-127660000D02*
X26450000Y-124240000D01*
D35*
%TO.N,Net-(Q12-B)*%
X63330000Y-124340000D02*
X60530000Y-127140000D01*
D34*
%TO.N,Net-(R34-Pad2)*%
X62190000Y-118240000D02*
X60690000Y-119740000D01*
D35*
%TO.N,Net-(Q13-B)*%
X60590000Y-115740000D02*
X56790000Y-115740000D01*
D34*
%TO.N,Net-(Q13-C)*%
X51830000Y-115500000D02*
X52860000Y-114470000D01*
%TO.N,Net-(R34-Pad2)*%
X51490000Y-118040000D02*
X49300000Y-118040000D01*
%TO.N,Net-(Q13-C)*%
X52860000Y-114470000D02*
X56790000Y-114470000D01*
X49300000Y-115500000D02*
X51830000Y-115500000D01*
%TO.N,Net-(R34-Pad2)*%
X63390000Y-118240000D02*
X62190000Y-118240000D01*
D37*
%TO.N,/Line-R9*%
X41680000Y-118040000D02*
X28290000Y-118040000D01*
%TO.N,/Line-R8*%
X41680000Y-112960000D02*
X36790000Y-112960000D01*
D34*
%TO.N,Net-(R34-Pad2)*%
X60690000Y-119740000D02*
X53190000Y-119740000D01*
X53190000Y-119740000D02*
X51490000Y-118040000D01*
D37*
%TO.N,/Line-R8*%
X36790000Y-112960000D02*
X36670000Y-112840000D01*
%TO.N,/Line-R9*%
X28290000Y-118040000D02*
X26510000Y-116260000D01*
X26510000Y-116260000D02*
X26510000Y-112840000D01*
D35*
%TO.N,Net-(Q13-B)*%
X63390000Y-112940000D02*
X60590000Y-115740000D01*
D34*
%TO.N,Net-(R19-Pad2)*%
X62140000Y-107030000D02*
X60640000Y-108530000D01*
D35*
%TO.N,Net-(Q7-B)*%
X60540000Y-104530000D02*
X56740000Y-104530000D01*
D34*
%TO.N,Net-(Q7-C)*%
X51780000Y-104290000D02*
X52810000Y-103260000D01*
%TO.N,Net-(R19-Pad2)*%
X51440000Y-106830000D02*
X49250000Y-106830000D01*
%TO.N,Net-(Q7-C)*%
X52810000Y-103260000D02*
X56740000Y-103260000D01*
X49250000Y-104290000D02*
X51780000Y-104290000D01*
%TO.N,Net-(R19-Pad2)*%
X63340000Y-107030000D02*
X62140000Y-107030000D01*
D37*
%TO.N,/Line-R7*%
X41630000Y-106830000D02*
X28240000Y-106830000D01*
%TO.N,/Line-R8*%
X41630000Y-101750000D02*
X36740000Y-101750000D01*
D34*
%TO.N,Net-(R19-Pad2)*%
X60640000Y-108530000D02*
X53140000Y-108530000D01*
X53140000Y-108530000D02*
X51440000Y-106830000D01*
D37*
%TO.N,/Line-R8*%
X36740000Y-101750000D02*
X36620000Y-101630000D01*
%TO.N,/Line-R7*%
X28240000Y-106830000D02*
X26460000Y-105050000D01*
X26460000Y-105050000D02*
X26460000Y-101630000D01*
D35*
%TO.N,Net-(Q7-B)*%
X63340000Y-101730000D02*
X60540000Y-104530000D01*
D34*
%TO.N,Net-(R18-Pad2)*%
X62130000Y-95540000D02*
X60630000Y-97040000D01*
D35*
%TO.N,Net-(Q6-B)*%
X60530000Y-93040000D02*
X56730000Y-93040000D01*
D34*
%TO.N,Net-(Q6-C)*%
X51770000Y-92800000D02*
X52800000Y-91770000D01*
%TO.N,Net-(R18-Pad2)*%
X51430000Y-95340000D02*
X49240000Y-95340000D01*
%TO.N,Net-(Q6-C)*%
X52800000Y-91770000D02*
X56730000Y-91770000D01*
X49240000Y-92800000D02*
X51770000Y-92800000D01*
%TO.N,Net-(R18-Pad2)*%
X63330000Y-95540000D02*
X62130000Y-95540000D01*
D37*
%TO.N,/Line-R6*%
X41620000Y-95340000D02*
X28230000Y-95340000D01*
%TO.N,/Line-R7*%
X41620000Y-90260000D02*
X36730000Y-90260000D01*
D34*
%TO.N,Net-(R18-Pad2)*%
X60630000Y-97040000D02*
X53130000Y-97040000D01*
X53130000Y-97040000D02*
X51430000Y-95340000D01*
D37*
%TO.N,/Line-R7*%
X36730000Y-90260000D02*
X36610000Y-90140000D01*
%TO.N,/Line-R6*%
X28230000Y-95340000D02*
X26450000Y-93560000D01*
X26450000Y-93560000D02*
X26450000Y-90140000D01*
D35*
%TO.N,Net-(Q6-B)*%
X63330000Y-90240000D02*
X60530000Y-93040000D01*
D34*
%TO.N,Net-(R17-Pad2)*%
X62160000Y-84140000D02*
X60660000Y-85640000D01*
D35*
%TO.N,Net-(Q5-B)*%
X60560000Y-81640000D02*
X56760000Y-81640000D01*
D34*
%TO.N,Net-(Q5-C)*%
X51800000Y-81400000D02*
X52830000Y-80370000D01*
%TO.N,Net-(R17-Pad2)*%
X51460000Y-83940000D02*
X49270000Y-83940000D01*
%TO.N,Net-(Q5-C)*%
X52830000Y-80370000D02*
X56760000Y-80370000D01*
X49270000Y-81400000D02*
X51800000Y-81400000D01*
%TO.N,Net-(R17-Pad2)*%
X63360000Y-84140000D02*
X62160000Y-84140000D01*
D37*
%TO.N,/Line-R5*%
X41650000Y-83940000D02*
X28260000Y-83940000D01*
%TO.N,/Line-R6*%
X41650000Y-78860000D02*
X36760000Y-78860000D01*
D34*
%TO.N,Net-(R17-Pad2)*%
X60660000Y-85640000D02*
X53160000Y-85640000D01*
X53160000Y-85640000D02*
X51460000Y-83940000D01*
D37*
%TO.N,/Line-R6*%
X36760000Y-78860000D02*
X36640000Y-78740000D01*
%TO.N,/Line-R5*%
X28260000Y-83940000D02*
X26480000Y-82160000D01*
X26480000Y-82160000D02*
X26480000Y-78740000D01*
D35*
%TO.N,Net-(Q5-B)*%
X63360000Y-78840000D02*
X60560000Y-81640000D01*
D34*
%TO.N,Net-(R10-Pad2)*%
X62190000Y-72640000D02*
X60690000Y-74140000D01*
D35*
%TO.N,Net-(Q4-B)*%
X60590000Y-70140000D02*
X56790000Y-70140000D01*
D34*
%TO.N,Net-(Q4-C)*%
X51830000Y-69900000D02*
X52860000Y-68870000D01*
%TO.N,Net-(R10-Pad2)*%
X51490000Y-72440000D02*
X49300000Y-72440000D01*
%TO.N,Net-(Q4-C)*%
X52860000Y-68870000D02*
X56790000Y-68870000D01*
X49300000Y-69900000D02*
X51830000Y-69900000D01*
%TO.N,Net-(R10-Pad2)*%
X63390000Y-72640000D02*
X62190000Y-72640000D01*
D37*
%TO.N,/Line-R4*%
X41680000Y-72440000D02*
X28290000Y-72440000D01*
%TO.N,/Line-R5*%
X41680000Y-67360000D02*
X36790000Y-67360000D01*
D34*
%TO.N,Net-(R10-Pad2)*%
X60690000Y-74140000D02*
X53190000Y-74140000D01*
X53190000Y-74140000D02*
X51490000Y-72440000D01*
D37*
%TO.N,/Line-R5*%
X36790000Y-67360000D02*
X36670000Y-67240000D01*
%TO.N,/Line-R4*%
X28290000Y-72440000D02*
X26510000Y-70660000D01*
X26510000Y-70660000D02*
X26510000Y-67240000D01*
D35*
%TO.N,Net-(Q4-B)*%
X63390000Y-67340000D02*
X60590000Y-70140000D01*
D37*
%TO.N,/Line-R3*%
X26550000Y-59160000D02*
X26550000Y-55740000D01*
X28330000Y-60940000D02*
X26550000Y-59160000D01*
D35*
%TO.N,Net-(Q3-B)*%
X63430000Y-55840000D02*
X60630000Y-58640000D01*
D37*
%TO.N,/Line-R4*%
X36830000Y-55860000D02*
X36710000Y-55740000D01*
D34*
%TO.N,Net-(R9-Pad2)*%
X63430000Y-61140000D02*
X62230000Y-61140000D01*
D37*
%TO.N,/Line-R3*%
X41720000Y-60940000D02*
X28330000Y-60940000D01*
D34*
%TO.N,Net-(R9-Pad2)*%
X60730000Y-62640000D02*
X53230000Y-62640000D01*
D37*
%TO.N,/Line-R4*%
X41720000Y-55860000D02*
X36830000Y-55860000D01*
D34*
%TO.N,Net-(Q3-C)*%
X51870000Y-58400000D02*
X52900000Y-57370000D01*
%TO.N,Net-(R9-Pad2)*%
X53230000Y-62640000D02*
X51530000Y-60940000D01*
X62230000Y-61140000D02*
X60730000Y-62640000D01*
%TO.N,Net-(Q3-C)*%
X49340000Y-58400000D02*
X51870000Y-58400000D01*
D35*
%TO.N,Net-(Q3-B)*%
X60630000Y-58640000D02*
X56830000Y-58640000D01*
D34*
%TO.N,Net-(R9-Pad2)*%
X51530000Y-60940000D02*
X49340000Y-60940000D01*
%TO.N,Net-(Q3-C)*%
X52900000Y-57370000D02*
X56830000Y-57370000D01*
D37*
%TO.N,/Line-R2*%
X26560000Y-48550000D02*
X26560000Y-45130000D01*
X28340000Y-50330000D02*
X26560000Y-48550000D01*
D35*
%TO.N,Net-(Q2-B)*%
X63440000Y-45230000D02*
X60640000Y-48030000D01*
D37*
%TO.N,/Line-R3*%
X36840000Y-45250000D02*
X36720000Y-45130000D01*
D34*
%TO.N,Net-(R5-Pad2)*%
X63440000Y-50530000D02*
X62240000Y-50530000D01*
D37*
%TO.N,/Line-R2*%
X41730000Y-50330000D02*
X28340000Y-50330000D01*
D34*
%TO.N,Net-(R5-Pad2)*%
X60740000Y-52030000D02*
X53240000Y-52030000D01*
D37*
%TO.N,/Line-R3*%
X41730000Y-45250000D02*
X36840000Y-45250000D01*
D34*
%TO.N,Net-(Q2-C)*%
X51880000Y-47790000D02*
X52910000Y-46760000D01*
%TO.N,Net-(R5-Pad2)*%
X53240000Y-52030000D02*
X51540000Y-50330000D01*
X62240000Y-50530000D02*
X60740000Y-52030000D01*
%TO.N,Net-(Q2-C)*%
X49350000Y-47790000D02*
X51880000Y-47790000D01*
D35*
%TO.N,Net-(Q2-B)*%
X60640000Y-48030000D02*
X56840000Y-48030000D01*
D34*
%TO.N,Net-(R5-Pad2)*%
X51540000Y-50330000D02*
X49350000Y-50330000D01*
%TO.N,Net-(Q2-C)*%
X52910000Y-46760000D02*
X56840000Y-46760000D01*
%TO.N,Net-(R1-Pad2)*%
X51540000Y-38940000D02*
X49350000Y-38940000D01*
X53240000Y-40640000D02*
X51540000Y-38940000D01*
X60740000Y-40640000D02*
X53240000Y-40640000D01*
X62240000Y-39140000D02*
X60740000Y-40640000D01*
X63440000Y-39140000D02*
X62240000Y-39140000D01*
%TO.N,Net-(Q1-C)*%
X51880000Y-36400000D02*
X52910000Y-35370000D01*
X49350000Y-36400000D02*
X51880000Y-36400000D01*
X52910000Y-35370000D02*
X56840000Y-35370000D01*
D35*
%TO.N,Net-(Q1-B)*%
X60640000Y-36640000D02*
X56840000Y-36640000D01*
X63440000Y-33840000D02*
X60640000Y-36640000D01*
D37*
%TO.N,/Line-R1*%
X26560000Y-37160000D02*
X26560000Y-33740000D01*
X28340000Y-38940000D02*
X26560000Y-37160000D01*
X41730000Y-38940000D02*
X28340000Y-38940000D01*
%TO.N,/Line-R2*%
X36840000Y-33860000D02*
X36720000Y-33740000D01*
X41730000Y-33860000D02*
X36840000Y-33860000D01*
D36*
%TO.N,+3.3V*%
X107200000Y-87400000D02*
X95600000Y-99000000D01*
X107776300Y-77176300D02*
X107776300Y-86823700D01*
X107540000Y-76940000D02*
X107776300Y-77176300D01*
X107776300Y-86823700D02*
X107200000Y-87400000D01*
%TD*%
%TA.AperFunction,Conductor*%
%TO.N,+5V*%
G36*
X91825974Y-113811988D02*
G01*
X93027963Y-114366752D01*
X93041206Y-114378320D01*
X93057203Y-114385626D01*
X93066973Y-114400829D01*
X93080583Y-114412718D01*
X93085536Y-114429714D01*
X93094977Y-114444404D01*
X93100000Y-114479339D01*
X93100000Y-114715500D01*
X93080315Y-114782539D01*
X93027511Y-114828294D01*
X92976000Y-114839500D01*
X91924298Y-114839500D01*
X91887432Y-114842401D01*
X91887426Y-114842402D01*
X91742267Y-114884576D01*
X91707672Y-114889500D01*
X91086081Y-114889500D01*
X91048980Y-114896880D01*
X91048967Y-114896882D01*
X91035810Y-114899500D01*
X91021158Y-114899500D01*
X90866503Y-114930263D01*
X90832680Y-114944272D01*
X90821935Y-114946627D01*
X90812989Y-114946000D01*
X90795396Y-114949500D01*
X90304604Y-114949500D01*
X90257155Y-114940062D01*
X90233497Y-114930263D01*
X90233493Y-114930262D01*
X90233488Y-114930260D01*
X90078845Y-114899500D01*
X90078842Y-114899500D01*
X89921158Y-114899500D01*
X89921155Y-114899500D01*
X89766510Y-114930261D01*
X89766498Y-114930264D01*
X89620928Y-114990561D01*
X89573476Y-115000000D01*
X89200000Y-115000000D01*
X89200000Y-115618644D01*
X89199500Y-115621158D01*
X89199500Y-115778842D01*
X89200000Y-115781355D01*
X89200000Y-116300000D01*
X89419486Y-116300000D01*
X89486525Y-116319685D01*
X89488377Y-116320898D01*
X89620814Y-116409390D01*
X89620827Y-116409397D01*
X89720060Y-116450500D01*
X89766503Y-116469737D01*
X89921153Y-116500499D01*
X89921156Y-116500500D01*
X89921158Y-116500500D01*
X90078844Y-116500500D01*
X90078845Y-116500499D01*
X90155152Y-116485320D01*
X90233488Y-116469739D01*
X90233489Y-116469738D01*
X90233497Y-116469737D01*
X90257155Y-116459937D01*
X90304604Y-116450500D01*
X90795396Y-116450500D01*
X90842844Y-116459937D01*
X90866503Y-116469737D01*
X90866508Y-116469738D01*
X90866511Y-116469739D01*
X91021153Y-116500499D01*
X91021156Y-116500500D01*
X91021158Y-116500500D01*
X91178844Y-116500500D01*
X91178845Y-116500499D01*
X91333497Y-116469737D01*
X91479179Y-116409394D01*
X91479188Y-116409387D01*
X91484553Y-116406521D01*
X91485585Y-116408452D01*
X91494228Y-116405746D01*
X91510136Y-116395523D01*
X91541105Y-116391070D01*
X91542863Y-116390520D01*
X91545071Y-116390500D01*
X91707672Y-116390500D01*
X91742267Y-116395424D01*
X91887426Y-116437597D01*
X91887429Y-116437597D01*
X91887431Y-116437598D01*
X91924306Y-116440500D01*
X91924314Y-116440500D01*
X92976000Y-116440500D01*
X93043039Y-116460185D01*
X93088794Y-116512989D01*
X93100000Y-116564500D01*
X93100000Y-116873259D01*
X93088979Y-116924364D01*
X91700000Y-119994999D01*
X92494096Y-123672657D01*
X92493593Y-123727229D01*
X92104427Y-125381183D01*
X92090052Y-125416579D01*
X90963504Y-127294159D01*
X90912133Y-127341518D01*
X90843313Y-127353585D01*
X90793868Y-127336984D01*
X87700000Y-125500000D01*
X87699995Y-125499998D01*
X83269027Y-124515339D01*
X83207854Y-124481580D01*
X83178051Y-124432782D01*
X82947666Y-123727229D01*
X82243812Y-121571675D01*
X82238552Y-121547802D01*
X82054263Y-119995000D01*
X81716081Y-117145498D01*
X81727728Y-117076607D01*
X81774771Y-117024948D01*
X81836414Y-117006917D01*
X87010000Y-116890000D01*
X87972575Y-113963380D01*
X88012218Y-113905850D01*
X88076675Y-113878883D01*
X88087744Y-113878152D01*
X91771401Y-113800602D01*
X91825974Y-113811988D01*
G37*
%TD.AperFunction*%
%TD*%
%TA.AperFunction,Conductor*%
%TO.N,+3.3V*%
G36*
X96801546Y-96779273D02*
G01*
X96863091Y-96812345D01*
X96896987Y-96873442D01*
X96900000Y-96900612D01*
X96900000Y-102900000D01*
X98387732Y-107363198D01*
X98390257Y-107433022D01*
X98389105Y-107437231D01*
X97610001Y-110099993D01*
X97609997Y-110100011D01*
X97006931Y-113757956D01*
X96976604Y-113820900D01*
X96968690Y-113828901D01*
X95735624Y-114967116D01*
X95673011Y-114998123D01*
X95651517Y-115000000D01*
X94219812Y-115000000D01*
X94152773Y-114980315D01*
X94107018Y-114927511D01*
X94095885Y-114880259D01*
X94023678Y-112779408D01*
X93890000Y-108890000D01*
X92500000Y-105400000D01*
X90818439Y-101937964D01*
X90806857Y-101869063D01*
X90808548Y-101858681D01*
X91393471Y-99031555D01*
X91421065Y-98975616D01*
X93189805Y-96928268D01*
X93248525Y-96890409D01*
X93250069Y-96889964D01*
X94970749Y-96408189D01*
X95029726Y-96406258D01*
X96801546Y-96779273D01*
G37*
%TD.AperFunction*%
%TD*%
M02*
