%TF.GenerationSoftware,KiCad,Pcbnew,9.0.7*%
%TF.CreationDate,2026-02-02T12:57:02-08:00*%
%TF.ProjectId,foot-pedal-PCB,666f6f74-2d70-4656-9461-6c2d5043422e,rev?*%
%TF.SameCoordinates,Original*%
%TF.FileFunction,Soldermask,Top*%
%TF.FilePolarity,Negative*%
%FSLAX46Y46*%
G04 Gerber Fmt 4.6, Leading zero omitted, Abs format (unit mm)*
G04 Created by KiCad (PCBNEW 9.0.7) date 2026-02-02 12:57:02*
%MOMM*%
%LPD*%
G01*
G04 APERTURE LIST*
G04 Aperture macros list*
%AMRoundRect*
0 Rectangle with rounded corners*
0 $1 Rounding radius*
0 $2 $3 $4 $5 $6 $7 $8 $9 X,Y pos of 4 corners*
0 Add a 4 corners polygon primitive as box body*
4,1,4,$2,$3,$4,$5,$6,$7,$8,$9,$2,$3,0*
0 Add four circle primitives for the rounded corners*
1,1,$1+$1,$2,$3*
1,1,$1+$1,$4,$5*
1,1,$1+$1,$6,$7*
1,1,$1+$1,$8,$9*
0 Add four rect primitives between the rounded corners*
20,1,$1+$1,$2,$3,$4,$5,0*
20,1,$1+$1,$4,$5,$6,$7,0*
20,1,$1+$1,$6,$7,$8,$9,0*
20,1,$1+$1,$8,$9,$2,$3,0*%
G04 Aperture macros list end*
%ADD10C,5.500000*%
%ADD11C,3.500000*%
%ADD12R,1.905000X2.000000*%
%ADD13O,1.905000X2.000000*%
%ADD14C,1.604000*%
%ADD15C,1.600000*%
%ADD16C,2.400000*%
%ADD17RoundRect,0.250000X-0.825000X-0.825000X0.825000X-0.825000X0.825000X0.825000X-0.825000X0.825000X0*%
%ADD18R,2.250000X2.250000*%
%ADD19C,2.250000*%
%ADD20C,1.270000*%
%ADD21C,2.454000*%
%ADD22C,2.220000*%
%ADD23RoundRect,0.250000X-0.550000X0.550000X-0.550000X-0.550000X0.550000X-0.550000X0.550000X0.550000X0*%
G04 APERTURE END LIST*
D10*
%TO.C,H1*%
X166600000Y-76450000D03*
%TD*%
D11*
%TO.C,Q1*%
X173350000Y-101820000D03*
D12*
X170810000Y-118480000D03*
D13*
X173360000Y-122930000D03*
X175890000Y-118480000D03*
%TD*%
D14*
%TO.C,RV3*%
X177400000Y-75350000D03*
X173900000Y-82850000D03*
%TD*%
D15*
%TO.C,R5*%
X169530000Y-88900000D03*
X159370000Y-88900000D03*
%TD*%
%TO.C,R3*%
X159470000Y-84450000D03*
X169630000Y-84450000D03*
%TD*%
D16*
%TO.C,R1*%
X157360000Y-79200000D03*
X137040000Y-79200000D03*
%TD*%
D17*
%TO.C,J4*%
X130400000Y-55300000D03*
%TD*%
D18*
%TO.C,RV1*%
X149800000Y-91600000D03*
D19*
X153550000Y-91600000D03*
X149800000Y-116600000D03*
%TD*%
D17*
%TO.C,J5*%
X130700000Y-80750000D03*
%TD*%
D16*
%TO.C,C2*%
X176800000Y-60950000D03*
X161800000Y-60950000D03*
%TD*%
D20*
%TO.C,RV2*%
X130200000Y-61503949D03*
X131996051Y-63300000D03*
X130200000Y-65096051D03*
%TD*%
D21*
%TO.C,J8*%
X162300000Y-118550000D03*
X162300000Y-95950000D03*
%TD*%
D22*
%TO.C,J1*%
X148300000Y-72300000D03*
X148300000Y-67220000D03*
%TD*%
D16*
%TO.C,R4*%
X139850000Y-72960000D03*
X139850000Y-52640000D03*
%TD*%
%TO.C,C3*%
X176800000Y-54350000D03*
X161800000Y-54350000D03*
%TD*%
D23*
%TO.C,D1*%
X176650000Y-88940000D03*
D15*
X176650000Y-96560000D03*
%TD*%
D17*
%TO.C,J6*%
X130800000Y-86550000D03*
%TD*%
D16*
%TO.C,C1*%
X176800000Y-67300000D03*
X161800000Y-67300000D03*
%TD*%
D15*
%TO.C,R2*%
X155050000Y-63030000D03*
X155050000Y-52870000D03*
%TD*%
D22*
%TO.C,J2*%
X148400000Y-59000000D03*
X148400000Y-53920000D03*
%TD*%
D17*
%TO.C,J3*%
X130296051Y-71729301D03*
%TD*%
%TO.C,J7*%
X130800000Y-92070000D03*
%TD*%
M02*
