%TF.GenerationSoftware,KiCad,Pcbnew,9.0.7*%
%TF.CreationDate,2026-02-02T12:57:02-08:00*%
%TF.ProjectId,foot-pedal-PCB,666f6f74-2d70-4656-9461-6c2d5043422e,rev?*%
%TF.SameCoordinates,Original*%
%TF.FileFunction,Legend,Top*%
%TF.FilePolarity,Positive*%
%FSLAX46Y46*%
G04 Gerber Fmt 4.6, Leading zero omitted, Abs format (unit mm)*
G04 Created by KiCad (PCBNEW 9.0.7) date 2026-02-02 12:57:02*
%MOMM*%
%LPD*%
G01*
G04 APERTURE LIST*
%ADD10C,0.100000*%
%ADD11C,0.150000*%
%ADD12C,0.254000*%
%ADD13C,0.120000*%
%ADD14C,0.127000*%
%ADD15C,0.200000*%
%ADD16C,0.152400*%
G04 APERTURE END LIST*
D10*
X129208646Y-89362419D02*
X129827693Y-89362419D01*
X129827693Y-89362419D02*
X129494360Y-89743371D01*
X129494360Y-89743371D02*
X129637217Y-89743371D01*
X129637217Y-89743371D02*
X129732455Y-89790990D01*
X129732455Y-89790990D02*
X129780074Y-89838609D01*
X129780074Y-89838609D02*
X129827693Y-89933847D01*
X129827693Y-89933847D02*
X129827693Y-90171942D01*
X129827693Y-90171942D02*
X129780074Y-90267180D01*
X129780074Y-90267180D02*
X129732455Y-90314800D01*
X129732455Y-90314800D02*
X129637217Y-90362419D01*
X129637217Y-90362419D02*
X129351503Y-90362419D01*
X129351503Y-90362419D02*
X129256265Y-90314800D01*
X129256265Y-90314800D02*
X129208646Y-90267180D01*
X130256265Y-90267180D02*
X130303884Y-90314800D01*
X130303884Y-90314800D02*
X130256265Y-90362419D01*
X130256265Y-90362419D02*
X130208646Y-90314800D01*
X130208646Y-90314800D02*
X130256265Y-90267180D01*
X130256265Y-90267180D02*
X130256265Y-90362419D01*
X130637217Y-89362419D02*
X131256264Y-89362419D01*
X131256264Y-89362419D02*
X130922931Y-89743371D01*
X130922931Y-89743371D02*
X131065788Y-89743371D01*
X131065788Y-89743371D02*
X131161026Y-89790990D01*
X131161026Y-89790990D02*
X131208645Y-89838609D01*
X131208645Y-89838609D02*
X131256264Y-89933847D01*
X131256264Y-89933847D02*
X131256264Y-90171942D01*
X131256264Y-90171942D02*
X131208645Y-90267180D01*
X131208645Y-90267180D02*
X131161026Y-90314800D01*
X131161026Y-90314800D02*
X131065788Y-90362419D01*
X131065788Y-90362419D02*
X130780074Y-90362419D01*
X130780074Y-90362419D02*
X130684836Y-90314800D01*
X130684836Y-90314800D02*
X130637217Y-90267180D01*
X131541979Y-89362419D02*
X131875312Y-90362419D01*
X131875312Y-90362419D02*
X132208645Y-89362419D01*
X129256265Y-84794800D02*
X129399122Y-84842419D01*
X129399122Y-84842419D02*
X129637217Y-84842419D01*
X129637217Y-84842419D02*
X129732455Y-84794800D01*
X129732455Y-84794800D02*
X129780074Y-84747180D01*
X129780074Y-84747180D02*
X129827693Y-84651942D01*
X129827693Y-84651942D02*
X129827693Y-84556704D01*
X129827693Y-84556704D02*
X129780074Y-84461466D01*
X129780074Y-84461466D02*
X129732455Y-84413847D01*
X129732455Y-84413847D02*
X129637217Y-84366228D01*
X129637217Y-84366228D02*
X129446741Y-84318609D01*
X129446741Y-84318609D02*
X129351503Y-84270990D01*
X129351503Y-84270990D02*
X129303884Y-84223371D01*
X129303884Y-84223371D02*
X129256265Y-84128133D01*
X129256265Y-84128133D02*
X129256265Y-84032895D01*
X129256265Y-84032895D02*
X129303884Y-83937657D01*
X129303884Y-83937657D02*
X129351503Y-83890038D01*
X129351503Y-83890038D02*
X129446741Y-83842419D01*
X129446741Y-83842419D02*
X129684836Y-83842419D01*
X129684836Y-83842419D02*
X129827693Y-83890038D01*
X130256265Y-84175752D02*
X130256265Y-85175752D01*
X130256265Y-84223371D02*
X130351503Y-84175752D01*
X130351503Y-84175752D02*
X130541979Y-84175752D01*
X130541979Y-84175752D02*
X130637217Y-84223371D01*
X130637217Y-84223371D02*
X130684836Y-84270990D01*
X130684836Y-84270990D02*
X130732455Y-84366228D01*
X130732455Y-84366228D02*
X130732455Y-84651942D01*
X130732455Y-84651942D02*
X130684836Y-84747180D01*
X130684836Y-84747180D02*
X130637217Y-84794800D01*
X130637217Y-84794800D02*
X130541979Y-84842419D01*
X130541979Y-84842419D02*
X130351503Y-84842419D01*
X130351503Y-84842419D02*
X130256265Y-84794800D01*
X131541979Y-84794800D02*
X131446741Y-84842419D01*
X131446741Y-84842419D02*
X131256265Y-84842419D01*
X131256265Y-84842419D02*
X131161027Y-84794800D01*
X131161027Y-84794800D02*
X131113408Y-84699561D01*
X131113408Y-84699561D02*
X131113408Y-84318609D01*
X131113408Y-84318609D02*
X131161027Y-84223371D01*
X131161027Y-84223371D02*
X131256265Y-84175752D01*
X131256265Y-84175752D02*
X131446741Y-84175752D01*
X131446741Y-84175752D02*
X131541979Y-84223371D01*
X131541979Y-84223371D02*
X131589598Y-84318609D01*
X131589598Y-84318609D02*
X131589598Y-84413847D01*
X131589598Y-84413847D02*
X131113408Y-84509085D01*
X132399122Y-84794800D02*
X132303884Y-84842419D01*
X132303884Y-84842419D02*
X132113408Y-84842419D01*
X132113408Y-84842419D02*
X132018170Y-84794800D01*
X132018170Y-84794800D02*
X131970551Y-84699561D01*
X131970551Y-84699561D02*
X131970551Y-84318609D01*
X131970551Y-84318609D02*
X132018170Y-84223371D01*
X132018170Y-84223371D02*
X132113408Y-84175752D01*
X132113408Y-84175752D02*
X132303884Y-84175752D01*
X132303884Y-84175752D02*
X132399122Y-84223371D01*
X132399122Y-84223371D02*
X132446741Y-84318609D01*
X132446741Y-84318609D02*
X132446741Y-84413847D01*
X132446741Y-84413847D02*
X131970551Y-84509085D01*
X133303884Y-84842419D02*
X133303884Y-83842419D01*
X133303884Y-84794800D02*
X133208646Y-84842419D01*
X133208646Y-84842419D02*
X133018170Y-84842419D01*
X133018170Y-84842419D02*
X132922932Y-84794800D01*
X132922932Y-84794800D02*
X132875313Y-84747180D01*
X132875313Y-84747180D02*
X132827694Y-84651942D01*
X132827694Y-84651942D02*
X132827694Y-84366228D01*
X132827694Y-84366228D02*
X132875313Y-84270990D01*
X132875313Y-84270990D02*
X132922932Y-84223371D01*
X132922932Y-84223371D02*
X133018170Y-84175752D01*
X133018170Y-84175752D02*
X133208646Y-84175752D01*
X133208646Y-84175752D02*
X133303884Y-84223371D01*
X135113408Y-84747180D02*
X135065789Y-84794800D01*
X135065789Y-84794800D02*
X134922932Y-84842419D01*
X134922932Y-84842419D02*
X134827694Y-84842419D01*
X134827694Y-84842419D02*
X134684837Y-84794800D01*
X134684837Y-84794800D02*
X134589599Y-84699561D01*
X134589599Y-84699561D02*
X134541980Y-84604323D01*
X134541980Y-84604323D02*
X134494361Y-84413847D01*
X134494361Y-84413847D02*
X134494361Y-84270990D01*
X134494361Y-84270990D02*
X134541980Y-84080514D01*
X134541980Y-84080514D02*
X134589599Y-83985276D01*
X134589599Y-83985276D02*
X134684837Y-83890038D01*
X134684837Y-83890038D02*
X134827694Y-83842419D01*
X134827694Y-83842419D02*
X134922932Y-83842419D01*
X134922932Y-83842419D02*
X135065789Y-83890038D01*
X135065789Y-83890038D02*
X135113408Y-83937657D01*
X135684837Y-84842419D02*
X135589599Y-84794800D01*
X135589599Y-84794800D02*
X135541980Y-84747180D01*
X135541980Y-84747180D02*
X135494361Y-84651942D01*
X135494361Y-84651942D02*
X135494361Y-84366228D01*
X135494361Y-84366228D02*
X135541980Y-84270990D01*
X135541980Y-84270990D02*
X135589599Y-84223371D01*
X135589599Y-84223371D02*
X135684837Y-84175752D01*
X135684837Y-84175752D02*
X135827694Y-84175752D01*
X135827694Y-84175752D02*
X135922932Y-84223371D01*
X135922932Y-84223371D02*
X135970551Y-84270990D01*
X135970551Y-84270990D02*
X136018170Y-84366228D01*
X136018170Y-84366228D02*
X136018170Y-84651942D01*
X136018170Y-84651942D02*
X135970551Y-84747180D01*
X135970551Y-84747180D02*
X135922932Y-84794800D01*
X135922932Y-84794800D02*
X135827694Y-84842419D01*
X135827694Y-84842419D02*
X135684837Y-84842419D01*
X136446742Y-84175752D02*
X136446742Y-84842419D01*
X136446742Y-84270990D02*
X136494361Y-84223371D01*
X136494361Y-84223371D02*
X136589599Y-84175752D01*
X136589599Y-84175752D02*
X136732456Y-84175752D01*
X136732456Y-84175752D02*
X136827694Y-84223371D01*
X136827694Y-84223371D02*
X136875313Y-84318609D01*
X136875313Y-84318609D02*
X136875313Y-84842419D01*
X137208647Y-84175752D02*
X137589599Y-84175752D01*
X137351504Y-83842419D02*
X137351504Y-84699561D01*
X137351504Y-84699561D02*
X137399123Y-84794800D01*
X137399123Y-84794800D02*
X137494361Y-84842419D01*
X137494361Y-84842419D02*
X137589599Y-84842419D01*
X137922933Y-84842419D02*
X137922933Y-84175752D01*
X137922933Y-84366228D02*
X137970552Y-84270990D01*
X137970552Y-84270990D02*
X138018171Y-84223371D01*
X138018171Y-84223371D02*
X138113409Y-84175752D01*
X138113409Y-84175752D02*
X138208647Y-84175752D01*
X138684838Y-84842419D02*
X138589600Y-84794800D01*
X138589600Y-84794800D02*
X138541981Y-84747180D01*
X138541981Y-84747180D02*
X138494362Y-84651942D01*
X138494362Y-84651942D02*
X138494362Y-84366228D01*
X138494362Y-84366228D02*
X138541981Y-84270990D01*
X138541981Y-84270990D02*
X138589600Y-84223371D01*
X138589600Y-84223371D02*
X138684838Y-84175752D01*
X138684838Y-84175752D02*
X138827695Y-84175752D01*
X138827695Y-84175752D02*
X138922933Y-84223371D01*
X138922933Y-84223371D02*
X138970552Y-84270990D01*
X138970552Y-84270990D02*
X139018171Y-84366228D01*
X139018171Y-84366228D02*
X139018171Y-84651942D01*
X139018171Y-84651942D02*
X138970552Y-84747180D01*
X138970552Y-84747180D02*
X138922933Y-84794800D01*
X138922933Y-84794800D02*
X138827695Y-84842419D01*
X138827695Y-84842419D02*
X138684838Y-84842419D01*
X139589600Y-84842419D02*
X139494362Y-84794800D01*
X139494362Y-84794800D02*
X139446743Y-84699561D01*
X139446743Y-84699561D02*
X139446743Y-83842419D01*
X129727693Y-78090038D02*
X129632455Y-78042419D01*
X129632455Y-78042419D02*
X129489598Y-78042419D01*
X129489598Y-78042419D02*
X129346741Y-78090038D01*
X129346741Y-78090038D02*
X129251503Y-78185276D01*
X129251503Y-78185276D02*
X129203884Y-78280514D01*
X129203884Y-78280514D02*
X129156265Y-78470990D01*
X129156265Y-78470990D02*
X129156265Y-78613847D01*
X129156265Y-78613847D02*
X129203884Y-78804323D01*
X129203884Y-78804323D02*
X129251503Y-78899561D01*
X129251503Y-78899561D02*
X129346741Y-78994800D01*
X129346741Y-78994800D02*
X129489598Y-79042419D01*
X129489598Y-79042419D02*
X129584836Y-79042419D01*
X129584836Y-79042419D02*
X129727693Y-78994800D01*
X129727693Y-78994800D02*
X129775312Y-78947180D01*
X129775312Y-78947180D02*
X129775312Y-78613847D01*
X129775312Y-78613847D02*
X129584836Y-78613847D01*
X130203884Y-79042419D02*
X130203884Y-78042419D01*
X130203884Y-78042419D02*
X130775312Y-79042419D01*
X130775312Y-79042419D02*
X130775312Y-78042419D01*
X131251503Y-79042419D02*
X131251503Y-78042419D01*
X131251503Y-78042419D02*
X131489598Y-78042419D01*
X131489598Y-78042419D02*
X131632455Y-78090038D01*
X131632455Y-78090038D02*
X131727693Y-78185276D01*
X131727693Y-78185276D02*
X131775312Y-78280514D01*
X131775312Y-78280514D02*
X131822931Y-78470990D01*
X131822931Y-78470990D02*
X131822931Y-78613847D01*
X131822931Y-78613847D02*
X131775312Y-78804323D01*
X131775312Y-78804323D02*
X131727693Y-78899561D01*
X131727693Y-78899561D02*
X131632455Y-78994800D01*
X131632455Y-78994800D02*
X131489598Y-79042419D01*
X131489598Y-79042419D02*
X131251503Y-79042419D01*
X132251503Y-79042419D02*
X132251503Y-78042419D01*
X132251503Y-78042419D02*
X132489598Y-78042419D01*
X132489598Y-78042419D02*
X132632455Y-78090038D01*
X132632455Y-78090038D02*
X132727693Y-78185276D01*
X132727693Y-78185276D02*
X132775312Y-78280514D01*
X132775312Y-78280514D02*
X132822931Y-78470990D01*
X132822931Y-78470990D02*
X132822931Y-78613847D01*
X132822931Y-78613847D02*
X132775312Y-78804323D01*
X132775312Y-78804323D02*
X132727693Y-78899561D01*
X132727693Y-78899561D02*
X132632455Y-78994800D01*
X132632455Y-78994800D02*
X132489598Y-79042419D01*
X132489598Y-79042419D02*
X132251503Y-79042419D01*
X132971363Y-72272419D02*
X132638030Y-71796228D01*
X132399935Y-72272419D02*
X132399935Y-71272419D01*
X132399935Y-71272419D02*
X132780887Y-71272419D01*
X132780887Y-71272419D02*
X132876125Y-71320038D01*
X132876125Y-71320038D02*
X132923744Y-71367657D01*
X132923744Y-71367657D02*
X132971363Y-71462895D01*
X132971363Y-71462895D02*
X132971363Y-71605752D01*
X132971363Y-71605752D02*
X132923744Y-71700990D01*
X132923744Y-71700990D02*
X132876125Y-71748609D01*
X132876125Y-71748609D02*
X132780887Y-71796228D01*
X132780887Y-71796228D02*
X132399935Y-71796228D01*
X134352316Y-71272419D02*
X134542792Y-71272419D01*
X134542792Y-71272419D02*
X134638030Y-71320038D01*
X134638030Y-71320038D02*
X134733268Y-71415276D01*
X134733268Y-71415276D02*
X134780887Y-71605752D01*
X134780887Y-71605752D02*
X134780887Y-71939085D01*
X134780887Y-71939085D02*
X134733268Y-72129561D01*
X134733268Y-72129561D02*
X134638030Y-72224800D01*
X134638030Y-72224800D02*
X134542792Y-72272419D01*
X134542792Y-72272419D02*
X134352316Y-72272419D01*
X134352316Y-72272419D02*
X134257078Y-72224800D01*
X134257078Y-72224800D02*
X134161840Y-72129561D01*
X134161840Y-72129561D02*
X134114221Y-71939085D01*
X134114221Y-71939085D02*
X134114221Y-71605752D01*
X134114221Y-71605752D02*
X134161840Y-71415276D01*
X134161840Y-71415276D02*
X134257078Y-71320038D01*
X134257078Y-71320038D02*
X134352316Y-71272419D01*
X135209459Y-71272419D02*
X135209459Y-72081942D01*
X135209459Y-72081942D02*
X135257078Y-72177180D01*
X135257078Y-72177180D02*
X135304697Y-72224800D01*
X135304697Y-72224800D02*
X135399935Y-72272419D01*
X135399935Y-72272419D02*
X135590411Y-72272419D01*
X135590411Y-72272419D02*
X135685649Y-72224800D01*
X135685649Y-72224800D02*
X135733268Y-72177180D01*
X135733268Y-72177180D02*
X135780887Y-72081942D01*
X135780887Y-72081942D02*
X135780887Y-71272419D01*
X136114221Y-71272419D02*
X136685649Y-71272419D01*
X136399935Y-72272419D02*
X136399935Y-71272419D01*
X133725312Y-55922419D02*
X133391979Y-55446228D01*
X133153884Y-55922419D02*
X133153884Y-54922419D01*
X133153884Y-54922419D02*
X133534836Y-54922419D01*
X133534836Y-54922419D02*
X133630074Y-54970038D01*
X133630074Y-54970038D02*
X133677693Y-55017657D01*
X133677693Y-55017657D02*
X133725312Y-55112895D01*
X133725312Y-55112895D02*
X133725312Y-55255752D01*
X133725312Y-55255752D02*
X133677693Y-55350990D01*
X133677693Y-55350990D02*
X133630074Y-55398609D01*
X133630074Y-55398609D02*
X133534836Y-55446228D01*
X133534836Y-55446228D02*
X133153884Y-55446228D01*
X134915789Y-55922419D02*
X134915789Y-54922419D01*
X135391979Y-55922419D02*
X135391979Y-54922419D01*
X135391979Y-54922419D02*
X135963407Y-55922419D01*
X135963407Y-55922419D02*
X135963407Y-54922419D01*
X145336704Y-59243734D02*
X145336704Y-58767544D01*
X145622419Y-59338972D02*
X144622419Y-59005639D01*
X144622419Y-59005639D02*
X145622419Y-58672306D01*
X145527180Y-57767544D02*
X145574800Y-57815163D01*
X145574800Y-57815163D02*
X145622419Y-57958020D01*
X145622419Y-57958020D02*
X145622419Y-58053258D01*
X145622419Y-58053258D02*
X145574800Y-58196115D01*
X145574800Y-58196115D02*
X145479561Y-58291353D01*
X145479561Y-58291353D02*
X145384323Y-58338972D01*
X145384323Y-58338972D02*
X145193847Y-58386591D01*
X145193847Y-58386591D02*
X145050990Y-58386591D01*
X145050990Y-58386591D02*
X144860514Y-58338972D01*
X144860514Y-58338972D02*
X144765276Y-58291353D01*
X144765276Y-58291353D02*
X144670038Y-58196115D01*
X144670038Y-58196115D02*
X144622419Y-58053258D01*
X144622419Y-58053258D02*
X144622419Y-57958020D01*
X144622419Y-57958020D02*
X144670038Y-57815163D01*
X144670038Y-57815163D02*
X144717657Y-57767544D01*
X144670038Y-56053258D02*
X144622419Y-56148496D01*
X144622419Y-56148496D02*
X144622419Y-56291353D01*
X144622419Y-56291353D02*
X144670038Y-56434210D01*
X144670038Y-56434210D02*
X144765276Y-56529448D01*
X144765276Y-56529448D02*
X144860514Y-56577067D01*
X144860514Y-56577067D02*
X145050990Y-56624686D01*
X145050990Y-56624686D02*
X145193847Y-56624686D01*
X145193847Y-56624686D02*
X145384323Y-56577067D01*
X145384323Y-56577067D02*
X145479561Y-56529448D01*
X145479561Y-56529448D02*
X145574800Y-56434210D01*
X145574800Y-56434210D02*
X145622419Y-56291353D01*
X145622419Y-56291353D02*
X145622419Y-56196115D01*
X145622419Y-56196115D02*
X145574800Y-56053258D01*
X145574800Y-56053258D02*
X145527180Y-56005639D01*
X145527180Y-56005639D02*
X145193847Y-56005639D01*
X145193847Y-56005639D02*
X145193847Y-56196115D01*
X145622419Y-55577067D02*
X144622419Y-55577067D01*
X144622419Y-55577067D02*
X145622419Y-55005639D01*
X145622419Y-55005639D02*
X144622419Y-55005639D01*
X145622419Y-54529448D02*
X144622419Y-54529448D01*
X144622419Y-54529448D02*
X144622419Y-54291353D01*
X144622419Y-54291353D02*
X144670038Y-54148496D01*
X144670038Y-54148496D02*
X144765276Y-54053258D01*
X144765276Y-54053258D02*
X144860514Y-54005639D01*
X144860514Y-54005639D02*
X145050990Y-53958020D01*
X145050990Y-53958020D02*
X145193847Y-53958020D01*
X145193847Y-53958020D02*
X145384323Y-54005639D01*
X145384323Y-54005639D02*
X145479561Y-54053258D01*
X145479561Y-54053258D02*
X145574800Y-54148496D01*
X145574800Y-54148496D02*
X145622419Y-54291353D01*
X145622419Y-54291353D02*
X145622419Y-54529448D01*
X145086704Y-73243734D02*
X145086704Y-72767544D01*
X145372419Y-73338972D02*
X144372419Y-73005639D01*
X144372419Y-73005639D02*
X145372419Y-72672306D01*
X145277180Y-71767544D02*
X145324800Y-71815163D01*
X145324800Y-71815163D02*
X145372419Y-71958020D01*
X145372419Y-71958020D02*
X145372419Y-72053258D01*
X145372419Y-72053258D02*
X145324800Y-72196115D01*
X145324800Y-72196115D02*
X145229561Y-72291353D01*
X145229561Y-72291353D02*
X145134323Y-72338972D01*
X145134323Y-72338972D02*
X144943847Y-72386591D01*
X144943847Y-72386591D02*
X144800990Y-72386591D01*
X144800990Y-72386591D02*
X144610514Y-72338972D01*
X144610514Y-72338972D02*
X144515276Y-72291353D01*
X144515276Y-72291353D02*
X144420038Y-72196115D01*
X144420038Y-72196115D02*
X144372419Y-72053258D01*
X144372419Y-72053258D02*
X144372419Y-71958020D01*
X144372419Y-71958020D02*
X144420038Y-71815163D01*
X144420038Y-71815163D02*
X144467657Y-71767544D01*
X145372419Y-70577067D02*
X144372419Y-70577067D01*
X144372419Y-70577067D02*
X145086704Y-70243734D01*
X145086704Y-70243734D02*
X144372419Y-69910401D01*
X144372419Y-69910401D02*
X145372419Y-69910401D01*
X145086704Y-69481829D02*
X145086704Y-69005639D01*
X145372419Y-69577067D02*
X144372419Y-69243734D01*
X144372419Y-69243734D02*
X145372419Y-68910401D01*
X145372419Y-68577067D02*
X144372419Y-68577067D01*
X145372419Y-68100877D02*
X144372419Y-68100877D01*
X144372419Y-68100877D02*
X145372419Y-67529449D01*
X145372419Y-67529449D02*
X144372419Y-67529449D01*
X145324800Y-67100877D02*
X145372419Y-66958020D01*
X145372419Y-66958020D02*
X145372419Y-66719925D01*
X145372419Y-66719925D02*
X145324800Y-66624687D01*
X145324800Y-66624687D02*
X145277180Y-66577068D01*
X145277180Y-66577068D02*
X145181942Y-66529449D01*
X145181942Y-66529449D02*
X145086704Y-66529449D01*
X145086704Y-66529449D02*
X144991466Y-66577068D01*
X144991466Y-66577068D02*
X144943847Y-66624687D01*
X144943847Y-66624687D02*
X144896228Y-66719925D01*
X144896228Y-66719925D02*
X144848609Y-66910401D01*
X144848609Y-66910401D02*
X144800990Y-67005639D01*
X144800990Y-67005639D02*
X144753371Y-67053258D01*
X144753371Y-67053258D02*
X144658133Y-67100877D01*
X144658133Y-67100877D02*
X144562895Y-67100877D01*
X144562895Y-67100877D02*
X144467657Y-67053258D01*
X144467657Y-67053258D02*
X144420038Y-67005639D01*
X144420038Y-67005639D02*
X144372419Y-66910401D01*
X144372419Y-66910401D02*
X144372419Y-66672306D01*
X144372419Y-66672306D02*
X144420038Y-66529449D01*
D11*
X173254761Y-98620057D02*
X173159523Y-98572438D01*
X173159523Y-98572438D02*
X173064285Y-98477200D01*
X173064285Y-98477200D02*
X172921428Y-98334342D01*
X172921428Y-98334342D02*
X172826190Y-98286723D01*
X172826190Y-98286723D02*
X172730952Y-98286723D01*
X172778571Y-98524819D02*
X172683333Y-98477200D01*
X172683333Y-98477200D02*
X172588095Y-98381961D01*
X172588095Y-98381961D02*
X172540476Y-98191485D01*
X172540476Y-98191485D02*
X172540476Y-97858152D01*
X172540476Y-97858152D02*
X172588095Y-97667676D01*
X172588095Y-97667676D02*
X172683333Y-97572438D01*
X172683333Y-97572438D02*
X172778571Y-97524819D01*
X172778571Y-97524819D02*
X172969047Y-97524819D01*
X172969047Y-97524819D02*
X173064285Y-97572438D01*
X173064285Y-97572438D02*
X173159523Y-97667676D01*
X173159523Y-97667676D02*
X173207142Y-97858152D01*
X173207142Y-97858152D02*
X173207142Y-98191485D01*
X173207142Y-98191485D02*
X173159523Y-98381961D01*
X173159523Y-98381961D02*
X173064285Y-98477200D01*
X173064285Y-98477200D02*
X172969047Y-98524819D01*
X172969047Y-98524819D02*
X172778571Y-98524819D01*
X174159523Y-98524819D02*
X173588095Y-98524819D01*
X173873809Y-98524819D02*
X173873809Y-97524819D01*
X173873809Y-97524819D02*
X173778571Y-97667676D01*
X173778571Y-97667676D02*
X173683333Y-97762914D01*
X173683333Y-97762914D02*
X173588095Y-97810533D01*
X169321904Y-124661009D02*
X169464761Y-124708628D01*
X169464761Y-124708628D02*
X169512380Y-124756247D01*
X169512380Y-124756247D02*
X169559999Y-124851485D01*
X169559999Y-124851485D02*
X169559999Y-124994342D01*
X169559999Y-124994342D02*
X169512380Y-125089580D01*
X169512380Y-125089580D02*
X169464761Y-125137200D01*
X169464761Y-125137200D02*
X169369523Y-125184819D01*
X169369523Y-125184819D02*
X168988571Y-125184819D01*
X168988571Y-125184819D02*
X168988571Y-124184819D01*
X168988571Y-124184819D02*
X169321904Y-124184819D01*
X169321904Y-124184819D02*
X169417142Y-124232438D01*
X169417142Y-124232438D02*
X169464761Y-124280057D01*
X169464761Y-124280057D02*
X169512380Y-124375295D01*
X169512380Y-124375295D02*
X169512380Y-124470533D01*
X169512380Y-124470533D02*
X169464761Y-124565771D01*
X169464761Y-124565771D02*
X169417142Y-124613390D01*
X169417142Y-124613390D02*
X169321904Y-124661009D01*
X169321904Y-124661009D02*
X168988571Y-124661009D01*
X169845714Y-124184819D02*
X170417142Y-124184819D01*
X170131428Y-125184819D02*
X170131428Y-124184819D01*
X171274285Y-125184819D02*
X170702857Y-125184819D01*
X170988571Y-125184819D02*
X170988571Y-124184819D01*
X170988571Y-124184819D02*
X170893333Y-124327676D01*
X170893333Y-124327676D02*
X170798095Y-124422914D01*
X170798095Y-124422914D02*
X170702857Y-124470533D01*
X171607619Y-124184819D02*
X172226666Y-124184819D01*
X172226666Y-124184819D02*
X171893333Y-124565771D01*
X171893333Y-124565771D02*
X172036190Y-124565771D01*
X172036190Y-124565771D02*
X172131428Y-124613390D01*
X172131428Y-124613390D02*
X172179047Y-124661009D01*
X172179047Y-124661009D02*
X172226666Y-124756247D01*
X172226666Y-124756247D02*
X172226666Y-124994342D01*
X172226666Y-124994342D02*
X172179047Y-125089580D01*
X172179047Y-125089580D02*
X172131428Y-125137200D01*
X172131428Y-125137200D02*
X172036190Y-125184819D01*
X172036190Y-125184819D02*
X171750476Y-125184819D01*
X171750476Y-125184819D02*
X171655238Y-125137200D01*
X171655238Y-125137200D02*
X171607619Y-125089580D01*
X172560000Y-124184819D02*
X173226666Y-124184819D01*
X173226666Y-124184819D02*
X172798095Y-125184819D01*
X173607619Y-124803866D02*
X174369524Y-124803866D01*
X175274285Y-124184819D02*
X175083809Y-124184819D01*
X175083809Y-124184819D02*
X174988571Y-124232438D01*
X174988571Y-124232438D02*
X174940952Y-124280057D01*
X174940952Y-124280057D02*
X174845714Y-124422914D01*
X174845714Y-124422914D02*
X174798095Y-124613390D01*
X174798095Y-124613390D02*
X174798095Y-124994342D01*
X174798095Y-124994342D02*
X174845714Y-125089580D01*
X174845714Y-125089580D02*
X174893333Y-125137200D01*
X174893333Y-125137200D02*
X174988571Y-125184819D01*
X174988571Y-125184819D02*
X175179047Y-125184819D01*
X175179047Y-125184819D02*
X175274285Y-125137200D01*
X175274285Y-125137200D02*
X175321904Y-125089580D01*
X175321904Y-125089580D02*
X175369523Y-124994342D01*
X175369523Y-124994342D02*
X175369523Y-124756247D01*
X175369523Y-124756247D02*
X175321904Y-124661009D01*
X175321904Y-124661009D02*
X175274285Y-124613390D01*
X175274285Y-124613390D02*
X175179047Y-124565771D01*
X175179047Y-124565771D02*
X174988571Y-124565771D01*
X174988571Y-124565771D02*
X174893333Y-124613390D01*
X174893333Y-124613390D02*
X174845714Y-124661009D01*
X174845714Y-124661009D02*
X174798095Y-124756247D01*
X175988571Y-124184819D02*
X176083809Y-124184819D01*
X176083809Y-124184819D02*
X176179047Y-124232438D01*
X176179047Y-124232438D02*
X176226666Y-124280057D01*
X176226666Y-124280057D02*
X176274285Y-124375295D01*
X176274285Y-124375295D02*
X176321904Y-124565771D01*
X176321904Y-124565771D02*
X176321904Y-124803866D01*
X176321904Y-124803866D02*
X176274285Y-124994342D01*
X176274285Y-124994342D02*
X176226666Y-125089580D01*
X176226666Y-125089580D02*
X176179047Y-125137200D01*
X176179047Y-125137200D02*
X176083809Y-125184819D01*
X176083809Y-125184819D02*
X175988571Y-125184819D01*
X175988571Y-125184819D02*
X175893333Y-125137200D01*
X175893333Y-125137200D02*
X175845714Y-125089580D01*
X175845714Y-125089580D02*
X175798095Y-124994342D01*
X175798095Y-124994342D02*
X175750476Y-124803866D01*
X175750476Y-124803866D02*
X175750476Y-124565771D01*
X175750476Y-124565771D02*
X175798095Y-124375295D01*
X175798095Y-124375295D02*
X175845714Y-124280057D01*
X175845714Y-124280057D02*
X175893333Y-124232438D01*
X175893333Y-124232438D02*
X175988571Y-124184819D01*
X176940952Y-124184819D02*
X177036190Y-124184819D01*
X177036190Y-124184819D02*
X177131428Y-124232438D01*
X177131428Y-124232438D02*
X177179047Y-124280057D01*
X177179047Y-124280057D02*
X177226666Y-124375295D01*
X177226666Y-124375295D02*
X177274285Y-124565771D01*
X177274285Y-124565771D02*
X177274285Y-124803866D01*
X177274285Y-124803866D02*
X177226666Y-124994342D01*
X177226666Y-124994342D02*
X177179047Y-125089580D01*
X177179047Y-125089580D02*
X177131428Y-125137200D01*
X177131428Y-125137200D02*
X177036190Y-125184819D01*
X177036190Y-125184819D02*
X176940952Y-125184819D01*
X176940952Y-125184819D02*
X176845714Y-125137200D01*
X176845714Y-125137200D02*
X176798095Y-125089580D01*
X176798095Y-125089580D02*
X176750476Y-124994342D01*
X176750476Y-124994342D02*
X176702857Y-124803866D01*
X176702857Y-124803866D02*
X176702857Y-124565771D01*
X176702857Y-124565771D02*
X176750476Y-124375295D01*
X176750476Y-124375295D02*
X176798095Y-124280057D01*
X176798095Y-124280057D02*
X176845714Y-124232438D01*
X176845714Y-124232438D02*
X176940952Y-124184819D01*
X177702857Y-124661009D02*
X178036190Y-124661009D01*
X178179047Y-125184819D02*
X177702857Y-125184819D01*
X177702857Y-125184819D02*
X177702857Y-124184819D01*
X177702857Y-124184819D02*
X178179047Y-124184819D01*
X176104819Y-79695238D02*
X175628628Y-80028571D01*
X176104819Y-80266666D02*
X175104819Y-80266666D01*
X175104819Y-80266666D02*
X175104819Y-79885714D01*
X175104819Y-79885714D02*
X175152438Y-79790476D01*
X175152438Y-79790476D02*
X175200057Y-79742857D01*
X175200057Y-79742857D02*
X175295295Y-79695238D01*
X175295295Y-79695238D02*
X175438152Y-79695238D01*
X175438152Y-79695238D02*
X175533390Y-79742857D01*
X175533390Y-79742857D02*
X175581009Y-79790476D01*
X175581009Y-79790476D02*
X175628628Y-79885714D01*
X175628628Y-79885714D02*
X175628628Y-80266666D01*
X175104819Y-79409523D02*
X176104819Y-79076190D01*
X176104819Y-79076190D02*
X175104819Y-78742857D01*
X175104819Y-78504761D02*
X175104819Y-77885714D01*
X175104819Y-77885714D02*
X175485771Y-78219047D01*
X175485771Y-78219047D02*
X175485771Y-78076190D01*
X175485771Y-78076190D02*
X175533390Y-77980952D01*
X175533390Y-77980952D02*
X175581009Y-77933333D01*
X175581009Y-77933333D02*
X175676247Y-77885714D01*
X175676247Y-77885714D02*
X175914342Y-77885714D01*
X175914342Y-77885714D02*
X176009580Y-77933333D01*
X176009580Y-77933333D02*
X176057200Y-77980952D01*
X176057200Y-77980952D02*
X176104819Y-78076190D01*
X176104819Y-78076190D02*
X176104819Y-78361904D01*
X176104819Y-78361904D02*
X176057200Y-78457142D01*
X176057200Y-78457142D02*
X176009580Y-78504761D01*
X176604819Y-82085714D02*
X177604819Y-81752381D01*
X177604819Y-81752381D02*
X176604819Y-81419048D01*
X177604819Y-80657143D02*
X177081009Y-80657143D01*
X177081009Y-80657143D02*
X176985771Y-80704762D01*
X176985771Y-80704762D02*
X176938152Y-80800000D01*
X176938152Y-80800000D02*
X176938152Y-80990476D01*
X176938152Y-80990476D02*
X176985771Y-81085714D01*
X177557200Y-80657143D02*
X177604819Y-80752381D01*
X177604819Y-80752381D02*
X177604819Y-80990476D01*
X177604819Y-80990476D02*
X177557200Y-81085714D01*
X177557200Y-81085714D02*
X177461961Y-81133333D01*
X177461961Y-81133333D02*
X177366723Y-81133333D01*
X177366723Y-81133333D02*
X177271485Y-81085714D01*
X177271485Y-81085714D02*
X177223866Y-80990476D01*
X177223866Y-80990476D02*
X177223866Y-80752381D01*
X177223866Y-80752381D02*
X177176247Y-80657143D01*
X177604819Y-80180952D02*
X176938152Y-80180952D01*
X177128628Y-80180952D02*
X177033390Y-80133333D01*
X177033390Y-80133333D02*
X176985771Y-80085714D01*
X176985771Y-80085714D02*
X176938152Y-79990476D01*
X176938152Y-79990476D02*
X176938152Y-79895238D01*
X177604819Y-79561904D02*
X176938152Y-79561904D01*
X176604819Y-79561904D02*
X176652438Y-79609523D01*
X176652438Y-79609523D02*
X176700057Y-79561904D01*
X176700057Y-79561904D02*
X176652438Y-79514285D01*
X176652438Y-79514285D02*
X176604819Y-79561904D01*
X176604819Y-79561904D02*
X176700057Y-79561904D01*
X177557200Y-79133333D02*
X177604819Y-79038095D01*
X177604819Y-79038095D02*
X177604819Y-78847619D01*
X177604819Y-78847619D02*
X177557200Y-78752381D01*
X177557200Y-78752381D02*
X177461961Y-78704762D01*
X177461961Y-78704762D02*
X177414342Y-78704762D01*
X177414342Y-78704762D02*
X177319104Y-78752381D01*
X177319104Y-78752381D02*
X177271485Y-78847619D01*
X177271485Y-78847619D02*
X177271485Y-78990476D01*
X177271485Y-78990476D02*
X177223866Y-79085714D01*
X177223866Y-79085714D02*
X177128628Y-79133333D01*
X177128628Y-79133333D02*
X177081009Y-79133333D01*
X177081009Y-79133333D02*
X176985771Y-79085714D01*
X176985771Y-79085714D02*
X176938152Y-78990476D01*
X176938152Y-78990476D02*
X176938152Y-78847619D01*
X176938152Y-78847619D02*
X176985771Y-78752381D01*
X176938152Y-78419047D02*
X176938152Y-78038095D01*
X176604819Y-78276190D02*
X177461961Y-78276190D01*
X177461961Y-78276190D02*
X177557200Y-78228571D01*
X177557200Y-78228571D02*
X177604819Y-78133333D01*
X177604819Y-78133333D02*
X177604819Y-78038095D01*
X177604819Y-77561904D02*
X177557200Y-77657142D01*
X177557200Y-77657142D02*
X177509580Y-77704761D01*
X177509580Y-77704761D02*
X177414342Y-77752380D01*
X177414342Y-77752380D02*
X177128628Y-77752380D01*
X177128628Y-77752380D02*
X177033390Y-77704761D01*
X177033390Y-77704761D02*
X176985771Y-77657142D01*
X176985771Y-77657142D02*
X176938152Y-77561904D01*
X176938152Y-77561904D02*
X176938152Y-77419047D01*
X176938152Y-77419047D02*
X176985771Y-77323809D01*
X176985771Y-77323809D02*
X177033390Y-77276190D01*
X177033390Y-77276190D02*
X177128628Y-77228571D01*
X177128628Y-77228571D02*
X177414342Y-77228571D01*
X177414342Y-77228571D02*
X177509580Y-77276190D01*
X177509580Y-77276190D02*
X177557200Y-77323809D01*
X177557200Y-77323809D02*
X177604819Y-77419047D01*
X177604819Y-77419047D02*
X177604819Y-77561904D01*
X177604819Y-76799999D02*
X176938152Y-76799999D01*
X177128628Y-76799999D02*
X177033390Y-76752380D01*
X177033390Y-76752380D02*
X176985771Y-76704761D01*
X176985771Y-76704761D02*
X176938152Y-76609523D01*
X176938152Y-76609523D02*
X176938152Y-76514285D01*
X162807143Y-88450057D02*
X162854762Y-88402438D01*
X162854762Y-88402438D02*
X162950000Y-88354819D01*
X162950000Y-88354819D02*
X163188095Y-88354819D01*
X163188095Y-88354819D02*
X163283333Y-88402438D01*
X163283333Y-88402438D02*
X163330952Y-88450057D01*
X163330952Y-88450057D02*
X163378571Y-88545295D01*
X163378571Y-88545295D02*
X163378571Y-88640533D01*
X163378571Y-88640533D02*
X163330952Y-88783390D01*
X163330952Y-88783390D02*
X162759524Y-89354819D01*
X162759524Y-89354819D02*
X163378571Y-89354819D01*
X163997619Y-88354819D02*
X164092857Y-88354819D01*
X164092857Y-88354819D02*
X164188095Y-88402438D01*
X164188095Y-88402438D02*
X164235714Y-88450057D01*
X164235714Y-88450057D02*
X164283333Y-88545295D01*
X164283333Y-88545295D02*
X164330952Y-88735771D01*
X164330952Y-88735771D02*
X164330952Y-88973866D01*
X164330952Y-88973866D02*
X164283333Y-89164342D01*
X164283333Y-89164342D02*
X164235714Y-89259580D01*
X164235714Y-89259580D02*
X164188095Y-89307200D01*
X164188095Y-89307200D02*
X164092857Y-89354819D01*
X164092857Y-89354819D02*
X163997619Y-89354819D01*
X163997619Y-89354819D02*
X163902381Y-89307200D01*
X163902381Y-89307200D02*
X163854762Y-89259580D01*
X163854762Y-89259580D02*
X163807143Y-89164342D01*
X163807143Y-89164342D02*
X163759524Y-88973866D01*
X163759524Y-88973866D02*
X163759524Y-88735771D01*
X163759524Y-88735771D02*
X163807143Y-88545295D01*
X163807143Y-88545295D02*
X163854762Y-88450057D01*
X163854762Y-88450057D02*
X163902381Y-88402438D01*
X163902381Y-88402438D02*
X163997619Y-88354819D01*
X164950000Y-88354819D02*
X165045238Y-88354819D01*
X165045238Y-88354819D02*
X165140476Y-88402438D01*
X165140476Y-88402438D02*
X165188095Y-88450057D01*
X165188095Y-88450057D02*
X165235714Y-88545295D01*
X165235714Y-88545295D02*
X165283333Y-88735771D01*
X165283333Y-88735771D02*
X165283333Y-88973866D01*
X165283333Y-88973866D02*
X165235714Y-89164342D01*
X165235714Y-89164342D02*
X165188095Y-89259580D01*
X165188095Y-89259580D02*
X165140476Y-89307200D01*
X165140476Y-89307200D02*
X165045238Y-89354819D01*
X165045238Y-89354819D02*
X164950000Y-89354819D01*
X164950000Y-89354819D02*
X164854762Y-89307200D01*
X164854762Y-89307200D02*
X164807143Y-89259580D01*
X164807143Y-89259580D02*
X164759524Y-89164342D01*
X164759524Y-89164342D02*
X164711905Y-88973866D01*
X164711905Y-88973866D02*
X164711905Y-88735771D01*
X164711905Y-88735771D02*
X164759524Y-88545295D01*
X164759524Y-88545295D02*
X164807143Y-88450057D01*
X164807143Y-88450057D02*
X164854762Y-88402438D01*
X164854762Y-88402438D02*
X164950000Y-88354819D01*
X165711905Y-89354819D02*
X165711905Y-88354819D01*
X165807143Y-88973866D02*
X166092857Y-89354819D01*
X166092857Y-88688152D02*
X165711905Y-89069104D01*
X164430952Y-84904819D02*
X163859524Y-84904819D01*
X164145238Y-84904819D02*
X164145238Y-83904819D01*
X164145238Y-83904819D02*
X164050000Y-84047676D01*
X164050000Y-84047676D02*
X163954762Y-84142914D01*
X163954762Y-84142914D02*
X163859524Y-84190533D01*
X164859524Y-84904819D02*
X164859524Y-83904819D01*
X164954762Y-84523866D02*
X165240476Y-84904819D01*
X165240476Y-84238152D02*
X164859524Y-84619104D01*
X147080952Y-79654819D02*
X146509524Y-79654819D01*
X146795238Y-79654819D02*
X146795238Y-78654819D01*
X146795238Y-78654819D02*
X146700000Y-78797676D01*
X146700000Y-78797676D02*
X146604762Y-78892914D01*
X146604762Y-78892914D02*
X146509524Y-78940533D01*
X147509524Y-79654819D02*
X147509524Y-78654819D01*
X147604762Y-79273866D02*
X147890476Y-79654819D01*
X147890476Y-78988152D02*
X147509524Y-79369104D01*
D12*
X152249318Y-104855951D02*
X151644556Y-105279285D01*
X152249318Y-105581666D02*
X150979318Y-105581666D01*
X150979318Y-105581666D02*
X150979318Y-105097856D01*
X150979318Y-105097856D02*
X151039794Y-104976904D01*
X151039794Y-104976904D02*
X151100270Y-104916427D01*
X151100270Y-104916427D02*
X151221222Y-104855951D01*
X151221222Y-104855951D02*
X151402651Y-104855951D01*
X151402651Y-104855951D02*
X151523603Y-104916427D01*
X151523603Y-104916427D02*
X151584080Y-104976904D01*
X151584080Y-104976904D02*
X151644556Y-105097856D01*
X151644556Y-105097856D02*
X151644556Y-105581666D01*
X150979318Y-104493094D02*
X152249318Y-104069761D01*
X152249318Y-104069761D02*
X150979318Y-103646427D01*
X152249318Y-102557856D02*
X152249318Y-103283571D01*
X152249318Y-102920714D02*
X150979318Y-102920714D01*
X150979318Y-102920714D02*
X151160746Y-103041666D01*
X151160746Y-103041666D02*
X151281699Y-103162618D01*
X151281699Y-103162618D02*
X151342175Y-103283571D01*
D11*
X167657143Y-60404819D02*
X167752381Y-60404819D01*
X167752381Y-60404819D02*
X167847619Y-60452438D01*
X167847619Y-60452438D02*
X167895238Y-60500057D01*
X167895238Y-60500057D02*
X167942857Y-60595295D01*
X167942857Y-60595295D02*
X167990476Y-60785771D01*
X167990476Y-60785771D02*
X167990476Y-61023866D01*
X167990476Y-61023866D02*
X167942857Y-61214342D01*
X167942857Y-61214342D02*
X167895238Y-61309580D01*
X167895238Y-61309580D02*
X167847619Y-61357200D01*
X167847619Y-61357200D02*
X167752381Y-61404819D01*
X167752381Y-61404819D02*
X167657143Y-61404819D01*
X167657143Y-61404819D02*
X167561905Y-61357200D01*
X167561905Y-61357200D02*
X167514286Y-61309580D01*
X167514286Y-61309580D02*
X167466667Y-61214342D01*
X167466667Y-61214342D02*
X167419048Y-61023866D01*
X167419048Y-61023866D02*
X167419048Y-60785771D01*
X167419048Y-60785771D02*
X167466667Y-60595295D01*
X167466667Y-60595295D02*
X167514286Y-60500057D01*
X167514286Y-60500057D02*
X167561905Y-60452438D01*
X167561905Y-60452438D02*
X167657143Y-60404819D01*
X168419048Y-61309580D02*
X168466667Y-61357200D01*
X168466667Y-61357200D02*
X168419048Y-61404819D01*
X168419048Y-61404819D02*
X168371429Y-61357200D01*
X168371429Y-61357200D02*
X168419048Y-61309580D01*
X168419048Y-61309580D02*
X168419048Y-61404819D01*
X169419047Y-61404819D02*
X168847619Y-61404819D01*
X169133333Y-61404819D02*
X169133333Y-60404819D01*
X169133333Y-60404819D02*
X169038095Y-60547676D01*
X169038095Y-60547676D02*
X168942857Y-60642914D01*
X168942857Y-60642914D02*
X168847619Y-60690533D01*
X170276190Y-60738152D02*
X170276190Y-61404819D01*
X169847619Y-60738152D02*
X169847619Y-61261961D01*
X169847619Y-61261961D02*
X169895238Y-61357200D01*
X169895238Y-61357200D02*
X169990476Y-61404819D01*
X169990476Y-61404819D02*
X170133333Y-61404819D01*
X170133333Y-61404819D02*
X170228571Y-61357200D01*
X170228571Y-61357200D02*
X170276190Y-61309580D01*
X171085714Y-60881009D02*
X170752381Y-60881009D01*
X170752381Y-61404819D02*
X170752381Y-60404819D01*
X170752381Y-60404819D02*
X171228571Y-60404819D01*
X134354819Y-63995238D02*
X133878628Y-64328571D01*
X134354819Y-64566666D02*
X133354819Y-64566666D01*
X133354819Y-64566666D02*
X133354819Y-64185714D01*
X133354819Y-64185714D02*
X133402438Y-64090476D01*
X133402438Y-64090476D02*
X133450057Y-64042857D01*
X133450057Y-64042857D02*
X133545295Y-63995238D01*
X133545295Y-63995238D02*
X133688152Y-63995238D01*
X133688152Y-63995238D02*
X133783390Y-64042857D01*
X133783390Y-64042857D02*
X133831009Y-64090476D01*
X133831009Y-64090476D02*
X133878628Y-64185714D01*
X133878628Y-64185714D02*
X133878628Y-64566666D01*
X133354819Y-63709523D02*
X134354819Y-63376190D01*
X134354819Y-63376190D02*
X133354819Y-63042857D01*
X133450057Y-62757142D02*
X133402438Y-62709523D01*
X133402438Y-62709523D02*
X133354819Y-62614285D01*
X133354819Y-62614285D02*
X133354819Y-62376190D01*
X133354819Y-62376190D02*
X133402438Y-62280952D01*
X133402438Y-62280952D02*
X133450057Y-62233333D01*
X133450057Y-62233333D02*
X133545295Y-62185714D01*
X133545295Y-62185714D02*
X133640533Y-62185714D01*
X133640533Y-62185714D02*
X133783390Y-62233333D01*
X133783390Y-62233333D02*
X134354819Y-62804761D01*
X134354819Y-62804761D02*
X134354819Y-62185714D01*
X162831009Y-108392857D02*
X162831009Y-108726190D01*
X163354819Y-108726190D02*
X162354819Y-108726190D01*
X162354819Y-108726190D02*
X162354819Y-108250000D01*
X162688152Y-107440476D02*
X163354819Y-107440476D01*
X162688152Y-107869047D02*
X163211961Y-107869047D01*
X163211961Y-107869047D02*
X163307200Y-107821428D01*
X163307200Y-107821428D02*
X163354819Y-107726190D01*
X163354819Y-107726190D02*
X163354819Y-107583333D01*
X163354819Y-107583333D02*
X163307200Y-107488095D01*
X163307200Y-107488095D02*
X163259580Y-107440476D01*
X163307200Y-107011904D02*
X163354819Y-106916666D01*
X163354819Y-106916666D02*
X163354819Y-106726190D01*
X163354819Y-106726190D02*
X163307200Y-106630952D01*
X163307200Y-106630952D02*
X163211961Y-106583333D01*
X163211961Y-106583333D02*
X163164342Y-106583333D01*
X163164342Y-106583333D02*
X163069104Y-106630952D01*
X163069104Y-106630952D02*
X163021485Y-106726190D01*
X163021485Y-106726190D02*
X163021485Y-106869047D01*
X163021485Y-106869047D02*
X162973866Y-106964285D01*
X162973866Y-106964285D02*
X162878628Y-107011904D01*
X162878628Y-107011904D02*
X162831009Y-107011904D01*
X162831009Y-107011904D02*
X162735771Y-106964285D01*
X162735771Y-106964285D02*
X162688152Y-106869047D01*
X162688152Y-106869047D02*
X162688152Y-106726190D01*
X162688152Y-106726190D02*
X162735771Y-106630952D01*
X163307200Y-105773809D02*
X163354819Y-105869047D01*
X163354819Y-105869047D02*
X163354819Y-106059523D01*
X163354819Y-106059523D02*
X163307200Y-106154761D01*
X163307200Y-106154761D02*
X163211961Y-106202380D01*
X163211961Y-106202380D02*
X162831009Y-106202380D01*
X162831009Y-106202380D02*
X162735771Y-106154761D01*
X162735771Y-106154761D02*
X162688152Y-106059523D01*
X162688152Y-106059523D02*
X162688152Y-105869047D01*
X162688152Y-105869047D02*
X162735771Y-105773809D01*
X162735771Y-105773809D02*
X162831009Y-105726190D01*
X162831009Y-105726190D02*
X162926247Y-105726190D01*
X162926247Y-105726190D02*
X163021485Y-106202380D01*
X140304819Y-63466666D02*
X140304819Y-64038094D01*
X140304819Y-63752380D02*
X139304819Y-63752380D01*
X139304819Y-63752380D02*
X139447676Y-63847618D01*
X139447676Y-63847618D02*
X139542914Y-63942856D01*
X139542914Y-63942856D02*
X139590533Y-64038094D01*
X139304819Y-62847618D02*
X139304819Y-62752380D01*
X139304819Y-62752380D02*
X139352438Y-62657142D01*
X139352438Y-62657142D02*
X139400057Y-62609523D01*
X139400057Y-62609523D02*
X139495295Y-62561904D01*
X139495295Y-62561904D02*
X139685771Y-62514285D01*
X139685771Y-62514285D02*
X139923866Y-62514285D01*
X139923866Y-62514285D02*
X140114342Y-62561904D01*
X140114342Y-62561904D02*
X140209580Y-62609523D01*
X140209580Y-62609523D02*
X140257200Y-62657142D01*
X140257200Y-62657142D02*
X140304819Y-62752380D01*
X140304819Y-62752380D02*
X140304819Y-62847618D01*
X140304819Y-62847618D02*
X140257200Y-62942856D01*
X140257200Y-62942856D02*
X140209580Y-62990475D01*
X140209580Y-62990475D02*
X140114342Y-63038094D01*
X140114342Y-63038094D02*
X139923866Y-63085713D01*
X139923866Y-63085713D02*
X139685771Y-63085713D01*
X139685771Y-63085713D02*
X139495295Y-63038094D01*
X139495295Y-63038094D02*
X139400057Y-62990475D01*
X139400057Y-62990475D02*
X139352438Y-62942856D01*
X139352438Y-62942856D02*
X139304819Y-62847618D01*
X139304819Y-61895237D02*
X139304819Y-61799999D01*
X139304819Y-61799999D02*
X139352438Y-61704761D01*
X139352438Y-61704761D02*
X139400057Y-61657142D01*
X139400057Y-61657142D02*
X139495295Y-61609523D01*
X139495295Y-61609523D02*
X139685771Y-61561904D01*
X139685771Y-61561904D02*
X139923866Y-61561904D01*
X139923866Y-61561904D02*
X140114342Y-61609523D01*
X140114342Y-61609523D02*
X140209580Y-61657142D01*
X140209580Y-61657142D02*
X140257200Y-61704761D01*
X140257200Y-61704761D02*
X140304819Y-61799999D01*
X140304819Y-61799999D02*
X140304819Y-61895237D01*
X140304819Y-61895237D02*
X140257200Y-61990475D01*
X140257200Y-61990475D02*
X140209580Y-62038094D01*
X140209580Y-62038094D02*
X140114342Y-62085713D01*
X140114342Y-62085713D02*
X139923866Y-62133332D01*
X139923866Y-62133332D02*
X139685771Y-62133332D01*
X139685771Y-62133332D02*
X139495295Y-62085713D01*
X139495295Y-62085713D02*
X139400057Y-62038094D01*
X139400057Y-62038094D02*
X139352438Y-61990475D01*
X139352438Y-61990475D02*
X139304819Y-61895237D01*
X167657143Y-53804819D02*
X167752381Y-53804819D01*
X167752381Y-53804819D02*
X167847619Y-53852438D01*
X167847619Y-53852438D02*
X167895238Y-53900057D01*
X167895238Y-53900057D02*
X167942857Y-53995295D01*
X167942857Y-53995295D02*
X167990476Y-54185771D01*
X167990476Y-54185771D02*
X167990476Y-54423866D01*
X167990476Y-54423866D02*
X167942857Y-54614342D01*
X167942857Y-54614342D02*
X167895238Y-54709580D01*
X167895238Y-54709580D02*
X167847619Y-54757200D01*
X167847619Y-54757200D02*
X167752381Y-54804819D01*
X167752381Y-54804819D02*
X167657143Y-54804819D01*
X167657143Y-54804819D02*
X167561905Y-54757200D01*
X167561905Y-54757200D02*
X167514286Y-54709580D01*
X167514286Y-54709580D02*
X167466667Y-54614342D01*
X167466667Y-54614342D02*
X167419048Y-54423866D01*
X167419048Y-54423866D02*
X167419048Y-54185771D01*
X167419048Y-54185771D02*
X167466667Y-53995295D01*
X167466667Y-53995295D02*
X167514286Y-53900057D01*
X167514286Y-53900057D02*
X167561905Y-53852438D01*
X167561905Y-53852438D02*
X167657143Y-53804819D01*
X168419048Y-54709580D02*
X168466667Y-54757200D01*
X168466667Y-54757200D02*
X168419048Y-54804819D01*
X168419048Y-54804819D02*
X168371429Y-54757200D01*
X168371429Y-54757200D02*
X168419048Y-54709580D01*
X168419048Y-54709580D02*
X168419048Y-54804819D01*
X169419047Y-54804819D02*
X168847619Y-54804819D01*
X169133333Y-54804819D02*
X169133333Y-53804819D01*
X169133333Y-53804819D02*
X169038095Y-53947676D01*
X169038095Y-53947676D02*
X168942857Y-54042914D01*
X168942857Y-54042914D02*
X168847619Y-54090533D01*
X170276190Y-54138152D02*
X170276190Y-54804819D01*
X169847619Y-54138152D02*
X169847619Y-54661961D01*
X169847619Y-54661961D02*
X169895238Y-54757200D01*
X169895238Y-54757200D02*
X169990476Y-54804819D01*
X169990476Y-54804819D02*
X170133333Y-54804819D01*
X170133333Y-54804819D02*
X170228571Y-54757200D01*
X170228571Y-54757200D02*
X170276190Y-54709580D01*
X171085714Y-54281009D02*
X170752381Y-54281009D01*
X170752381Y-54804819D02*
X170752381Y-53804819D01*
X170752381Y-53804819D02*
X171228571Y-53804819D01*
X177104819Y-94388094D02*
X176104819Y-94388094D01*
X176104819Y-94388094D02*
X176104819Y-94149999D01*
X176104819Y-94149999D02*
X176152438Y-94007142D01*
X176152438Y-94007142D02*
X176247676Y-93911904D01*
X176247676Y-93911904D02*
X176342914Y-93864285D01*
X176342914Y-93864285D02*
X176533390Y-93816666D01*
X176533390Y-93816666D02*
X176676247Y-93816666D01*
X176676247Y-93816666D02*
X176866723Y-93864285D01*
X176866723Y-93864285D02*
X176961961Y-93911904D01*
X176961961Y-93911904D02*
X177057200Y-94007142D01*
X177057200Y-94007142D02*
X177104819Y-94149999D01*
X177104819Y-94149999D02*
X177104819Y-94388094D01*
X176581009Y-93054761D02*
X176628628Y-92911904D01*
X176628628Y-92911904D02*
X176676247Y-92864285D01*
X176676247Y-92864285D02*
X176771485Y-92816666D01*
X176771485Y-92816666D02*
X176914342Y-92816666D01*
X176914342Y-92816666D02*
X177009580Y-92864285D01*
X177009580Y-92864285D02*
X177057200Y-92911904D01*
X177057200Y-92911904D02*
X177104819Y-93007142D01*
X177104819Y-93007142D02*
X177104819Y-93388094D01*
X177104819Y-93388094D02*
X176104819Y-93388094D01*
X176104819Y-93388094D02*
X176104819Y-93054761D01*
X176104819Y-93054761D02*
X176152438Y-92959523D01*
X176152438Y-92959523D02*
X176200057Y-92911904D01*
X176200057Y-92911904D02*
X176295295Y-92864285D01*
X176295295Y-92864285D02*
X176390533Y-92864285D01*
X176390533Y-92864285D02*
X176485771Y-92911904D01*
X176485771Y-92911904D02*
X176533390Y-92959523D01*
X176533390Y-92959523D02*
X176581009Y-93054761D01*
X176581009Y-93054761D02*
X176581009Y-93388094D01*
X176104819Y-92483332D02*
X176104819Y-91864285D01*
X176104819Y-91864285D02*
X176485771Y-92197618D01*
X176485771Y-92197618D02*
X176485771Y-92054761D01*
X176485771Y-92054761D02*
X176533390Y-91959523D01*
X176533390Y-91959523D02*
X176581009Y-91911904D01*
X176581009Y-91911904D02*
X176676247Y-91864285D01*
X176676247Y-91864285D02*
X176914342Y-91864285D01*
X176914342Y-91864285D02*
X177009580Y-91911904D01*
X177009580Y-91911904D02*
X177057200Y-91959523D01*
X177057200Y-91959523D02*
X177104819Y-92054761D01*
X177104819Y-92054761D02*
X177104819Y-92340475D01*
X177104819Y-92340475D02*
X177057200Y-92435713D01*
X177057200Y-92435713D02*
X177009580Y-92483332D01*
X178904819Y-89201904D02*
X177904819Y-89201904D01*
X178904819Y-88630476D02*
X178333390Y-89059047D01*
X177904819Y-88630476D02*
X178476247Y-89201904D01*
X167657143Y-66754819D02*
X167752381Y-66754819D01*
X167752381Y-66754819D02*
X167847619Y-66802438D01*
X167847619Y-66802438D02*
X167895238Y-66850057D01*
X167895238Y-66850057D02*
X167942857Y-66945295D01*
X167942857Y-66945295D02*
X167990476Y-67135771D01*
X167990476Y-67135771D02*
X167990476Y-67373866D01*
X167990476Y-67373866D02*
X167942857Y-67564342D01*
X167942857Y-67564342D02*
X167895238Y-67659580D01*
X167895238Y-67659580D02*
X167847619Y-67707200D01*
X167847619Y-67707200D02*
X167752381Y-67754819D01*
X167752381Y-67754819D02*
X167657143Y-67754819D01*
X167657143Y-67754819D02*
X167561905Y-67707200D01*
X167561905Y-67707200D02*
X167514286Y-67659580D01*
X167514286Y-67659580D02*
X167466667Y-67564342D01*
X167466667Y-67564342D02*
X167419048Y-67373866D01*
X167419048Y-67373866D02*
X167419048Y-67135771D01*
X167419048Y-67135771D02*
X167466667Y-66945295D01*
X167466667Y-66945295D02*
X167514286Y-66850057D01*
X167514286Y-66850057D02*
X167561905Y-66802438D01*
X167561905Y-66802438D02*
X167657143Y-66754819D01*
X168419048Y-67659580D02*
X168466667Y-67707200D01*
X168466667Y-67707200D02*
X168419048Y-67754819D01*
X168419048Y-67754819D02*
X168371429Y-67707200D01*
X168371429Y-67707200D02*
X168419048Y-67659580D01*
X168419048Y-67659580D02*
X168419048Y-67754819D01*
X169419047Y-67754819D02*
X168847619Y-67754819D01*
X169133333Y-67754819D02*
X169133333Y-66754819D01*
X169133333Y-66754819D02*
X169038095Y-66897676D01*
X169038095Y-66897676D02*
X168942857Y-66992914D01*
X168942857Y-66992914D02*
X168847619Y-67040533D01*
X170276190Y-67088152D02*
X170276190Y-67754819D01*
X169847619Y-67088152D02*
X169847619Y-67611961D01*
X169847619Y-67611961D02*
X169895238Y-67707200D01*
X169895238Y-67707200D02*
X169990476Y-67754819D01*
X169990476Y-67754819D02*
X170133333Y-67754819D01*
X170133333Y-67754819D02*
X170228571Y-67707200D01*
X170228571Y-67707200D02*
X170276190Y-67659580D01*
X171085714Y-67231009D02*
X170752381Y-67231009D01*
X170752381Y-67754819D02*
X170752381Y-66754819D01*
X170752381Y-66754819D02*
X171228571Y-66754819D01*
X154600057Y-59116666D02*
X154552438Y-59069047D01*
X154552438Y-59069047D02*
X154504819Y-58973809D01*
X154504819Y-58973809D02*
X154504819Y-58735714D01*
X154504819Y-58735714D02*
X154552438Y-58640476D01*
X154552438Y-58640476D02*
X154600057Y-58592857D01*
X154600057Y-58592857D02*
X154695295Y-58545238D01*
X154695295Y-58545238D02*
X154790533Y-58545238D01*
X154790533Y-58545238D02*
X154933390Y-58592857D01*
X154933390Y-58592857D02*
X155504819Y-59164285D01*
X155504819Y-59164285D02*
X155504819Y-58545238D01*
X154600057Y-58164285D02*
X154552438Y-58116666D01*
X154552438Y-58116666D02*
X154504819Y-58021428D01*
X154504819Y-58021428D02*
X154504819Y-57783333D01*
X154504819Y-57783333D02*
X154552438Y-57688095D01*
X154552438Y-57688095D02*
X154600057Y-57640476D01*
X154600057Y-57640476D02*
X154695295Y-57592857D01*
X154695295Y-57592857D02*
X154790533Y-57592857D01*
X154790533Y-57592857D02*
X154933390Y-57640476D01*
X154933390Y-57640476D02*
X155504819Y-58211904D01*
X155504819Y-58211904D02*
X155504819Y-57592857D01*
X155504819Y-57164285D02*
X154504819Y-57164285D01*
X155123866Y-57069047D02*
X155504819Y-56783333D01*
X154838152Y-56783333D02*
X155219104Y-57164285D01*
D13*
%TO.C,Q1*%
X168240000Y-98910000D02*
X178460000Y-98910000D01*
X168240000Y-114780000D02*
X168240000Y-98910000D01*
X168240000Y-114780000D02*
X178460000Y-114780000D01*
X170325000Y-114780000D02*
X170325000Y-117220000D01*
X171295000Y-114780000D02*
X171295000Y-117220000D01*
X172865000Y-114780000D02*
X172865000Y-117220000D01*
X173835000Y-114780000D02*
X173835000Y-117220000D01*
X175405000Y-114780000D02*
X175405000Y-117220000D01*
X176375000Y-114780000D02*
X176375000Y-117220000D01*
X178460000Y-114780000D02*
X178460000Y-98910000D01*
D14*
%TO.C,RV3*%
X172600000Y-71100000D02*
X178700000Y-71100000D01*
X178700000Y-87100000D02*
X178700000Y-71100000D01*
X172600000Y-87100000D02*
X172600000Y-71100000D01*
X172600000Y-87100000D02*
X178700000Y-87100000D01*
D13*
%TO.C,R5*%
X168490000Y-88900000D02*
X167720000Y-88900000D01*
X160410000Y-88900000D02*
X161180000Y-88900000D01*
X167720000Y-90270000D02*
X161180000Y-90270000D01*
X161180000Y-87530000D01*
X167720000Y-87530000D01*
X167720000Y-90270000D01*
%TO.C,R3*%
X160510000Y-84450000D02*
X161280000Y-84450000D01*
X168590000Y-84450000D02*
X167820000Y-84450000D01*
X161280000Y-83080000D02*
X167820000Y-83080000D01*
X167820000Y-85820000D01*
X161280000Y-85820000D01*
X161280000Y-83080000D01*
%TO.C,R1*%
X155920000Y-79200000D02*
X155070000Y-79200000D01*
X138480000Y-79200000D02*
X139330000Y-79200000D01*
X155070000Y-81820000D02*
X139330000Y-81820000D01*
X139330000Y-76580000D01*
X155070000Y-76580000D01*
X155070000Y-81820000D01*
D10*
%TO.C,RV1*%
X147100000Y-91600000D02*
X147100000Y-91600000D01*
X147200000Y-91600000D02*
X147200000Y-91600000D01*
D15*
X147675000Y-86600000D02*
X155675000Y-86600000D01*
X147675000Y-121600000D02*
X147675000Y-86600000D01*
X155675000Y-86600000D02*
X155675000Y-121600000D01*
X155675000Y-121600000D02*
X147675000Y-121600000D01*
D10*
X147100000Y-91600000D02*
G75*
G02*
X147200000Y-91600000I50000J0D01*
G01*
X147200000Y-91600000D02*
G75*
G02*
X147100000Y-91600000I-50000J0D01*
G01*
D13*
%TO.C,C2*%
X160180000Y-58330000D02*
X178420000Y-58330000D01*
X160180000Y-63570000D02*
X160180000Y-58330000D01*
X178420000Y-58330000D02*
X178420000Y-63570000D01*
X178420000Y-63570000D02*
X160180000Y-63570000D01*
D16*
%TO.C,RV2*%
X130200000Y-59617000D02*
X130200000Y-58347000D01*
X129565000Y-58982000D02*
X130835000Y-58982000D01*
X135552051Y-63300000D02*
G75*
G02*
X128440051Y-63300000I-3556000J0D01*
G01*
X128440051Y-63300000D02*
G75*
G02*
X135552051Y-63300000I3556000J0D01*
G01*
D15*
%TO.C,J8*%
X157500000Y-94950000D02*
X161300000Y-94950000D01*
X157500000Y-119550000D02*
X157500000Y-94950000D01*
X157500000Y-119550000D02*
X161300000Y-119550000D01*
X167100000Y-94950000D02*
X163300000Y-94950000D01*
X167100000Y-94950000D02*
X167100000Y-119550000D01*
X167100000Y-119550000D02*
X163300000Y-119550000D01*
D10*
%TO.C,J1*%
X147900000Y-70760000D02*
X147900000Y-68760000D01*
X148700000Y-70760000D02*
X148700000Y-68760000D01*
D13*
%TO.C,R4*%
X139850000Y-71520000D02*
X139850000Y-70670000D01*
X139850000Y-54080000D02*
X139850000Y-54930000D01*
X137230000Y-70670000D02*
X142470000Y-70670000D01*
X142470000Y-54930000D01*
X137230000Y-54930000D01*
X137230000Y-70670000D01*
%TO.C,C3*%
X160180000Y-51730000D02*
X178420000Y-51730000D01*
X160180000Y-56970000D02*
X160180000Y-51730000D01*
X178420000Y-51730000D02*
X178420000Y-56970000D01*
X178420000Y-56970000D02*
X160180000Y-56970000D01*
%TO.C,D1*%
X176650000Y-89980000D02*
X176650000Y-90630000D01*
X177770000Y-91230000D02*
X175530000Y-91230000D01*
X177770000Y-91350000D02*
X175530000Y-91350000D01*
X177770000Y-91470000D02*
X175530000Y-91470000D01*
X176650000Y-95520000D02*
X176650000Y-94870000D01*
X177770000Y-90630000D02*
X175530000Y-90630000D01*
X175530000Y-94870000D01*
X177770000Y-94870000D01*
X177770000Y-90630000D01*
%TO.C,C1*%
X160180000Y-64680000D02*
X178420000Y-64680000D01*
X160180000Y-69920000D02*
X160180000Y-64680000D01*
X178420000Y-64680000D02*
X178420000Y-69920000D01*
X178420000Y-69920000D02*
X160180000Y-69920000D01*
%TO.C,R2*%
X155050000Y-61990000D02*
X155050000Y-61220000D01*
X155050000Y-53910000D02*
X155050000Y-54680000D01*
X153680000Y-61220000D02*
X156420000Y-61220000D01*
X156420000Y-54680000D01*
X153680000Y-54680000D01*
X153680000Y-61220000D01*
D10*
%TO.C,J2*%
X148000000Y-57460000D02*
X148000000Y-55460000D01*
X148800000Y-57460000D02*
X148800000Y-55460000D01*
%TD*%
M02*
