M48
; DRILL file {KiCad 9.0.7} date 2026-02-02T12:57:04-0800
; FORMAT={-:-/ absolute / inch / decimal}
; #@! TF.CreationDate,2026-02-02T12:57:04-08:00
; #@! TF.GenerationSoftware,Kicad,Pcbnew,9.0.7
; #@! TF.FileFunction,Plated,1,4,PTH
FMAT,2
INCH
; #@! TA.AperFunction,Plated,PTH,ComponentDrill
T1C0.0300
; #@! TA.AperFunction,Plated,PTH,ComponentDrill
T2C0.0315
; #@! TA.AperFunction,Plated,PTH,ComponentDrill
T3C0.0413
; #@! TA.AperFunction,Plated,PTH,ComponentDrill
T4C0.0433
; #@! TA.AperFunction,Plated,PTH,ComponentDrill
T5C0.0453
; #@! TA.AperFunction,Plated,PTH,ComponentDrill
T6C0.0472
; #@! TA.AperFunction,Plated,PTH,ComponentDrill
T7C0.0583
; #@! TA.AperFunction,Plated,PTH,ComponentDrill
T8C0.0591
%
G90
G05
T1
X5.126Y-2.4214
X5.126Y-2.5628
X5.1967Y-2.4921
T2
X6.1043Y-2.0815
X6.1043Y-2.4815
X6.2744Y-3.5
X6.2783Y-3.3248
X6.6744Y-3.5
X6.6783Y-3.3248
X6.9547Y-3.5016
X6.9547Y-3.8016
T3
X6.8465Y-3.2618
X6.9843Y-2.9665
T4
X6.7248Y-4.6646
X6.8252Y-4.8398
X6.9248Y-4.6646
T5
X5.1298Y-2.824
X5.1339Y-2.1772
X5.1457Y-3.1791
X5.1496Y-3.4075
X5.1496Y-3.6248
T6
X5.3953Y-3.1181
X5.5059Y-2.0724
X5.5059Y-2.8724
X6.1953Y-3.1181
X6.3701Y-2.1398
X6.3701Y-2.3996
X6.3701Y-2.6496
X6.9606Y-2.1398
X6.9606Y-2.3996
X6.9606Y-2.6496
T7
X5.8386Y-2.6465
X5.8386Y-2.8465
X5.8425Y-2.1228
X5.8425Y-2.3228
T8
X5.8976Y-3.6063
X5.8976Y-4.5906
X6.0453Y-3.6063
X6.3898Y-3.7776
X6.3898Y-4.6673
M30
