%TF.GenerationSoftware,KiCad,Pcbnew,9.0.7*%
%TF.CreationDate,2026-02-02T12:57:01-08:00*%
%TF.ProjectId,foot-pedal-PCB,666f6f74-2d70-4656-9461-6c2d5043422e,rev?*%
%TF.SameCoordinates,Original*%
%TF.FileFunction,Copper,L3,Inr*%
%TF.FilePolarity,Positive*%
%FSLAX46Y46*%
G04 Gerber Fmt 4.6, Leading zero omitted, Abs format (unit mm)*
G04 Created by KiCad (PCBNEW 9.0.7) date 2026-02-02 12:57:01*
%MOMM*%
%LPD*%
G01*
G04 APERTURE LIST*
G04 Aperture macros list*
%AMRoundRect*
0 Rectangle with rounded corners*
0 $1 Rounding radius*
0 $2 $3 $4 $5 $6 $7 $8 $9 X,Y pos of 4 corners*
0 Add a 4 corners polygon primitive as box body*
4,1,4,$2,$3,$4,$5,$6,$7,$8,$9,$2,$3,0*
0 Add four circle primitives for the rounded corners*
1,1,$1+$1,$2,$3*
1,1,$1+$1,$4,$5*
1,1,$1+$1,$6,$7*
1,1,$1+$1,$8,$9*
0 Add four rect primitives between the rounded corners*
20,1,$1+$1,$2,$3,$4,$5,0*
20,1,$1+$1,$4,$5,$6,$7,0*
20,1,$1+$1,$6,$7,$8,$9,0*
20,1,$1+$1,$8,$9,$2,$3,0*%
G04 Aperture macros list end*
%TA.AperFunction,ComponentPad*%
%ADD10R,1.905000X2.000000*%
%TD*%
%TA.AperFunction,ComponentPad*%
%ADD11O,1.905000X2.000000*%
%TD*%
%TA.AperFunction,ComponentPad*%
%ADD12C,1.400000*%
%TD*%
%TA.AperFunction,ComponentPad*%
%ADD13C,1.600000*%
%TD*%
%TA.AperFunction,ComponentPad*%
%ADD14C,2.400000*%
%TD*%
%TA.AperFunction,ComponentPad*%
%ADD15RoundRect,0.250000X-0.825000X-0.825000X0.825000X-0.825000X0.825000X0.825000X-0.825000X0.825000X0*%
%TD*%
%TA.AperFunction,ComponentPad*%
%ADD16R,2.250000X2.250000*%
%TD*%
%TA.AperFunction,ComponentPad*%
%ADD17C,2.250000*%
%TD*%
%TA.AperFunction,ComponentPad*%
%ADD18C,1.270000*%
%TD*%
%TA.AperFunction,ComponentPad*%
%ADD19C,2.220000*%
%TD*%
%TA.AperFunction,ComponentPad*%
%ADD20RoundRect,0.250000X-0.550000X0.550000X-0.550000X-0.550000X0.550000X-0.550000X0.550000X0.550000X0*%
%TD*%
%TA.AperFunction,Conductor*%
%ADD21C,3.000000*%
%TD*%
%TA.AperFunction,Conductor*%
%ADD22C,1.000000*%
%TD*%
%TA.AperFunction,Conductor*%
%ADD23C,2.000000*%
%TD*%
G04 APERTURE END LIST*
D10*
%TO.N,GND*%
%TO.C,Q1*%
X170810000Y-118480000D03*
D11*
%TO.N,AC*%
X173360000Y-122930000D03*
%TO.N,Net-(D1-A)*%
X175890000Y-118480000D03*
%TD*%
D12*
%TO.N,GND*%
%TO.C,RV3*%
X177400000Y-75350000D03*
%TO.N,AC*%
X173900000Y-82850000D03*
%TD*%
D13*
%TO.N,AC*%
%TO.C,R5*%
X169530000Y-88900000D03*
%TO.N,Net-(R2-Pad2)*%
X159370000Y-88900000D03*
%TD*%
%TO.N,Net-(C1-Pad2)*%
%TO.C,R3*%
X159470000Y-84450000D03*
%TO.N,AC*%
X169630000Y-84450000D03*
%TD*%
D14*
%TO.N,Net-(D1-K)*%
%TO.C,R1*%
X157360000Y-79200000D03*
%TO.N,Net-(C2-Pad2)*%
X137040000Y-79200000D03*
%TD*%
D15*
%TO.N,AC*%
%TO.C,J4*%
X130400000Y-55300000D03*
%TD*%
D16*
%TO.N,GNDD*%
%TO.C,RV1*%
X149800000Y-91600000D03*
D17*
%TO.N,Net-(J6-Pin_1)*%
X153550000Y-91600000D03*
%TO.N,+3.3V*%
X149800000Y-116600000D03*
%TD*%
D15*
%TO.N,GNDD*%
%TO.C,J5*%
X130700000Y-80750000D03*
%TD*%
D14*
%TO.N,GND*%
%TO.C,C2*%
X176800000Y-60950000D03*
%TO.N,Net-(C2-Pad2)*%
X161800000Y-60950000D03*
%TD*%
D18*
%TO.N,Net-(R2-Pad2)*%
%TO.C,RV2*%
X130200000Y-61503949D03*
X131996051Y-63300000D03*
%TO.N,/Res_out*%
X130200000Y-65096051D03*
%TD*%
D17*
%TO.N,AC*%
%TO.C,J8*%
X162300000Y-118550000D03*
%TO.N,Net-(J1-Pad1)*%
X162300000Y-95950000D03*
%TD*%
D19*
%TO.N,Net-(J1-Pad1)*%
%TO.C,J1*%
X148300000Y-72300000D03*
X148300000Y-67220000D03*
%TD*%
D14*
%TO.N,AC*%
%TO.C,R4*%
X139850000Y-72960000D03*
%TO.N,Net-(C3-Pad2)*%
X139850000Y-52640000D03*
%TD*%
%TO.N,GND*%
%TO.C,C3*%
X176800000Y-54350000D03*
%TO.N,Net-(C3-Pad2)*%
X161800000Y-54350000D03*
%TD*%
D20*
%TO.N,Net-(D1-K)*%
%TO.C,D1*%
X176650000Y-88940000D03*
D13*
%TO.N,Net-(D1-A)*%
X176650000Y-96560000D03*
%TD*%
D15*
%TO.N,Net-(J6-Pin_1)*%
%TO.C,J6*%
X130800000Y-86550000D03*
%TD*%
D14*
%TO.N,GND*%
%TO.C,C1*%
X176800000Y-67300000D03*
%TO.N,Net-(C1-Pad2)*%
X161800000Y-67300000D03*
%TD*%
D13*
%TO.N,Net-(C2-Pad2)*%
%TO.C,R2*%
X155050000Y-63030000D03*
%TO.N,Net-(R2-Pad2)*%
X155050000Y-52870000D03*
%TD*%
D19*
%TO.N,GND*%
%TO.C,J2*%
X148400000Y-59000000D03*
X148400000Y-53920000D03*
%TD*%
D15*
%TO.N,/Res_out*%
%TO.C,J3*%
X130296051Y-71729301D03*
%TD*%
%TO.N,+3.3V*%
%TO.C,J7*%
X130800000Y-92070000D03*
%TD*%
D21*
%TO.N,AC*%
X171950000Y-73050000D02*
X171950000Y-81350000D01*
X170150000Y-71250000D02*
X171950000Y-73050000D01*
X164498218Y-71250000D02*
X170150000Y-71250000D01*
X163747218Y-72001000D02*
X164498218Y-71250000D01*
X163249000Y-72001000D02*
X163747218Y-72001000D01*
X161650000Y-73600000D02*
X163249000Y-72001000D01*
X155412782Y-74499000D02*
X156101000Y-74499000D01*
X157000000Y-73600000D02*
X161650000Y-73600000D01*
X153061782Y-76850000D02*
X155412782Y-74499000D01*
X150270939Y-76850000D02*
X153061782Y-76850000D01*
X146390061Y-76911000D02*
X150209939Y-76911000D01*
X156101000Y-74499000D02*
X157000000Y-73600000D01*
X146329061Y-76850000D02*
X146390061Y-76911000D01*
X145000000Y-76850000D02*
X146329061Y-76850000D01*
X145000000Y-76412944D02*
X145000000Y-76850000D01*
X139850000Y-72960000D02*
X141547056Y-72960000D01*
X141547056Y-72960000D02*
X145000000Y-76412944D01*
X150209939Y-76911000D02*
X150270939Y-76850000D01*
D22*
%TO.N,Net-(C3-Pad2)*%
X158750000Y-54350000D02*
X161800000Y-54350000D01*
X150150000Y-62950000D02*
X158750000Y-54350000D01*
X146608268Y-62950000D02*
X150150000Y-62950000D01*
X139850000Y-52640000D02*
X139850000Y-56191732D01*
X139850000Y-56191732D02*
X146608268Y-62950000D01*
D21*
%TO.N,AC*%
X139850000Y-63100000D02*
X139850000Y-72960000D01*
X132050000Y-55300000D02*
X139850000Y-63100000D01*
X130400000Y-55300000D02*
X132050000Y-55300000D01*
D23*
X166680000Y-122930000D02*
X162300000Y-118550000D01*
X173360000Y-122930000D02*
X166680000Y-122930000D01*
D21*
X162300000Y-115200000D02*
X162300000Y-118550000D01*
X168250000Y-109250000D02*
X162300000Y-115200000D01*
X168250000Y-90180000D02*
X168250000Y-109250000D01*
X169530000Y-88900000D02*
X168250000Y-90180000D01*
X169530000Y-84550000D02*
X169630000Y-84450000D01*
X169530000Y-88900000D02*
X169530000Y-84550000D01*
X169630000Y-84450000D02*
X171950000Y-82130000D01*
X171950000Y-81350000D02*
X173450000Y-82850000D01*
X171950000Y-82130000D02*
X171950000Y-81350000D01*
D22*
%TO.N,+3.3V*%
X149800000Y-97400000D02*
X149800000Y-116600000D01*
X144470000Y-92070000D02*
X149800000Y-97400000D01*
X130800000Y-92070000D02*
X144470000Y-92070000D01*
%TD*%
M02*
