%TF.GenerationSoftware,KiCad,Pcbnew,9.0.7*%
%TF.CreationDate,2026-02-02T12:57:01-08:00*%
%TF.ProjectId,foot-pedal-PCB,666f6f74-2d70-4656-9461-6c2d5043422e,rev?*%
%TF.SameCoordinates,Original*%
%TF.FileFunction,Copper,L1,Top*%
%TF.FilePolarity,Positive*%
%FSLAX46Y46*%
G04 Gerber Fmt 4.6, Leading zero omitted, Abs format (unit mm)*
G04 Created by KiCad (PCBNEW 9.0.7) date 2026-02-02 12:57:01*
%MOMM*%
%LPD*%
G01*
G04 APERTURE LIST*
G04 Aperture macros list*
%AMRoundRect*
0 Rectangle with rounded corners*
0 $1 Rounding radius*
0 $2 $3 $4 $5 $6 $7 $8 $9 X,Y pos of 4 corners*
0 Add a 4 corners polygon primitive as box body*
4,1,4,$2,$3,$4,$5,$6,$7,$8,$9,$2,$3,0*
0 Add four circle primitives for the rounded corners*
1,1,$1+$1,$2,$3*
1,1,$1+$1,$4,$5*
1,1,$1+$1,$6,$7*
1,1,$1+$1,$8,$9*
0 Add four rect primitives between the rounded corners*
20,1,$1+$1,$2,$3,$4,$5,0*
20,1,$1+$1,$4,$5,$6,$7,0*
20,1,$1+$1,$6,$7,$8,$9,0*
20,1,$1+$1,$8,$9,$2,$3,0*%
G04 Aperture macros list end*
%TA.AperFunction,ComponentPad*%
%ADD10R,1.905000X2.000000*%
%TD*%
%TA.AperFunction,ComponentPad*%
%ADD11O,1.905000X2.000000*%
%TD*%
%TA.AperFunction,ComponentPad*%
%ADD12C,1.400000*%
%TD*%
%TA.AperFunction,ComponentPad*%
%ADD13C,1.600000*%
%TD*%
%TA.AperFunction,ComponentPad*%
%ADD14C,2.400000*%
%TD*%
%TA.AperFunction,ComponentPad*%
%ADD15RoundRect,0.250000X-0.825000X-0.825000X0.825000X-0.825000X0.825000X0.825000X-0.825000X0.825000X0*%
%TD*%
%TA.AperFunction,ComponentPad*%
%ADD16R,2.250000X2.250000*%
%TD*%
%TA.AperFunction,ComponentPad*%
%ADD17C,2.250000*%
%TD*%
%TA.AperFunction,ComponentPad*%
%ADD18C,1.270000*%
%TD*%
%TA.AperFunction,ComponentPad*%
%ADD19C,2.220000*%
%TD*%
%TA.AperFunction,ComponentPad*%
%ADD20RoundRect,0.250000X-0.550000X0.550000X-0.550000X-0.550000X0.550000X-0.550000X0.550000X0.550000X0*%
%TD*%
%TA.AperFunction,Conductor*%
%ADD21C,3.000000*%
%TD*%
%TA.AperFunction,Conductor*%
%ADD22C,1.000000*%
%TD*%
G04 APERTURE END LIST*
D10*
%TO.P,Q1,1,A1*%
%TO.N,GND*%
X170810000Y-118480000D03*
D11*
%TO.P,Q1,2,A2*%
%TO.N,AC*%
X173360000Y-122930000D03*
%TO.P,Q1,3,G*%
%TO.N,Net-(D1-A)*%
X175890000Y-118480000D03*
%TD*%
D12*
%TO.P,RV3,2*%
%TO.N,GND*%
X177400000Y-75350000D03*
%TO.P,RV3,1*%
%TO.N,AC*%
X173900000Y-82850000D03*
%TD*%
D13*
%TO.P,R5,1*%
%TO.N,AC*%
X169530000Y-88900000D03*
%TO.P,R5,2*%
%TO.N,Net-(R2-Pad2)*%
X159370000Y-88900000D03*
%TD*%
%TO.P,R3,1*%
%TO.N,Net-(C1-Pad2)*%
X159470000Y-84450000D03*
%TO.P,R3,2*%
%TO.N,AC*%
X169630000Y-84450000D03*
%TD*%
D14*
%TO.P,R1,1*%
%TO.N,Net-(D1-K)*%
X157360000Y-79200000D03*
%TO.P,R1,2*%
%TO.N,Net-(C2-Pad2)*%
X137040000Y-79200000D03*
%TD*%
D15*
%TO.P,J4,1,Pin_1*%
%TO.N,AC*%
X130400000Y-55300000D03*
%TD*%
D16*
%TO.P,RV1,1,1*%
%TO.N,GNDD*%
X149800000Y-91600000D03*
D17*
%TO.P,RV1,2,2*%
%TO.N,Net-(J6-Pin_1)*%
X153550000Y-91600000D03*
%TO.P,RV1,3,3*%
%TO.N,+3.3V*%
X149800000Y-116600000D03*
%TD*%
D15*
%TO.P,J5,1,Pin_1*%
%TO.N,GNDD*%
X130700000Y-80750000D03*
%TD*%
D14*
%TO.P,C2,1*%
%TO.N,GND*%
X176800000Y-60950000D03*
%TO.P,C2,2*%
%TO.N,Net-(C2-Pad2)*%
X161800000Y-60950000D03*
%TD*%
D18*
%TO.P,RV2,1,1*%
%TO.N,Net-(R2-Pad2)*%
X130200000Y-61503949D03*
%TO.P,RV2,2,2*%
X131996051Y-63300000D03*
%TO.P,RV2,3,3*%
%TO.N,/Res_out*%
X130200000Y-65096051D03*
%TD*%
D17*
%TO.P,J8,1*%
%TO.N,AC*%
X162300000Y-118550000D03*
%TO.P,J8,2*%
%TO.N,Net-(J1-Pad1)*%
X162300000Y-95950000D03*
%TD*%
D19*
%TO.P,J1,1,1*%
%TO.N,Net-(J1-Pad1)*%
X148300000Y-72300000D03*
%TO.P,J1,2,2*%
X148300000Y-67220000D03*
%TD*%
D14*
%TO.P,R4,1*%
%TO.N,AC*%
X139850000Y-72960000D03*
%TO.P,R4,2*%
%TO.N,Net-(C3-Pad2)*%
X139850000Y-52640000D03*
%TD*%
%TO.P,C3,1*%
%TO.N,GND*%
X176800000Y-54350000D03*
%TO.P,C3,2*%
%TO.N,Net-(C3-Pad2)*%
X161800000Y-54350000D03*
%TD*%
D20*
%TO.P,D1,1,K*%
%TO.N,Net-(D1-K)*%
X176650000Y-88940000D03*
D13*
%TO.P,D1,2,A*%
%TO.N,Net-(D1-A)*%
X176650000Y-96560000D03*
%TD*%
D15*
%TO.P,J6,1,Pin_1*%
%TO.N,Net-(J6-Pin_1)*%
X130800000Y-86550000D03*
%TD*%
D14*
%TO.P,C1,1*%
%TO.N,GND*%
X176800000Y-67300000D03*
%TO.P,C1,2*%
%TO.N,Net-(C1-Pad2)*%
X161800000Y-67300000D03*
%TD*%
D13*
%TO.P,R2,1*%
%TO.N,Net-(C2-Pad2)*%
X155050000Y-63030000D03*
%TO.P,R2,2*%
%TO.N,Net-(R2-Pad2)*%
X155050000Y-52870000D03*
%TD*%
D19*
%TO.P,J2,1,1*%
%TO.N,GND*%
X148400000Y-59000000D03*
%TO.P,J2,2,2*%
X148400000Y-53920000D03*
%TD*%
D15*
%TO.P,J3,1,Pin_1*%
%TO.N,/Res_out*%
X130296051Y-71729301D03*
%TD*%
%TO.P,J7,1,Pin_1*%
%TO.N,+3.3V*%
X130800000Y-92070000D03*
%TD*%
D21*
%TO.N,Net-(J1-Pad1)*%
X164121866Y-94128134D02*
X164121866Y-81271866D01*
X162300000Y-95950000D02*
X164121866Y-94128134D01*
X162100000Y-79250000D02*
X164121866Y-81271866D01*
X162100000Y-77000000D02*
X162100000Y-79250000D01*
X158900000Y-72250000D02*
X161350000Y-74700000D01*
X161350000Y-76250000D02*
X162100000Y-77000000D01*
X158850000Y-72300000D02*
X158900000Y-72250000D01*
X161350000Y-74700000D02*
X161350000Y-76250000D01*
X148300000Y-72300000D02*
X158850000Y-72300000D01*
D22*
%TO.N,Net-(C2-Pad2)*%
X140470000Y-63030000D02*
X155050000Y-63030000D01*
X135100000Y-68400000D02*
X140470000Y-63030000D01*
X137040000Y-77250000D02*
X135100000Y-75310000D01*
X137040000Y-79200000D02*
X137040000Y-77250000D01*
X135100000Y-75310000D02*
X135100000Y-68400000D01*
X157130000Y-60950000D02*
X155050000Y-63030000D01*
X161800000Y-60950000D02*
X157130000Y-60950000D01*
%TO.N,Net-(D1-A)*%
X176650000Y-117720000D02*
X175890000Y-118480000D01*
X176650000Y-96560000D02*
X176650000Y-117720000D01*
D21*
%TO.N,Net-(J1-Pad1)*%
X148300000Y-67220000D02*
X148300000Y-72300000D01*
D22*
%TO.N,/Res_out*%
X130296051Y-66034974D02*
X129778564Y-65517487D01*
X130296051Y-71729301D02*
X130296051Y-66034974D01*
%TO.N,Net-(R2-Pad2)*%
X131042872Y-61503949D02*
X132417487Y-62878564D01*
X130200000Y-61503949D02*
X131042872Y-61503949D01*
%TO.N,Net-(J6-Pin_1)*%
X150850000Y-86550000D02*
X153550000Y-89250000D01*
X153550000Y-89250000D02*
X153550000Y-91600000D01*
X130800000Y-86550000D02*
X150850000Y-86550000D01*
%TD*%
M02*
