%TF.GenerationSoftware,KiCad,Pcbnew,9.0.7*%
%TF.CreationDate,2026-02-02T12:57:01-08:00*%
%TF.ProjectId,foot-pedal-PCB,666f6f74-2d70-4656-9461-6c2d5043422e,rev?*%
%TF.SameCoordinates,Original*%
%TF.FileFunction,Copper,L2,Inr*%
%TF.FilePolarity,Positive*%
%FSLAX46Y46*%
G04 Gerber Fmt 4.6, Leading zero omitted, Abs format (unit mm)*
G04 Created by KiCad (PCBNEW 9.0.7) date 2026-02-02 12:57:01*
%MOMM*%
%LPD*%
G01*
G04 APERTURE LIST*
G04 Aperture macros list*
%AMRoundRect*
0 Rectangle with rounded corners*
0 $1 Rounding radius*
0 $2 $3 $4 $5 $6 $7 $8 $9 X,Y pos of 4 corners*
0 Add a 4 corners polygon primitive as box body*
4,1,4,$2,$3,$4,$5,$6,$7,$8,$9,$2,$3,0*
0 Add four circle primitives for the rounded corners*
1,1,$1+$1,$2,$3*
1,1,$1+$1,$4,$5*
1,1,$1+$1,$6,$7*
1,1,$1+$1,$8,$9*
0 Add four rect primitives between the rounded corners*
20,1,$1+$1,$2,$3,$4,$5,0*
20,1,$1+$1,$4,$5,$6,$7,0*
20,1,$1+$1,$6,$7,$8,$9,0*
20,1,$1+$1,$8,$9,$2,$3,0*%
G04 Aperture macros list end*
%TA.AperFunction,ComponentPad*%
%ADD10R,1.905000X2.000000*%
%TD*%
%TA.AperFunction,ComponentPad*%
%ADD11O,1.905000X2.000000*%
%TD*%
%TA.AperFunction,ComponentPad*%
%ADD12C,1.400000*%
%TD*%
%TA.AperFunction,ComponentPad*%
%ADD13C,1.600000*%
%TD*%
%TA.AperFunction,ComponentPad*%
%ADD14C,2.400000*%
%TD*%
%TA.AperFunction,ComponentPad*%
%ADD15RoundRect,0.250000X-0.825000X-0.825000X0.825000X-0.825000X0.825000X0.825000X-0.825000X0.825000X0*%
%TD*%
%TA.AperFunction,ComponentPad*%
%ADD16R,2.250000X2.250000*%
%TD*%
%TA.AperFunction,ComponentPad*%
%ADD17C,2.250000*%
%TD*%
%TA.AperFunction,ComponentPad*%
%ADD18C,1.270000*%
%TD*%
%TA.AperFunction,ComponentPad*%
%ADD19C,2.220000*%
%TD*%
%TA.AperFunction,ComponentPad*%
%ADD20RoundRect,0.250000X-0.550000X0.550000X-0.550000X-0.550000X0.550000X-0.550000X0.550000X0.550000X0*%
%TD*%
G04 APERTURE END LIST*
D10*
%TO.N,GND*%
%TO.C,Q1*%
X170810000Y-118480000D03*
D11*
%TO.N,AC*%
X173360000Y-122930000D03*
%TO.N,Net-(D1-A)*%
X175890000Y-118480000D03*
%TD*%
D12*
%TO.N,GND*%
%TO.C,RV3*%
X177400000Y-75350000D03*
%TO.N,AC*%
X173900000Y-82850000D03*
%TD*%
D13*
%TO.N,AC*%
%TO.C,R5*%
X169530000Y-88900000D03*
%TO.N,Net-(R2-Pad2)*%
X159370000Y-88900000D03*
%TD*%
%TO.N,Net-(C1-Pad2)*%
%TO.C,R3*%
X159470000Y-84450000D03*
%TO.N,AC*%
X169630000Y-84450000D03*
%TD*%
D14*
%TO.N,Net-(D1-K)*%
%TO.C,R1*%
X157360000Y-79200000D03*
%TO.N,Net-(C2-Pad2)*%
X137040000Y-79200000D03*
%TD*%
D15*
%TO.N,AC*%
%TO.C,J4*%
X130400000Y-55300000D03*
%TD*%
D16*
%TO.N,GNDD*%
%TO.C,RV1*%
X149800000Y-91600000D03*
D17*
%TO.N,Net-(J6-Pin_1)*%
X153550000Y-91600000D03*
%TO.N,+3.3V*%
X149800000Y-116600000D03*
%TD*%
D15*
%TO.N,GNDD*%
%TO.C,J5*%
X130700000Y-80750000D03*
%TD*%
D14*
%TO.N,GND*%
%TO.C,C2*%
X176800000Y-60950000D03*
%TO.N,Net-(C2-Pad2)*%
X161800000Y-60950000D03*
%TD*%
D18*
%TO.N,Net-(R2-Pad2)*%
%TO.C,RV2*%
X130200000Y-61503949D03*
X131996051Y-63300000D03*
%TO.N,/Res_out*%
X130200000Y-65096051D03*
%TD*%
D17*
%TO.N,AC*%
%TO.C,J8*%
X162300000Y-118550000D03*
%TO.N,Net-(J1-Pad1)*%
X162300000Y-95950000D03*
%TD*%
D19*
%TO.N,Net-(J1-Pad1)*%
%TO.C,J1*%
X148300000Y-72300000D03*
X148300000Y-67220000D03*
%TD*%
D14*
%TO.N,AC*%
%TO.C,R4*%
X139850000Y-72960000D03*
%TO.N,Net-(C3-Pad2)*%
X139850000Y-52640000D03*
%TD*%
%TO.N,GND*%
%TO.C,C3*%
X176800000Y-54350000D03*
%TO.N,Net-(C3-Pad2)*%
X161800000Y-54350000D03*
%TD*%
D20*
%TO.N,Net-(D1-K)*%
%TO.C,D1*%
X176650000Y-88940000D03*
D13*
%TO.N,Net-(D1-A)*%
X176650000Y-96560000D03*
%TD*%
D15*
%TO.N,Net-(J6-Pin_1)*%
%TO.C,J6*%
X130800000Y-86550000D03*
%TD*%
D14*
%TO.N,GND*%
%TO.C,C1*%
X176800000Y-67300000D03*
%TO.N,Net-(C1-Pad2)*%
X161800000Y-67300000D03*
%TD*%
D13*
%TO.N,Net-(C2-Pad2)*%
%TO.C,R2*%
X155050000Y-63030000D03*
%TO.N,Net-(R2-Pad2)*%
X155050000Y-52870000D03*
%TD*%
D19*
%TO.N,GND*%
%TO.C,J2*%
X148400000Y-59000000D03*
X148400000Y-53920000D03*
%TD*%
D15*
%TO.N,/Res_out*%
%TO.C,J3*%
X130296051Y-71729301D03*
%TD*%
%TO.N,+3.3V*%
%TO.C,J7*%
X130800000Y-92070000D03*
%TD*%
%TA.AperFunction,Conductor*%
%TO.N,GND*%
G36*
X136860633Y-51220185D02*
G01*
X136906388Y-51272989D01*
X136916332Y-51342147D01*
X136905314Y-51378302D01*
X136888467Y-51413284D01*
X136888461Y-51413298D01*
X136769741Y-51752580D01*
X136769737Y-51752592D01*
X136689748Y-52103048D01*
X136689746Y-52103064D01*
X136649500Y-52460259D01*
X136649500Y-52819740D01*
X136689746Y-53176935D01*
X136689748Y-53176951D01*
X136769737Y-53527407D01*
X136769741Y-53527419D01*
X136888465Y-53866711D01*
X137044432Y-54190579D01*
X137044434Y-54190582D01*
X137235685Y-54494956D01*
X137459812Y-54776003D01*
X137713997Y-55030188D01*
X137995044Y-55254315D01*
X138299418Y-55445566D01*
X138623292Y-55601536D01*
X138878119Y-55690703D01*
X138962580Y-55720258D01*
X138962592Y-55720262D01*
X139313052Y-55800252D01*
X139670260Y-55840499D01*
X139670261Y-55840500D01*
X139670264Y-55840500D01*
X140029739Y-55840500D01*
X140029739Y-55840499D01*
X140386948Y-55800252D01*
X140737408Y-55720262D01*
X141076708Y-55601536D01*
X141400582Y-55445566D01*
X141704956Y-55254315D01*
X141986003Y-55030188D01*
X142240188Y-54776003D01*
X142464315Y-54494956D01*
X142655566Y-54190582D01*
X142811536Y-53866708D01*
X142930262Y-53527408D01*
X143010252Y-53176948D01*
X143050500Y-52819736D01*
X143050500Y-52460264D01*
X143010252Y-52103052D01*
X142930262Y-51752592D01*
X142857424Y-51544434D01*
X142811538Y-51413298D01*
X142811536Y-51413292D01*
X142807180Y-51404247D01*
X142794686Y-51378302D01*
X142783334Y-51309360D01*
X142811056Y-51245226D01*
X142869052Y-51206260D01*
X142906406Y-51200500D01*
X152567202Y-51200500D01*
X152634241Y-51220185D01*
X152679996Y-51272989D01*
X152689940Y-51342147D01*
X152672196Y-51390472D01*
X152595072Y-51513213D01*
X152458598Y-51796604D01*
X152354711Y-52093498D01*
X152354710Y-52093500D01*
X152284718Y-52400156D01*
X152284716Y-52400172D01*
X152249500Y-52712722D01*
X152249500Y-53027277D01*
X152284716Y-53339827D01*
X152284718Y-53339843D01*
X152354710Y-53646499D01*
X152354711Y-53646501D01*
X152458598Y-53943395D01*
X152595072Y-54226786D01*
X152595074Y-54226789D01*
X152762423Y-54493123D01*
X152958539Y-54739044D01*
X153180956Y-54961461D01*
X153426877Y-55157577D01*
X153693211Y-55324926D01*
X153976606Y-55461402D01*
X154273500Y-55565289D01*
X154580160Y-55635282D01*
X154892723Y-55670499D01*
X154892724Y-55670500D01*
X154892727Y-55670500D01*
X155207276Y-55670500D01*
X155207276Y-55670499D01*
X155519840Y-55635282D01*
X155826500Y-55565289D01*
X156123394Y-55461402D01*
X156406789Y-55324926D01*
X156673123Y-55157577D01*
X156919044Y-54961461D01*
X157141461Y-54739044D01*
X157337577Y-54493123D01*
X157504926Y-54226789D01*
X157641402Y-53943394D01*
X157745289Y-53646500D01*
X157815282Y-53339840D01*
X157850500Y-53027273D01*
X157850500Y-52712727D01*
X157815282Y-52400160D01*
X157745289Y-52093500D01*
X157641402Y-51796606D01*
X157504926Y-51513211D01*
X157427804Y-51390472D01*
X157408804Y-51323235D01*
X157429172Y-51256400D01*
X157482440Y-51211186D01*
X157532798Y-51200500D01*
X160420323Y-51200500D01*
X160487362Y-51220185D01*
X160533117Y-51272989D01*
X160543061Y-51342147D01*
X160514036Y-51405703D01*
X160474125Y-51436220D01*
X160249420Y-51544432D01*
X159945045Y-51735684D01*
X159663997Y-51959811D01*
X159409811Y-52213997D01*
X159185684Y-52495045D01*
X158994432Y-52799420D01*
X158838465Y-53123288D01*
X158719741Y-53462580D01*
X158719737Y-53462592D01*
X158639748Y-53813048D01*
X158639746Y-53813064D01*
X158599500Y-54170259D01*
X158599500Y-54529740D01*
X158639746Y-54886935D01*
X158639748Y-54886951D01*
X158719737Y-55237407D01*
X158719741Y-55237419D01*
X158838465Y-55576711D01*
X158994432Y-55900579D01*
X158994434Y-55900582D01*
X159185685Y-56204956D01*
X159409812Y-56486003D01*
X159663997Y-56740188D01*
X159945044Y-56964315D01*
X160249418Y-57155566D01*
X160573292Y-57311536D01*
X160828119Y-57400703D01*
X160912580Y-57430258D01*
X160912592Y-57430262D01*
X161263052Y-57510252D01*
X161323037Y-57517010D01*
X161409738Y-57526780D01*
X161474152Y-57553846D01*
X161513707Y-57611441D01*
X161515844Y-57681278D01*
X161479886Y-57741185D01*
X161417248Y-57772140D01*
X161409738Y-57773220D01*
X161263064Y-57789746D01*
X161263048Y-57789748D01*
X160912592Y-57869737D01*
X160912580Y-57869741D01*
X160573288Y-57988465D01*
X160249420Y-58144432D01*
X159945045Y-58335684D01*
X159663997Y-58559811D01*
X159409811Y-58813997D01*
X159185684Y-59095045D01*
X158994432Y-59399420D01*
X158838465Y-59723288D01*
X158719741Y-60062580D01*
X158719737Y-60062592D01*
X158639748Y-60413048D01*
X158639746Y-60413064D01*
X158599500Y-60770259D01*
X158599500Y-61129740D01*
X158639746Y-61486935D01*
X158639748Y-61486951D01*
X158719737Y-61837407D01*
X158719741Y-61837419D01*
X158838465Y-62176711D01*
X158994432Y-62500579D01*
X158994434Y-62500582D01*
X159185685Y-62804956D01*
X159409812Y-63086003D01*
X159663997Y-63340188D01*
X159945044Y-63564315D01*
X160249418Y-63755566D01*
X160573292Y-63911536D01*
X160683400Y-63950064D01*
X160848851Y-64007959D01*
X160905627Y-64048680D01*
X160931374Y-64113633D01*
X160917918Y-64182195D01*
X160869530Y-64232598D01*
X160848851Y-64242041D01*
X160573288Y-64338465D01*
X160249420Y-64494432D01*
X159945045Y-64685684D01*
X159663997Y-64909811D01*
X159409811Y-65163997D01*
X159185684Y-65445045D01*
X158994432Y-65749420D01*
X158838465Y-66073288D01*
X158719741Y-66412580D01*
X158719737Y-66412592D01*
X158639748Y-66763048D01*
X158639746Y-66763064D01*
X158599500Y-67120259D01*
X158599500Y-67479740D01*
X158639746Y-67836935D01*
X158639748Y-67836951D01*
X158719737Y-68187407D01*
X158719741Y-68187419D01*
X158838465Y-68526711D01*
X158994432Y-68850579D01*
X158994434Y-68850582D01*
X159185685Y-69154956D01*
X159409812Y-69436003D01*
X159663997Y-69690188D01*
X159945044Y-69914315D01*
X160249418Y-70105566D01*
X160573292Y-70261536D01*
X160828119Y-70350703D01*
X160912580Y-70380258D01*
X160912592Y-70380262D01*
X161263052Y-70460252D01*
X161620260Y-70500499D01*
X161620261Y-70500500D01*
X161620264Y-70500500D01*
X161979739Y-70500500D01*
X161979739Y-70500499D01*
X162336948Y-70460252D01*
X162687408Y-70380262D01*
X163026708Y-70261536D01*
X163350582Y-70105566D01*
X163654956Y-69914315D01*
X163936003Y-69690188D01*
X164190188Y-69436003D01*
X164414315Y-69154956D01*
X164605566Y-68850582D01*
X164761536Y-68526708D01*
X164880262Y-68187408D01*
X164960252Y-67836948D01*
X165000500Y-67479736D01*
X165000500Y-67120264D01*
X164960252Y-66763052D01*
X164880262Y-66412592D01*
X164866371Y-66372895D01*
X164827505Y-66261820D01*
X164761536Y-66073292D01*
X164636789Y-65814253D01*
X164605567Y-65749420D01*
X164605566Y-65749418D01*
X164414315Y-65445044D01*
X164190188Y-65163997D01*
X163936003Y-64909812D01*
X163922500Y-64899044D01*
X163832773Y-64827489D01*
X163654956Y-64685685D01*
X163350582Y-64494434D01*
X163350579Y-64494432D01*
X163026711Y-64338465D01*
X162751148Y-64242041D01*
X162694372Y-64201320D01*
X162668625Y-64136367D01*
X162682081Y-64067805D01*
X162730469Y-64017403D01*
X162751148Y-64007959D01*
X162852418Y-63972522D01*
X163026708Y-63911536D01*
X163350582Y-63755566D01*
X163654956Y-63564315D01*
X163936003Y-63340188D01*
X164190188Y-63086003D01*
X164414315Y-62804956D01*
X164605566Y-62500582D01*
X164761536Y-62176708D01*
X164880262Y-61837408D01*
X164960252Y-61486948D01*
X165000500Y-61129736D01*
X165000500Y-60770264D01*
X164960252Y-60413052D01*
X164880262Y-60062592D01*
X164761536Y-59723292D01*
X164605566Y-59399418D01*
X164414315Y-59095044D01*
X164190188Y-58813997D01*
X163936003Y-58559812D01*
X163654956Y-58335685D01*
X163350582Y-58144434D01*
X163350579Y-58144432D01*
X163026711Y-57988465D01*
X162687419Y-57869741D01*
X162687407Y-57869737D01*
X162336951Y-57789748D01*
X162336933Y-57789745D01*
X162190262Y-57773220D01*
X162125848Y-57746154D01*
X162086292Y-57688559D01*
X162084155Y-57618722D01*
X162120113Y-57558815D01*
X162182751Y-57527860D01*
X162190262Y-57526780D01*
X162336933Y-57510254D01*
X162336938Y-57510253D01*
X162336948Y-57510252D01*
X162687408Y-57430262D01*
X163026708Y-57311536D01*
X163350582Y-57155566D01*
X163654956Y-56964315D01*
X163936003Y-56740188D01*
X164190188Y-56486003D01*
X164414315Y-56204956D01*
X164605566Y-55900582D01*
X164761536Y-55576708D01*
X164880262Y-55237408D01*
X164960252Y-54886948D01*
X165000500Y-54529736D01*
X165000500Y-54170264D01*
X164960252Y-53813052D01*
X164880262Y-53462592D01*
X164761536Y-53123292D01*
X164605566Y-52799418D01*
X164414315Y-52495044D01*
X164190188Y-52213997D01*
X163936003Y-51959812D01*
X163654956Y-51735685D01*
X163350582Y-51544434D01*
X163350579Y-51544432D01*
X163125875Y-51436220D01*
X163074016Y-51389397D01*
X163055703Y-51321970D01*
X163076751Y-51255346D01*
X163130477Y-51210678D01*
X163179677Y-51200500D01*
X178775500Y-51200500D01*
X178842539Y-51220185D01*
X178888294Y-51272989D01*
X178899500Y-51324500D01*
X178899500Y-86613395D01*
X178879815Y-86680434D01*
X178827011Y-86726189D01*
X178757853Y-86736133D01*
X178694297Y-86707108D01*
X178693872Y-86706737D01*
X178568097Y-86596746D01*
X178316871Y-86430396D01*
X178316866Y-86430393D01*
X178045720Y-86299018D01*
X178045716Y-86299016D01*
X178045712Y-86299014D01*
X178045708Y-86299013D01*
X177759479Y-86204952D01*
X177759469Y-86204950D01*
X177463233Y-86149876D01*
X177286021Y-86139500D01*
X176013979Y-86139500D01*
X175836766Y-86149876D01*
X175540530Y-86204950D01*
X175540520Y-86204952D01*
X175254291Y-86299013D01*
X175254279Y-86299018D01*
X174983133Y-86430393D01*
X174983128Y-86430396D01*
X174731906Y-86596743D01*
X174505093Y-86795093D01*
X174306743Y-87021906D01*
X174140396Y-87273128D01*
X174140393Y-87273133D01*
X174009018Y-87544279D01*
X174009013Y-87544291D01*
X173914952Y-87830520D01*
X173914950Y-87830530D01*
X173859876Y-88126766D01*
X173849500Y-88303978D01*
X173849500Y-89576020D01*
X173859876Y-89753233D01*
X173914950Y-90049469D01*
X173914952Y-90049479D01*
X174009013Y-90335708D01*
X174009018Y-90335720D01*
X174140393Y-90606866D01*
X174140396Y-90606871D01*
X174306743Y-90858093D01*
X174505093Y-91084906D01*
X174731906Y-91283256D01*
X174983128Y-91449603D01*
X174983133Y-91449606D01*
X175113824Y-91512928D01*
X175254284Y-91580984D01*
X175297812Y-91595288D01*
X175540520Y-91675047D01*
X175540524Y-91675047D01*
X175540531Y-91675050D01*
X175836762Y-91730123D01*
X176013979Y-91740500D01*
X177286020Y-91740499D01*
X177463238Y-91730123D01*
X177759469Y-91675050D01*
X177759476Y-91675047D01*
X177759479Y-91675047D01*
X177848989Y-91645631D01*
X178045716Y-91580984D01*
X178316870Y-91449604D01*
X178568095Y-91283255D01*
X178693871Y-91173261D01*
X178757294Y-91143948D01*
X178826497Y-91153576D01*
X178879509Y-91199090D01*
X178899499Y-91266039D01*
X178899500Y-91266604D01*
X178899500Y-94549633D01*
X178879815Y-94616672D01*
X178827011Y-94662427D01*
X178757853Y-94672371D01*
X178694297Y-94643346D01*
X178687819Y-94637314D01*
X178519043Y-94468538D01*
X178448430Y-94412226D01*
X178273123Y-94272423D01*
X178006789Y-94105074D01*
X178006786Y-94105072D01*
X177723395Y-93968598D01*
X177426501Y-93864711D01*
X177426499Y-93864710D01*
X177119843Y-93794718D01*
X177119827Y-93794716D01*
X176807277Y-93759500D01*
X176807273Y-93759500D01*
X176492727Y-93759500D01*
X176492722Y-93759500D01*
X176180172Y-93794716D01*
X176180156Y-93794718D01*
X175873500Y-93864710D01*
X175873498Y-93864711D01*
X175576604Y-93968598D01*
X175293213Y-94105072D01*
X175026878Y-94272422D01*
X174780956Y-94468538D01*
X174558538Y-94690956D01*
X174362422Y-94936878D01*
X174195072Y-95203213D01*
X174058598Y-95486604D01*
X173954711Y-95783498D01*
X173954710Y-95783500D01*
X173884718Y-96090156D01*
X173884716Y-96090172D01*
X173849500Y-96402722D01*
X173849500Y-96717277D01*
X173884716Y-97029827D01*
X173884718Y-97029843D01*
X173954710Y-97336499D01*
X173954711Y-97336501D01*
X174058598Y-97633395D01*
X174195072Y-97916786D01*
X174195074Y-97916789D01*
X174362423Y-98183123D01*
X174558539Y-98429044D01*
X174780956Y-98651461D01*
X175026877Y-98847577D01*
X175293211Y-99014926D01*
X175576606Y-99151402D01*
X175873500Y-99255289D01*
X176180160Y-99325282D01*
X176492723Y-99360499D01*
X176492724Y-99360500D01*
X176492727Y-99360500D01*
X176807276Y-99360500D01*
X176807276Y-99360499D01*
X177119840Y-99325282D01*
X177426500Y-99255289D01*
X177723394Y-99151402D01*
X178006789Y-99014926D01*
X178273123Y-98847577D01*
X178519044Y-98651461D01*
X178687819Y-98482686D01*
X178749142Y-98449201D01*
X178818834Y-98454185D01*
X178874767Y-98496057D01*
X178899184Y-98561521D01*
X178899500Y-98570367D01*
X178899500Y-117362421D01*
X178879815Y-117429460D01*
X178827011Y-117475215D01*
X178757853Y-117485159D01*
X178694297Y-117456134D01*
X178658459Y-117403376D01*
X178640492Y-117352030D01*
X178622515Y-117300655D01*
X178478607Y-117001827D01*
X178302146Y-116720991D01*
X178095351Y-116461678D01*
X177860822Y-116227149D01*
X177846618Y-116215822D01*
X177670828Y-116075634D01*
X177601509Y-116020354D01*
X177320673Y-115843893D01*
X177320670Y-115843891D01*
X177021848Y-115699986D01*
X176708794Y-115590443D01*
X176708782Y-115590439D01*
X176385428Y-115516636D01*
X176385412Y-115516634D01*
X176055841Y-115479500D01*
X176055837Y-115479500D01*
X175724163Y-115479500D01*
X175724158Y-115479500D01*
X175394587Y-115516634D01*
X175394571Y-115516636D01*
X175071217Y-115590439D01*
X175071205Y-115590443D01*
X174758151Y-115699986D01*
X174459329Y-115843891D01*
X174178492Y-116020353D01*
X173919178Y-116227148D01*
X173684648Y-116461678D01*
X173477853Y-116720992D01*
X173301391Y-117001829D01*
X173157486Y-117300651D01*
X173047943Y-117613705D01*
X173047939Y-117613717D01*
X172974136Y-117937071D01*
X172974134Y-117937087D01*
X172937000Y-118266658D01*
X172937000Y-118693341D01*
X172974134Y-119022912D01*
X172974136Y-119022928D01*
X173047939Y-119346282D01*
X173047943Y-119346294D01*
X173157486Y-119659348D01*
X173206950Y-119762060D01*
X173218302Y-119831001D01*
X173190580Y-119895136D01*
X173132585Y-119934102D01*
X173109114Y-119939082D01*
X172864587Y-119966634D01*
X172864571Y-119966636D01*
X172541217Y-120040439D01*
X172541205Y-120040443D01*
X172228151Y-120149986D01*
X171929329Y-120293891D01*
X171648492Y-120470353D01*
X171389178Y-120677148D01*
X171154648Y-120911678D01*
X170947853Y-121170992D01*
X170771391Y-121451829D01*
X170627486Y-121750651D01*
X170517943Y-122063705D01*
X170517939Y-122063717D01*
X170444136Y-122387071D01*
X170444134Y-122387087D01*
X170407000Y-122716658D01*
X170407000Y-123143341D01*
X170444134Y-123472912D01*
X170444136Y-123472928D01*
X170517939Y-123796282D01*
X170517943Y-123796294D01*
X170627486Y-124109348D01*
X170771391Y-124408170D01*
X170771393Y-124408173D01*
X170947854Y-124689009D01*
X171102130Y-124882465D01*
X171154648Y-124948321D01*
X171294146Y-125087819D01*
X171327631Y-125149142D01*
X171322647Y-125218834D01*
X171280775Y-125274767D01*
X171215311Y-125299184D01*
X171206465Y-125299500D01*
X163524500Y-125299500D01*
X163457461Y-125279815D01*
X163411706Y-125227011D01*
X163400500Y-125175500D01*
X163400500Y-121734110D01*
X163400500Y-121734108D01*
X163367105Y-121609475D01*
X163368768Y-121539629D01*
X163407930Y-121481766D01*
X163445920Y-121460345D01*
X163497962Y-121442136D01*
X163814246Y-121289821D01*
X164111487Y-121103052D01*
X164385948Y-120884177D01*
X164634177Y-120635948D01*
X164853052Y-120361487D01*
X165039821Y-120064246D01*
X165192136Y-119747962D01*
X165308080Y-119416613D01*
X165386195Y-119074366D01*
X165425500Y-118725524D01*
X165425500Y-118374476D01*
X165386195Y-118025634D01*
X165308080Y-117683387D01*
X165283701Y-117613717D01*
X165192138Y-117352044D01*
X165192136Y-117352038D01*
X165039821Y-117035754D01*
X164853052Y-116738513D01*
X164634177Y-116464052D01*
X164385948Y-116215823D01*
X164111487Y-115996948D01*
X163906196Y-115867955D01*
X163814243Y-115810177D01*
X163497969Y-115657867D01*
X163497955Y-115657861D01*
X163166624Y-115541923D01*
X163166612Y-115541919D01*
X162824369Y-115463805D01*
X162824353Y-115463803D01*
X162475528Y-115424500D01*
X162475524Y-115424500D01*
X162124476Y-115424500D01*
X162124471Y-115424500D01*
X161775646Y-115463803D01*
X161775630Y-115463805D01*
X161433387Y-115541919D01*
X161433375Y-115541923D01*
X161102044Y-115657861D01*
X161102030Y-115657867D01*
X160785752Y-115810179D01*
X160785750Y-115810180D01*
X160778422Y-115814785D01*
X160711184Y-115833782D01*
X160644350Y-115813412D01*
X160599138Y-115760143D01*
X160588455Y-115709937D01*
X160572412Y-101688872D01*
X171349500Y-101688872D01*
X171349500Y-101951127D01*
X171376123Y-102153339D01*
X171383730Y-102211116D01*
X171451602Y-102464418D01*
X171451605Y-102464428D01*
X171551953Y-102706690D01*
X171551958Y-102706700D01*
X171683075Y-102933803D01*
X171842718Y-103141851D01*
X171842726Y-103141860D01*
X172028140Y-103327274D01*
X172028148Y-103327281D01*
X172236196Y-103486924D01*
X172463299Y-103618041D01*
X172463309Y-103618046D01*
X172705571Y-103718394D01*
X172705581Y-103718398D01*
X172958884Y-103786270D01*
X173218880Y-103820500D01*
X173218887Y-103820500D01*
X173481113Y-103820500D01*
X173481120Y-103820500D01*
X173741116Y-103786270D01*
X173994419Y-103718398D01*
X174236697Y-103618043D01*
X174463803Y-103486924D01*
X174671851Y-103327282D01*
X174671855Y-103327277D01*
X174671860Y-103327274D01*
X174857274Y-103141860D01*
X174857277Y-103141855D01*
X174857282Y-103141851D01*
X175016924Y-102933803D01*
X175148043Y-102706697D01*
X175248398Y-102464419D01*
X175316270Y-102211116D01*
X175350500Y-101951120D01*
X175350500Y-101688880D01*
X175316270Y-101428884D01*
X175248398Y-101175581D01*
X175248394Y-101175571D01*
X175148046Y-100933309D01*
X175148041Y-100933299D01*
X175016924Y-100706196D01*
X174857281Y-100498148D01*
X174857274Y-100498140D01*
X174671860Y-100312726D01*
X174671851Y-100312718D01*
X174463803Y-100153075D01*
X174236700Y-100021958D01*
X174236690Y-100021953D01*
X173994428Y-99921605D01*
X173994421Y-99921603D01*
X173994419Y-99921602D01*
X173741116Y-99853730D01*
X173683339Y-99846123D01*
X173481127Y-99819500D01*
X173481120Y-99819500D01*
X173218880Y-99819500D01*
X173218872Y-99819500D01*
X172987772Y-99849926D01*
X172958884Y-99853730D01*
X172705581Y-99921602D01*
X172705571Y-99921605D01*
X172463309Y-100021953D01*
X172463299Y-100021958D01*
X172236196Y-100153075D01*
X172028148Y-100312718D01*
X171842718Y-100498148D01*
X171683075Y-100706196D01*
X171551958Y-100933299D01*
X171551953Y-100933309D01*
X171451605Y-101175571D01*
X171451602Y-101175581D01*
X171383730Y-101428885D01*
X171349500Y-101688872D01*
X160572412Y-101688872D01*
X160569082Y-98778178D01*
X160588690Y-98711118D01*
X160641442Y-98665303D01*
X160710589Y-98655280D01*
X160759052Y-98673043D01*
X160785754Y-98689821D01*
X161102038Y-98842136D01*
X161212487Y-98880784D01*
X161433375Y-98958076D01*
X161433387Y-98958080D01*
X161775634Y-99036195D01*
X162124472Y-99075499D01*
X162124473Y-99075500D01*
X162124476Y-99075500D01*
X162475527Y-99075500D01*
X162475527Y-99075499D01*
X162824366Y-99036195D01*
X163166613Y-98958080D01*
X163497962Y-98842136D01*
X163814246Y-98689821D01*
X164111487Y-98503052D01*
X164385948Y-98284177D01*
X164634177Y-98035948D01*
X164853052Y-97761487D01*
X165039821Y-97464246D01*
X165192136Y-97147962D01*
X165308080Y-96816613D01*
X165386195Y-96474366D01*
X165425500Y-96125524D01*
X165425500Y-95774476D01*
X165386195Y-95425634D01*
X165308080Y-95083387D01*
X165306912Y-95080050D01*
X165192138Y-94752044D01*
X165192136Y-94752038D01*
X165065899Y-94489906D01*
X165039822Y-94435756D01*
X165025037Y-94412226D01*
X164853052Y-94138513D01*
X164634177Y-93864052D01*
X164385948Y-93615823D01*
X164111487Y-93396948D01*
X163814246Y-93210179D01*
X163814243Y-93210177D01*
X163497969Y-93057867D01*
X163497955Y-93057861D01*
X163166624Y-92941923D01*
X163166612Y-92941919D01*
X162824369Y-92863805D01*
X162824353Y-92863803D01*
X162475528Y-92824500D01*
X162475524Y-92824500D01*
X162124476Y-92824500D01*
X162124471Y-92824500D01*
X161775646Y-92863803D01*
X161775630Y-92863805D01*
X161433387Y-92941919D01*
X161433375Y-92941923D01*
X161102044Y-93057861D01*
X161102030Y-93057867D01*
X160785756Y-93210177D01*
X160752584Y-93231020D01*
X160685347Y-93250018D01*
X160618512Y-93229648D01*
X160573300Y-93176379D01*
X160562615Y-93126169D01*
X160560769Y-91512928D01*
X160580377Y-91445870D01*
X160630965Y-91401072D01*
X160726789Y-91354926D01*
X160993123Y-91187577D01*
X161239044Y-90991461D01*
X161461461Y-90769044D01*
X161657577Y-90523123D01*
X161824926Y-90256789D01*
X161961402Y-89973394D01*
X162065289Y-89676500D01*
X162135282Y-89369840D01*
X162170500Y-89057273D01*
X162170500Y-88742727D01*
X162170499Y-88742722D01*
X166729500Y-88742722D01*
X166729500Y-89057277D01*
X166764716Y-89369827D01*
X166764718Y-89369843D01*
X166834710Y-89676499D01*
X166834711Y-89676501D01*
X166938598Y-89973395D01*
X167075072Y-90256786D01*
X167075074Y-90256789D01*
X167242423Y-90523123D01*
X167438539Y-90769044D01*
X167660956Y-90991461D01*
X167906877Y-91187577D01*
X168173211Y-91354926D01*
X168456606Y-91491402D01*
X168753500Y-91595289D01*
X169060160Y-91665282D01*
X169372723Y-91700499D01*
X169372724Y-91700500D01*
X169372727Y-91700500D01*
X169687276Y-91700500D01*
X169687276Y-91700499D01*
X169999840Y-91665282D01*
X170306500Y-91595289D01*
X170603394Y-91491402D01*
X170886789Y-91354926D01*
X171153123Y-91187577D01*
X171399044Y-90991461D01*
X171621461Y-90769044D01*
X171817577Y-90523123D01*
X171984926Y-90256789D01*
X172121402Y-89973394D01*
X172225289Y-89676500D01*
X172295282Y-89369840D01*
X172330500Y-89057273D01*
X172330500Y-88742727D01*
X172295282Y-88430160D01*
X172225289Y-88123500D01*
X172121402Y-87826606D01*
X171984926Y-87543211D01*
X171817577Y-87276877D01*
X171621461Y-87030956D01*
X171399044Y-86808539D01*
X171399043Y-86808538D01*
X171397753Y-86807385D01*
X171397528Y-86807023D01*
X171396584Y-86806079D01*
X171396804Y-86805858D01*
X171360890Y-86748031D01*
X171361968Y-86678170D01*
X171400644Y-86619982D01*
X171403018Y-86618038D01*
X171499044Y-86541461D01*
X171721461Y-86319044D01*
X171917577Y-86073123D01*
X172084926Y-85806789D01*
X172221402Y-85523394D01*
X172324593Y-85228488D01*
X172365314Y-85171714D01*
X172430266Y-85145966D01*
X172498828Y-85159422D01*
X172507599Y-85164446D01*
X172591659Y-85217265D01*
X172864935Y-85348868D01*
X173079951Y-85424105D01*
X173151216Y-85449042D01*
X173151228Y-85449046D01*
X173446937Y-85516540D01*
X173446946Y-85516541D01*
X173446951Y-85516542D01*
X173647874Y-85539180D01*
X173748337Y-85550499D01*
X173748340Y-85550500D01*
X173748343Y-85550500D01*
X174051660Y-85550500D01*
X174051661Y-85550499D01*
X174205694Y-85533144D01*
X174353048Y-85516542D01*
X174353051Y-85516541D01*
X174353063Y-85516540D01*
X174648772Y-85449046D01*
X174935065Y-85348868D01*
X175208341Y-85217265D01*
X175465164Y-85055892D01*
X175702304Y-84866779D01*
X175916779Y-84652304D01*
X176105892Y-84415164D01*
X176267265Y-84158341D01*
X176398868Y-83885065D01*
X176499046Y-83598772D01*
X176566540Y-83303063D01*
X176600500Y-83001657D01*
X176600500Y-82698343D01*
X176587274Y-82580956D01*
X176566542Y-82396951D01*
X176566541Y-82396946D01*
X176566540Y-82396937D01*
X176499046Y-82101228D01*
X176398868Y-81814935D01*
X176267265Y-81541659D01*
X176105892Y-81284836D01*
X175916779Y-81047696D01*
X175702304Y-80833221D01*
X175465164Y-80644108D01*
X175208341Y-80482735D01*
X175208338Y-80482733D01*
X174935068Y-80351133D01*
X174648783Y-80250957D01*
X174648771Y-80250953D01*
X174420556Y-80198864D01*
X174353063Y-80183460D01*
X174353060Y-80183459D01*
X174353048Y-80183457D01*
X174051663Y-80149500D01*
X174051657Y-80149500D01*
X173748343Y-80149500D01*
X173748336Y-80149500D01*
X173446951Y-80183457D01*
X173446937Y-80183460D01*
X173151228Y-80250953D01*
X173151216Y-80250957D01*
X172864931Y-80351133D01*
X172591661Y-80482733D01*
X172334837Y-80644107D01*
X172097696Y-80833220D01*
X171883220Y-81047696D01*
X171694107Y-81284837D01*
X171532733Y-81541661D01*
X171401133Y-81814931D01*
X171326134Y-82029265D01*
X171285413Y-82086041D01*
X171220460Y-82111788D01*
X171151898Y-82098332D01*
X171143121Y-82093304D01*
X170986786Y-81995072D01*
X170703395Y-81858598D01*
X170406501Y-81754711D01*
X170406499Y-81754710D01*
X170099843Y-81684718D01*
X170099827Y-81684716D01*
X169787277Y-81649500D01*
X169787273Y-81649500D01*
X169472727Y-81649500D01*
X169472722Y-81649500D01*
X169160172Y-81684716D01*
X169160156Y-81684718D01*
X168853500Y-81754710D01*
X168853498Y-81754711D01*
X168556604Y-81858598D01*
X168273213Y-81995072D01*
X168006878Y-82162422D01*
X167760956Y-82358538D01*
X167538538Y-82580956D01*
X167342422Y-82826878D01*
X167175072Y-83093213D01*
X167038598Y-83376604D01*
X166934711Y-83673498D01*
X166934710Y-83673500D01*
X166864718Y-83980156D01*
X166864716Y-83980172D01*
X166829500Y-84292722D01*
X166829500Y-84607277D01*
X166864716Y-84919827D01*
X166864718Y-84919843D01*
X166934710Y-85226499D01*
X166934711Y-85226501D01*
X167038598Y-85523395D01*
X167175072Y-85806786D01*
X167175074Y-85806789D01*
X167342423Y-86073123D01*
X167488733Y-86256589D01*
X167538538Y-86319043D01*
X167760952Y-86541457D01*
X167762231Y-86542600D01*
X167762454Y-86542959D01*
X167763416Y-86543921D01*
X167763191Y-86544145D01*
X167799104Y-86601948D01*
X167798037Y-86671809D01*
X167759370Y-86730004D01*
X167756920Y-86732009D01*
X167660956Y-86808538D01*
X167438538Y-87030956D01*
X167242422Y-87276878D01*
X167075072Y-87543213D01*
X166938598Y-87826604D01*
X166834711Y-88123498D01*
X166834710Y-88123500D01*
X166764718Y-88430156D01*
X166764716Y-88430172D01*
X166729500Y-88742722D01*
X162170499Y-88742722D01*
X162135282Y-88430160D01*
X162065289Y-88123500D01*
X161961402Y-87826606D01*
X161824926Y-87543211D01*
X161657577Y-87276877D01*
X161461461Y-87030956D01*
X161239044Y-86808539D01*
X161239043Y-86808538D01*
X161237753Y-86807385D01*
X161237528Y-86807023D01*
X161236584Y-86806079D01*
X161236804Y-86805858D01*
X161200890Y-86748031D01*
X161201968Y-86678170D01*
X161240644Y-86619982D01*
X161243018Y-86618038D01*
X161339044Y-86541461D01*
X161561461Y-86319044D01*
X161757577Y-86073123D01*
X161924926Y-85806789D01*
X162061402Y-85523394D01*
X162165289Y-85226500D01*
X162235282Y-84919840D01*
X162270500Y-84607273D01*
X162270500Y-84292727D01*
X162235282Y-83980160D01*
X162165289Y-83673500D01*
X162061402Y-83376606D01*
X161924926Y-83093211D01*
X161757577Y-82826877D01*
X161561461Y-82580956D01*
X161339044Y-82358539D01*
X161093123Y-82162423D01*
X160826789Y-81995074D01*
X160826786Y-81995072D01*
X160543395Y-81858598D01*
X160246501Y-81754711D01*
X160246499Y-81754710D01*
X159939843Y-81684718D01*
X159939827Y-81684716D01*
X159711858Y-81659030D01*
X159647444Y-81631963D01*
X159607889Y-81574369D01*
X159605752Y-81504532D01*
X159638058Y-81448132D01*
X159750188Y-81336003D01*
X159974315Y-81054956D01*
X160165566Y-80750582D01*
X160321536Y-80426708D01*
X160440262Y-80087408D01*
X160520252Y-79736948D01*
X160560500Y-79379736D01*
X160560500Y-79020264D01*
X160520252Y-78663052D01*
X160440262Y-78312592D01*
X160321536Y-77973292D01*
X160165566Y-77649418D01*
X159974315Y-77345044D01*
X159750188Y-77063997D01*
X159496003Y-76809812D01*
X159214956Y-76585685D01*
X158910582Y-76394434D01*
X158910583Y-76394434D01*
X158910576Y-76394430D01*
X158900830Y-76389737D01*
X158900829Y-76389737D01*
X158676055Y-76281491D01*
X163599500Y-76281491D01*
X163599500Y-76618508D01*
X163637231Y-76953381D01*
X163637233Y-76953397D01*
X163712223Y-77281953D01*
X163712227Y-77281965D01*
X163823532Y-77600054D01*
X163969752Y-77903683D01*
X163969754Y-77903686D01*
X164149054Y-78189039D01*
X164359175Y-78452523D01*
X164597477Y-78690825D01*
X164860961Y-78900946D01*
X165146314Y-79080246D01*
X165449949Y-79226469D01*
X165688848Y-79310063D01*
X165768034Y-79337772D01*
X165768046Y-79337776D01*
X166096606Y-79412767D01*
X166431492Y-79450499D01*
X166431493Y-79450500D01*
X166431496Y-79450500D01*
X166768507Y-79450500D01*
X166768507Y-79450499D01*
X167103394Y-79412767D01*
X167431954Y-79337776D01*
X167750051Y-79226469D01*
X168053686Y-79080246D01*
X168339039Y-78900946D01*
X168602523Y-78690825D01*
X168840825Y-78452523D01*
X169050946Y-78189039D01*
X169230246Y-77903686D01*
X169376469Y-77600051D01*
X169487776Y-77281954D01*
X169562767Y-76953394D01*
X169600500Y-76618504D01*
X169600500Y-76281496D01*
X169562767Y-75946606D01*
X169487776Y-75618046D01*
X169376469Y-75299949D01*
X169230246Y-74996314D01*
X169050946Y-74710961D01*
X168840825Y-74447477D01*
X168602523Y-74209175D01*
X168339039Y-73999054D01*
X168053686Y-73819754D01*
X168053683Y-73819752D01*
X167750054Y-73673532D01*
X167431965Y-73562227D01*
X167431953Y-73562223D01*
X167103397Y-73487233D01*
X167103381Y-73487231D01*
X166768508Y-73449500D01*
X166768504Y-73449500D01*
X166431496Y-73449500D01*
X166431491Y-73449500D01*
X166096618Y-73487231D01*
X166096602Y-73487233D01*
X165768046Y-73562223D01*
X165768034Y-73562227D01*
X165449945Y-73673532D01*
X165146316Y-73819752D01*
X164860962Y-73999053D01*
X164597477Y-74209174D01*
X164359174Y-74447477D01*
X164149053Y-74710962D01*
X163969752Y-74996316D01*
X163823532Y-75299945D01*
X163712227Y-75618034D01*
X163712223Y-75618046D01*
X163637233Y-75946602D01*
X163637231Y-75946618D01*
X163599500Y-76281491D01*
X158676055Y-76281491D01*
X158586711Y-76238465D01*
X158247419Y-76119741D01*
X158247407Y-76119737D01*
X157896951Y-76039748D01*
X157896935Y-76039746D01*
X157539740Y-75999500D01*
X157539736Y-75999500D01*
X157180264Y-75999500D01*
X157180259Y-75999500D01*
X156823064Y-76039746D01*
X156823048Y-76039748D01*
X156472592Y-76119737D01*
X156472580Y-76119741D01*
X156133288Y-76238465D01*
X155809420Y-76394432D01*
X155505045Y-76585684D01*
X155223997Y-76809811D01*
X154969811Y-77063997D01*
X154745684Y-77345045D01*
X154554432Y-77649420D01*
X154398465Y-77973288D01*
X154279741Y-78312580D01*
X154279737Y-78312592D01*
X154199748Y-78663048D01*
X154199746Y-78663064D01*
X154159500Y-79020259D01*
X154159500Y-79379740D01*
X154199746Y-79736935D01*
X154199748Y-79736951D01*
X154279737Y-80087407D01*
X154279741Y-80087419D01*
X154335244Y-80246037D01*
X154338806Y-80315816D01*
X154304078Y-80376443D01*
X154242084Y-80408671D01*
X154186320Y-80406823D01*
X132447250Y-74622735D01*
X132387526Y-74586475D01*
X132356886Y-74523682D01*
X132365059Y-74454292D01*
X132409450Y-74400336D01*
X132410484Y-74399641D01*
X132489146Y-74347556D01*
X132715957Y-74149207D01*
X132914306Y-73922396D01*
X133080655Y-73671171D01*
X133212035Y-73400017D01*
X133297567Y-73139740D01*
X133306098Y-73113780D01*
X133306098Y-73113777D01*
X133306101Y-73113770D01*
X133361174Y-72817539D01*
X133363357Y-72780259D01*
X136649500Y-72780259D01*
X136649500Y-73139740D01*
X136689746Y-73496935D01*
X136689748Y-73496951D01*
X136769737Y-73847407D01*
X136769741Y-73847419D01*
X136888465Y-74186711D01*
X137044432Y-74510579D01*
X137044434Y-74510582D01*
X137235685Y-74814956D01*
X137459812Y-75096003D01*
X137713997Y-75350188D01*
X137995044Y-75574315D01*
X138299418Y-75765566D01*
X138623292Y-75921536D01*
X138846101Y-75999500D01*
X138962580Y-76040258D01*
X138962592Y-76040262D01*
X139313052Y-76120252D01*
X139670260Y-76160499D01*
X139670261Y-76160500D01*
X139670264Y-76160500D01*
X140029739Y-76160500D01*
X140029739Y-76160499D01*
X140386948Y-76120252D01*
X140737408Y-76040262D01*
X141076708Y-75921536D01*
X141400582Y-75765566D01*
X141704956Y-75574315D01*
X141986003Y-75350188D01*
X142240188Y-75096003D01*
X142464315Y-74814956D01*
X142655566Y-74510582D01*
X142811536Y-74186708D01*
X142930262Y-73847408D01*
X143010252Y-73496948D01*
X143050500Y-73139736D01*
X143050500Y-72780264D01*
X143010252Y-72423052D01*
X142930262Y-72072592D01*
X142811536Y-71733292D01*
X142655566Y-71409418D01*
X142464315Y-71105044D01*
X142240188Y-70823997D01*
X141986003Y-70569812D01*
X141704956Y-70345685D01*
X141400582Y-70154434D01*
X141400579Y-70154432D01*
X141076711Y-69998465D01*
X140737419Y-69879741D01*
X140737407Y-69879737D01*
X140386951Y-69799748D01*
X140386935Y-69799746D01*
X140029740Y-69759500D01*
X140029736Y-69759500D01*
X139670264Y-69759500D01*
X139670259Y-69759500D01*
X139313064Y-69799746D01*
X139313048Y-69799748D01*
X138962592Y-69879737D01*
X138962580Y-69879741D01*
X138623288Y-69998465D01*
X138299420Y-70154432D01*
X137995045Y-70345684D01*
X137713997Y-70569811D01*
X137459811Y-70823997D01*
X137235684Y-71105045D01*
X137044432Y-71409420D01*
X136888465Y-71733288D01*
X136769741Y-72072580D01*
X136769737Y-72072592D01*
X136689748Y-72423048D01*
X136689746Y-72423064D01*
X136649500Y-72780259D01*
X133363357Y-72780259D01*
X133371551Y-72640322D01*
X133371550Y-70818281D01*
X133361174Y-70641063D01*
X133306101Y-70344832D01*
X133306098Y-70344825D01*
X133306098Y-70344821D01*
X133212037Y-70058592D01*
X133212035Y-70058585D01*
X133111128Y-69850323D01*
X133080657Y-69787434D01*
X133080654Y-69787429D01*
X132914307Y-69536207D01*
X132715957Y-69309394D01*
X132489144Y-69111044D01*
X132237922Y-68944697D01*
X132237917Y-68944694D01*
X131966771Y-68813319D01*
X131966767Y-68813317D01*
X131966763Y-68813315D01*
X131966759Y-68813314D01*
X131680530Y-68719253D01*
X131680520Y-68719251D01*
X131384284Y-68664177D01*
X131207072Y-68653801D01*
X129385030Y-68653801D01*
X129207817Y-68664177D01*
X128911581Y-68719251D01*
X128911571Y-68719253D01*
X128625342Y-68813314D01*
X128625330Y-68813319D01*
X128354184Y-68944694D01*
X128354179Y-68944697D01*
X128102957Y-69111044D01*
X127876144Y-69309394D01*
X127817842Y-69376064D01*
X127758893Y-69413570D01*
X127689024Y-69413252D01*
X127630418Y-69375210D01*
X127601683Y-69311523D01*
X127600500Y-69294435D01*
X127600500Y-66315621D01*
X127620185Y-66248582D01*
X127672989Y-66202827D01*
X127742147Y-66192883D01*
X127805703Y-66221908D01*
X127836220Y-66261820D01*
X127889710Y-66372895D01*
X127889714Y-66372901D01*
X128047202Y-66623542D01*
X128231763Y-66854975D01*
X128441076Y-67064288D01*
X128672509Y-67248849D01*
X128904611Y-67394688D01*
X128923155Y-67406340D01*
X129189833Y-67534765D01*
X129189842Y-67534768D01*
X129189849Y-67534772D01*
X129189855Y-67534774D01*
X129469238Y-67632535D01*
X129469250Y-67632539D01*
X129757842Y-67698408D01*
X130051989Y-67731550D01*
X130051990Y-67731551D01*
X130051993Y-67731551D01*
X130348010Y-67731551D01*
X130348010Y-67731550D01*
X130642158Y-67698408D01*
X130930750Y-67632539D01*
X131210151Y-67534772D01*
X131476850Y-67406337D01*
X131727491Y-67248849D01*
X131958924Y-67064288D01*
X131977901Y-67045311D01*
X145189500Y-67045311D01*
X145189500Y-67394688D01*
X145228613Y-67741834D01*
X145228616Y-67741848D01*
X145306356Y-68082453D01*
X145306360Y-68082465D01*
X145421742Y-68412205D01*
X145421751Y-68412227D01*
X145573324Y-68726972D01*
X145627578Y-68813317D01*
X145759201Y-69022793D01*
X145921706Y-69226567D01*
X145977025Y-69295936D01*
X146224063Y-69542974D01*
X146374637Y-69663053D01*
X146414777Y-69720241D01*
X146417627Y-69790053D01*
X146382282Y-69850323D01*
X146374637Y-69856947D01*
X146224063Y-69977025D01*
X145977025Y-70224063D01*
X145759200Y-70497208D01*
X145573324Y-70793027D01*
X145421751Y-71107772D01*
X145421742Y-71107794D01*
X145306360Y-71437534D01*
X145306356Y-71437546D01*
X145228616Y-71778151D01*
X145228613Y-71778165D01*
X145189500Y-72125311D01*
X145189500Y-72474688D01*
X145228613Y-72821834D01*
X145228616Y-72821848D01*
X145306356Y-73162453D01*
X145306360Y-73162465D01*
X145421742Y-73492205D01*
X145421751Y-73492227D01*
X145573324Y-73806972D01*
X145598731Y-73847407D01*
X145759201Y-74102793D01*
X145977026Y-74375937D01*
X146224063Y-74622974D01*
X146497207Y-74840799D01*
X146744708Y-74996314D01*
X146793027Y-75026675D01*
X147107772Y-75178248D01*
X147107781Y-75178251D01*
X147107788Y-75178255D01*
X147107794Y-75178257D01*
X147437534Y-75293639D01*
X147437546Y-75293643D01*
X147778151Y-75371384D01*
X147778160Y-75371385D01*
X147778165Y-75371386D01*
X148009595Y-75397461D01*
X148125312Y-75410499D01*
X148125315Y-75410500D01*
X148125318Y-75410500D01*
X148474685Y-75410500D01*
X148474686Y-75410499D01*
X148652107Y-75390509D01*
X148821834Y-75371386D01*
X148821837Y-75371385D01*
X148821849Y-75371384D01*
X149162454Y-75293643D01*
X149492212Y-75178255D01*
X149663011Y-75096003D01*
X149806972Y-75026675D01*
X149806972Y-75026674D01*
X149806978Y-75026672D01*
X150102793Y-74840799D01*
X150375937Y-74622974D01*
X150622974Y-74375937D01*
X150840799Y-74102793D01*
X151026672Y-73806978D01*
X151178255Y-73492212D01*
X151293643Y-73162454D01*
X151371384Y-72821849D01*
X151376070Y-72780264D01*
X151410499Y-72474688D01*
X151410500Y-72474684D01*
X151410500Y-72125315D01*
X151410499Y-72125311D01*
X151371386Y-71778165D01*
X151371385Y-71778160D01*
X151371384Y-71778151D01*
X151293643Y-71437546D01*
X151178255Y-71107788D01*
X151178251Y-71107781D01*
X151178248Y-71107772D01*
X151026675Y-70793027D01*
X150931192Y-70641067D01*
X150840799Y-70497207D01*
X150622974Y-70224063D01*
X150375937Y-69977026D01*
X150375936Y-69977025D01*
X150375930Y-69977019D01*
X150225363Y-69856947D01*
X150185222Y-69799759D01*
X150182372Y-69729947D01*
X150217717Y-69669677D01*
X150225363Y-69663053D01*
X150375930Y-69542980D01*
X150375932Y-69542977D01*
X150375937Y-69542974D01*
X150622974Y-69295937D01*
X150840799Y-69022793D01*
X151026672Y-68726978D01*
X151178255Y-68412212D01*
X151293643Y-68082454D01*
X151371384Y-67741849D01*
X151372545Y-67731551D01*
X151390509Y-67572107D01*
X151410500Y-67394682D01*
X151410500Y-67045318D01*
X151371384Y-66698151D01*
X151293643Y-66357546D01*
X151178255Y-66027788D01*
X151178251Y-66027781D01*
X151178248Y-66027772D01*
X151026675Y-65713027D01*
X150969103Y-65621402D01*
X150840799Y-65417207D01*
X150622974Y-65144063D01*
X150375937Y-64897026D01*
X150102793Y-64679201D01*
X149939893Y-64576844D01*
X149806972Y-64493324D01*
X149492227Y-64341751D01*
X149492205Y-64341742D01*
X149162465Y-64226360D01*
X149162453Y-64226356D01*
X148899589Y-64166359D01*
X148821849Y-64148616D01*
X148821846Y-64148615D01*
X148821834Y-64148613D01*
X148474688Y-64109500D01*
X148474682Y-64109500D01*
X148125318Y-64109500D01*
X148125311Y-64109500D01*
X147778165Y-64148613D01*
X147778151Y-64148616D01*
X147437546Y-64226356D01*
X147437534Y-64226360D01*
X147107794Y-64341742D01*
X147107772Y-64341751D01*
X146793027Y-64493324D01*
X146497208Y-64679200D01*
X146224063Y-64897025D01*
X145977025Y-65144063D01*
X145759200Y-65417208D01*
X145573324Y-65713027D01*
X145421751Y-66027772D01*
X145421742Y-66027794D01*
X145306360Y-66357534D01*
X145306356Y-66357546D01*
X145228616Y-66698151D01*
X145228613Y-66698165D01*
X145189500Y-67045311D01*
X131977901Y-67045311D01*
X132168237Y-66854975D01*
X132352798Y-66623542D01*
X132510286Y-66372901D01*
X132537871Y-66315621D01*
X132638718Y-66106208D01*
X132638720Y-66106204D01*
X132650237Y-66073292D01*
X132714253Y-65890340D01*
X132754975Y-65833565D01*
X132790339Y-65814253D01*
X133006202Y-65738721D01*
X133249818Y-65621402D01*
X133272895Y-65610289D01*
X133272895Y-65610288D01*
X133272901Y-65610286D01*
X133523542Y-65452798D01*
X133754975Y-65268237D01*
X133964288Y-65058924D01*
X134148849Y-64827491D01*
X134306337Y-64576850D01*
X134408213Y-64365301D01*
X134434765Y-64310166D01*
X134434766Y-64310162D01*
X134434772Y-64310151D01*
X134532539Y-64030750D01*
X134598408Y-63742158D01*
X134631551Y-63448007D01*
X134631551Y-63151993D01*
X134600085Y-62872722D01*
X152249500Y-62872722D01*
X152249500Y-63187277D01*
X152284716Y-63499827D01*
X152284718Y-63499843D01*
X152354710Y-63806499D01*
X152354711Y-63806501D01*
X152458598Y-64103395D01*
X152595072Y-64386786D01*
X152595074Y-64386789D01*
X152762423Y-64653123D01*
X152901476Y-64827489D01*
X152956929Y-64897026D01*
X152958539Y-64899044D01*
X153180956Y-65121461D01*
X153426877Y-65317577D01*
X153693211Y-65484926D01*
X153976606Y-65621402D01*
X154273500Y-65725289D01*
X154580160Y-65795282D01*
X154892723Y-65830499D01*
X154892724Y-65830500D01*
X154892727Y-65830500D01*
X155207276Y-65830500D01*
X155207276Y-65830499D01*
X155519840Y-65795282D01*
X155826500Y-65725289D01*
X156123394Y-65621402D01*
X156406789Y-65484926D01*
X156673123Y-65317577D01*
X156919044Y-65121461D01*
X157141461Y-64899044D01*
X157337577Y-64653123D01*
X157504926Y-64386789D01*
X157641402Y-64103394D01*
X157745289Y-63806500D01*
X157815282Y-63499840D01*
X157850500Y-63187273D01*
X157850500Y-62872727D01*
X157815282Y-62560160D01*
X157745289Y-62253500D01*
X157641402Y-61956606D01*
X157504926Y-61673211D01*
X157337577Y-61406877D01*
X157141461Y-61160956D01*
X156919044Y-60938539D01*
X156673123Y-60742423D01*
X156406789Y-60575074D01*
X156406786Y-60575072D01*
X156123395Y-60438598D01*
X155826501Y-60334711D01*
X155826499Y-60334710D01*
X155519843Y-60264718D01*
X155519827Y-60264716D01*
X155207277Y-60229500D01*
X155207273Y-60229500D01*
X154892727Y-60229500D01*
X154892722Y-60229500D01*
X154580172Y-60264716D01*
X154580156Y-60264718D01*
X154273500Y-60334710D01*
X154273498Y-60334711D01*
X153976604Y-60438598D01*
X153693213Y-60575072D01*
X153426878Y-60742422D01*
X153180956Y-60938538D01*
X152958538Y-61160956D01*
X152762422Y-61406878D01*
X152595072Y-61673213D01*
X152458598Y-61956604D01*
X152354711Y-62253498D01*
X152354710Y-62253500D01*
X152284718Y-62560156D01*
X152284716Y-62560172D01*
X152249500Y-62872722D01*
X134600085Y-62872722D01*
X134598408Y-62857842D01*
X134532539Y-62569250D01*
X134529362Y-62560172D01*
X134434774Y-62289855D01*
X134434765Y-62289833D01*
X134306340Y-62023155D01*
X134306337Y-62023150D01*
X134148849Y-61772509D01*
X133964288Y-61541076D01*
X133754975Y-61331763D01*
X133523542Y-61147202D01*
X133272901Y-60989714D01*
X133272902Y-60989714D01*
X133272895Y-60989710D01*
X133006213Y-60861283D01*
X133006205Y-60861280D01*
X132790340Y-60785744D01*
X132733564Y-60745022D01*
X132714253Y-60709657D01*
X132638720Y-60493795D01*
X132638718Y-60493791D01*
X132510289Y-60227104D01*
X132510286Y-60227099D01*
X132352798Y-59976458D01*
X132168237Y-59745025D01*
X131958924Y-59535712D01*
X131727491Y-59351151D01*
X131476850Y-59193663D01*
X131476851Y-59193663D01*
X131476844Y-59193659D01*
X131210166Y-59065234D01*
X131210144Y-59065225D01*
X130930761Y-58967464D01*
X130930749Y-58967460D01*
X130642161Y-58901592D01*
X130642145Y-58901590D01*
X130348011Y-58868449D01*
X130348007Y-58868449D01*
X130051993Y-58868449D01*
X130051988Y-58868449D01*
X129757854Y-58901590D01*
X129757838Y-58901592D01*
X129469250Y-58967460D01*
X129469238Y-58967464D01*
X129189855Y-59065225D01*
X129189833Y-59065234D01*
X128923155Y-59193659D01*
X128672510Y-59351150D01*
X128441076Y-59535711D01*
X128231762Y-59745025D01*
X128047201Y-59976459D01*
X127889712Y-60227101D01*
X127836220Y-60338180D01*
X127789398Y-60390039D01*
X127721971Y-60408352D01*
X127655347Y-60387304D01*
X127610678Y-60333578D01*
X127600500Y-60284378D01*
X127600500Y-57616000D01*
X127620185Y-57548961D01*
X127672989Y-57503206D01*
X127742147Y-57493262D01*
X127805703Y-57522287D01*
X127817837Y-57534366D01*
X127839218Y-57558815D01*
X127980093Y-57719906D01*
X128206906Y-57918256D01*
X128458128Y-58084603D01*
X128458133Y-58084606D01*
X128581608Y-58144432D01*
X128729284Y-58215984D01*
X128823225Y-58246855D01*
X129015520Y-58310047D01*
X129015524Y-58310047D01*
X129015531Y-58310050D01*
X129311762Y-58365123D01*
X129488979Y-58375500D01*
X131311020Y-58375499D01*
X131488238Y-58365123D01*
X131784469Y-58310050D01*
X131784476Y-58310047D01*
X131784479Y-58310047D01*
X131873989Y-58280631D01*
X132070716Y-58215984D01*
X132341870Y-58084604D01*
X132593095Y-57918255D01*
X132819906Y-57719906D01*
X133018255Y-57493095D01*
X133184604Y-57241870D01*
X133315984Y-56970716D01*
X133410050Y-56684469D01*
X133465123Y-56388238D01*
X133475500Y-56211021D01*
X133475499Y-54388980D01*
X133465123Y-54211762D01*
X133410050Y-53915531D01*
X133410047Y-53915524D01*
X133410047Y-53915520D01*
X133315986Y-53629291D01*
X133315984Y-53629284D01*
X133199500Y-53388873D01*
X133184606Y-53358133D01*
X133184603Y-53358128D01*
X133018256Y-53106906D01*
X132819906Y-52880093D01*
X132593093Y-52681743D01*
X132341871Y-52515396D01*
X132341866Y-52515393D01*
X132070720Y-52384018D01*
X132070716Y-52384016D01*
X132070712Y-52384014D01*
X132070708Y-52384013D01*
X131784479Y-52289952D01*
X131784469Y-52289950D01*
X131488233Y-52234876D01*
X131311021Y-52224500D01*
X129488979Y-52224500D01*
X129311766Y-52234876D01*
X129015530Y-52289950D01*
X129015520Y-52289952D01*
X128729291Y-52384013D01*
X128729279Y-52384018D01*
X128458133Y-52515393D01*
X128458128Y-52515396D01*
X128206906Y-52681743D01*
X127980093Y-52880093D01*
X127817842Y-53065628D01*
X127758893Y-53103134D01*
X127689024Y-53102816D01*
X127630418Y-53064774D01*
X127601683Y-53001087D01*
X127600500Y-52983999D01*
X127600500Y-51324500D01*
X127620185Y-51257461D01*
X127672989Y-51211706D01*
X127724500Y-51200500D01*
X136793594Y-51200500D01*
X136860633Y-51220185D01*
G37*
%TD.AperFunction*%
%TD*%
%TA.AperFunction,Conductor*%
%TO.N,GNDD*%
G36*
X132480097Y-79168283D02*
G01*
X132518356Y-79177880D01*
X133828232Y-79740229D01*
X133882068Y-79784763D01*
X133900205Y-79826578D01*
X133959737Y-80087407D01*
X133959741Y-80087419D01*
X134078465Y-80426711D01*
X134234432Y-80750579D01*
X134234434Y-80750582D01*
X134425685Y-81054956D01*
X134649812Y-81336003D01*
X134903997Y-81590188D01*
X135185044Y-81814315D01*
X135489418Y-82005566D01*
X135813292Y-82161536D01*
X136068119Y-82250703D01*
X136152580Y-82280258D01*
X136152592Y-82280262D01*
X136503052Y-82360252D01*
X136860260Y-82400499D01*
X136860261Y-82400500D01*
X136860264Y-82400500D01*
X137219739Y-82400500D01*
X137219739Y-82400499D01*
X137576948Y-82360252D01*
X137927408Y-82280262D01*
X138266708Y-82161536D01*
X138590582Y-82005566D01*
X138744241Y-81909015D01*
X138811476Y-81890015D01*
X138859129Y-81900065D01*
X143204027Y-83765393D01*
X153618687Y-88236557D01*
X153672523Y-88281092D01*
X153693737Y-88347663D01*
X153675591Y-88415135D01*
X153623847Y-88462086D01*
X153569769Y-88474500D01*
X153374471Y-88474500D01*
X153025646Y-88513803D01*
X153025630Y-88513805D01*
X152683387Y-88591919D01*
X152683375Y-88591923D01*
X152352044Y-88707861D01*
X152352030Y-88707867D01*
X152035756Y-88860177D01*
X151738514Y-89046947D01*
X151464052Y-89265822D01*
X151215822Y-89514052D01*
X150996947Y-89788514D01*
X150810177Y-90085756D01*
X150657867Y-90402030D01*
X150657861Y-90402044D01*
X150541923Y-90733375D01*
X150541919Y-90733387D01*
X150463805Y-91075630D01*
X150463803Y-91075646D01*
X150424500Y-91424471D01*
X150424500Y-91775528D01*
X150463803Y-92124353D01*
X150463805Y-92124369D01*
X150541919Y-92466612D01*
X150541923Y-92466624D01*
X150657861Y-92797955D01*
X150657867Y-92797969D01*
X150810177Y-93114243D01*
X150810179Y-93114246D01*
X150996948Y-93411487D01*
X151215823Y-93685948D01*
X151464052Y-93934177D01*
X151738513Y-94153052D01*
X152035754Y-94339821D01*
X152352038Y-94492136D01*
X152352044Y-94492138D01*
X152683375Y-94608076D01*
X152683387Y-94608080D01*
X153025634Y-94686195D01*
X153374472Y-94725499D01*
X153374473Y-94725500D01*
X153374476Y-94725500D01*
X153725527Y-94725500D01*
X153725527Y-94725499D01*
X154074366Y-94686195D01*
X154416613Y-94608080D01*
X154747962Y-94492136D01*
X155064246Y-94339821D01*
X155361487Y-94153052D01*
X155564611Y-93991066D01*
X155629296Y-93964659D01*
X155697991Y-93977414D01*
X155748885Y-94025285D01*
X155765859Y-94084063D01*
X156674937Y-122598023D01*
X156675000Y-122601974D01*
X156675000Y-125175500D01*
X156655315Y-125242539D01*
X156602511Y-125288294D01*
X156551000Y-125299500D01*
X144724500Y-125299500D01*
X144657461Y-125279815D01*
X144611706Y-125227011D01*
X144600500Y-125175500D01*
X144600500Y-116424471D01*
X146674500Y-116424471D01*
X146674500Y-116775528D01*
X146713803Y-117124353D01*
X146713805Y-117124369D01*
X146791919Y-117466612D01*
X146791923Y-117466624D01*
X146907861Y-117797955D01*
X146907867Y-117797969D01*
X147060177Y-118114243D01*
X147060179Y-118114246D01*
X147246948Y-118411487D01*
X147465823Y-118685948D01*
X147714052Y-118934177D01*
X147988513Y-119153052D01*
X148285754Y-119339821D01*
X148602038Y-119492136D01*
X148602044Y-119492138D01*
X148933375Y-119608076D01*
X148933387Y-119608080D01*
X149275634Y-119686195D01*
X149624472Y-119725499D01*
X149624473Y-119725500D01*
X149624476Y-119725500D01*
X149975527Y-119725500D01*
X149975527Y-119725499D01*
X150324366Y-119686195D01*
X150666613Y-119608080D01*
X150997962Y-119492136D01*
X151314246Y-119339821D01*
X151611487Y-119153052D01*
X151885948Y-118934177D01*
X152134177Y-118685948D01*
X152353052Y-118411487D01*
X152539821Y-118114246D01*
X152692136Y-117797962D01*
X152808080Y-117466613D01*
X152886195Y-117124366D01*
X152925500Y-116775524D01*
X152925500Y-116424476D01*
X152886195Y-116075634D01*
X152808080Y-115733387D01*
X152692136Y-115402038D01*
X152539821Y-115085754D01*
X152353052Y-114788513D01*
X152134177Y-114514052D01*
X151885948Y-114265823D01*
X151611487Y-114046948D01*
X151314246Y-113860179D01*
X151314243Y-113860177D01*
X150997969Y-113707867D01*
X150997955Y-113707861D01*
X150666624Y-113591923D01*
X150666612Y-113591919D01*
X150324369Y-113513805D01*
X150324353Y-113513803D01*
X149975528Y-113474500D01*
X149975524Y-113474500D01*
X149624476Y-113474500D01*
X149624471Y-113474500D01*
X149275646Y-113513803D01*
X149275630Y-113513805D01*
X148933387Y-113591919D01*
X148933375Y-113591923D01*
X148602044Y-113707861D01*
X148602030Y-113707867D01*
X148285756Y-113860177D01*
X147988514Y-114046947D01*
X147714052Y-114265822D01*
X147465822Y-114514052D01*
X147246947Y-114788514D01*
X147060177Y-115085756D01*
X146907867Y-115402030D01*
X146907861Y-115402044D01*
X146791923Y-115733375D01*
X146791919Y-115733387D01*
X146713805Y-116075630D01*
X146713803Y-116075646D01*
X146674500Y-116424471D01*
X144600500Y-116424471D01*
X144600500Y-95634110D01*
X144600500Y-95634108D01*
X144566392Y-95506814D01*
X144500500Y-95392686D01*
X144407314Y-95299500D01*
X144350250Y-95266554D01*
X144293187Y-95233608D01*
X144229539Y-95216554D01*
X144165892Y-95199500D01*
X144165891Y-95199500D01*
X132570345Y-95199500D01*
X132503306Y-95179815D01*
X132457551Y-95127011D01*
X132447607Y-95057853D01*
X132476632Y-94994297D01*
X132516277Y-94963909D01*
X132741866Y-94854606D01*
X132741866Y-94854605D01*
X132741870Y-94854604D01*
X132993095Y-94688255D01*
X133219906Y-94489906D01*
X133418255Y-94263095D01*
X133584604Y-94011870D01*
X133715984Y-93740716D01*
X133810050Y-93454469D01*
X133865123Y-93158238D01*
X133875500Y-92981021D01*
X133875499Y-91158980D01*
X133865123Y-90981762D01*
X133810050Y-90685531D01*
X133810047Y-90685524D01*
X133810047Y-90685520D01*
X133715986Y-90399291D01*
X133715984Y-90399284D01*
X133646942Y-90256789D01*
X133584606Y-90128133D01*
X133584603Y-90128128D01*
X133418256Y-89876906D01*
X133219906Y-89650093D01*
X132993097Y-89451747D01*
X132993098Y-89451747D01*
X132993095Y-89451745D01*
X132935165Y-89413386D01*
X132890139Y-89359965D01*
X132881142Y-89290677D01*
X132911032Y-89227524D01*
X132935161Y-89206615D01*
X132993095Y-89168255D01*
X133219906Y-88969906D01*
X133418255Y-88743095D01*
X133584604Y-88491870D01*
X133715984Y-88220716D01*
X133810050Y-87934469D01*
X133865123Y-87638238D01*
X133875500Y-87461021D01*
X133875499Y-85638980D01*
X133865123Y-85461762D01*
X133810050Y-85165531D01*
X133810047Y-85165524D01*
X133810047Y-85165520D01*
X133715986Y-84879291D01*
X133715984Y-84879284D01*
X133648484Y-84739971D01*
X133584606Y-84608133D01*
X133584603Y-84608128D01*
X133418256Y-84356906D01*
X133219906Y-84130093D01*
X132993093Y-83931743D01*
X132741871Y-83765396D01*
X132741866Y-83765393D01*
X132470720Y-83634018D01*
X132470716Y-83634016D01*
X132470712Y-83634014D01*
X132470708Y-83634013D01*
X132184479Y-83539952D01*
X132184469Y-83539950D01*
X131888233Y-83484876D01*
X131711021Y-83474500D01*
X129888979Y-83474500D01*
X129711766Y-83484876D01*
X129415530Y-83539950D01*
X129415520Y-83539952D01*
X129129291Y-83634013D01*
X129129279Y-83634018D01*
X128858133Y-83765393D01*
X128858128Y-83765396D01*
X128606906Y-83931743D01*
X128380093Y-84130093D01*
X128181743Y-84356906D01*
X128015396Y-84608128D01*
X128015393Y-84608133D01*
X127884018Y-84879279D01*
X127884013Y-84879291D01*
X127842302Y-85006220D01*
X127802672Y-85063763D01*
X127738223Y-85090746D01*
X127669417Y-85078602D01*
X127618099Y-85031186D01*
X127600500Y-84967508D01*
X127600500Y-78882626D01*
X127620185Y-78815587D01*
X127672989Y-78769832D01*
X127735150Y-78759085D01*
X132480097Y-79168283D01*
G37*
%TD.AperFunction*%
%TD*%
M02*
